SplineFontDB: 3.0
FontName: ShofarDemi-Bold
FullName: Shofar Demi-Bold
FamilyName: Shofar
Weight: Demi-Bold
Copyright: Copyright 2010-2012 by Yoram Gnat (yoram.gnat@gmail.com). Distributed under the terms of GNU General Public License version 2(http://www.gnu.org/licenses/gpl.html). \n\nAs a special exception, if you create a document which uses this font, and embed this font or unaltered portions of this font into the document, this font does not by itself cause the resulting document to be covered by the GNU General Public License. This exception does not however invalidate any other reasons why the document might be covered by the GNU General Public License. If you modify this font, you may extend this exception to your version of the font, but you are not obligated to do so. If you do not wish to do so, delete this exception statement from your version. \n\n
Version: 0.150yg
ItalicAngle: 0
UnderlinePosition: -1228
UnderlineWidth: 184
Ascent: 1638
Descent: 410
LayerCount: 2
Layer: 0 0 "Back"  1
Layer: 1 0 "Fore"  0
NeedsXUIDChange: 1
UniqueID: 4247518
FSType: 0
OS2Version: 0
OS2_WeightWidthSlopeOnly: 0
OS2_UseTypoMetrics: 0
CreationTime: 1235598109
ModificationTime: 1334840074
PfmFamily: 17
TTFWeight: 600
TTFWidth: 6
LineGap: 184
VLineGap: 0
OS2TypoAscent: 0
OS2TypoAOffset: 1
OS2TypoDescent: 0
OS2TypoDOffset: 1
OS2TypoLinegap: 184
OS2WinAscent: 0
OS2WinAOffset: 1
OS2WinDescent: 150
OS2WinDOffset: 1
HheadAscent: 0
HheadAOffset: 1
HheadDescent: 0
HheadDOffset: 1
OS2Vendor: 'YGNT'
Lookup: 1 1 0 "ccmpZwjZwnOOLinuxBug"  {"ccmpZwjZwnjOOLinuxBug"  } ['ccmp' ('hebr' <'dflt' > ) ]
Lookup: 4 1 0 "ccmpRemoveOldFontsZerojoins"  {"ccmpRemoveOldFontsZerojoins subtable"  } ['ccmp' ('hebr' <'dflt' > ) ]
Lookup: 1 0 0 "ccmpLowEmphasisUnify"  {"ccmpLowEmphasisUnify-1"  } ['ccmp' ('DFLT' <'dflt' > 'hebr' <'dflt' > 'latn' <'dflt' > ) ]
Lookup: 4 1 0 "ccmpHolamHaserOnVav"  {"ccmpHolamHaserOnVav"  } ['ccmp' ('hebr' <'dflt' > ) ]

StartChar: exclam
Encoding: 33 33 1
Width: 549
VWidth: 1900
GlyphClass: 1
Flags: W
HStem: -28 355<159.473 391.872> 1380 20G<221 332>
VStem: 98 356<34.0435 265.527 987.474 1346.91> 226 100<433 835.937>
LayerCount: 2
Fore
SplineSet
326 433 m 1xd0
 226 433 l 1xd0
 226 709 201 790 125 1041 c 0
 108 1098 98 1161 98 1210 c 0
 98 1330 165 1400 277 1400 c 0
 387 1400 454 1330 454 1210 c 0xe0
 454 1136 450 1119 389 910 c 0
 353 786 326 640 326 433 c 1xd0
275 327 m 0
 374 327 454 247 454 150 c 0
 454 51 374 -28 273 -28 c 0
 178 -28 98 53 98 150 c 0xe0
 98 247 178 327 275 327 c 0
EndSplineSet
Validated: 1
EndChar

StartChar: quotedbl
Encoding: 34 34 2
Width: 948
VWidth: 1900
GlyphClass: 1
Flags: W
HStem: 1044 351<170.199 292.317 554.199 676.317>
VStem: 295 184<988.857 1234.5> 679 184<988.857 1234.5>
LayerCount: 2
Fore
SplineSet
542 715 m 1
 491 793 l 1
 609 873 679 966 679 1036 c 0
 679 1044 675 1048 671 1048 c 0
 669 1048 668 1050 664 1048 c 0
 658 1046 654 1044 648 1044 c 0
 557 1044 489 1114 489 1207 c 0
 489 1313 568 1395 671 1395 c 0
 785 1395 863 1302 863 1167 c 0
 863 998 753 842 542 715 c 1
158 715 m 1
 107 793 l 1
 225 873 295 966 295 1036 c 0
 295 1044 291 1048 287 1048 c 0
 285 1048 284 1050 280 1048 c 0
 274 1046 270 1044 264 1044 c 0
 173 1044 105 1114 105 1207 c 0
 105 1313 184 1395 287 1395 c 0
 401 1395 479 1302 479 1167 c 0
 479 998 369 842 158 715 c 1
EndSplineSet
Validated: 1
EndChar

StartChar: numbersign
Encoding: 35 35 3
Width: 1095
VWidth: 1900
GlyphClass: 1
Flags: W
HStem: 0 21G<200 373.919 534 707.919> 418 158<82 260 454 595 789 967> 781 158<131 314 506 646 840 1017>
LayerCount: 2
Fore
SplineSet
260 418 m 1
 82 418 l 1
 82 576 l 1
 283 576 l 1
 314 781 l 1
 131 781 l 1
 131 939 l 1
 335 939 l 1
 392 1330 l 1
 563 1330 l 1
 506 939 l 1
 669 939 l 1
 724 1330 l 1
 895 1330 l 1
 840 939 l 1
 1017 939 l 1
 1017 781 l 1
 817 781 l 1
 789 576 l 1
 967 576 l 1
 967 418 l 1
 766 418 l 1
 705 0 l 1
 534 0 l 1
 595 418 l 1
 432 418 l 1
 371 0 l 1
 200 0 l 1
 260 418 l 1
485 781 m 1
 454 576 l 1
 616 576 l 1
 646 781 l 1
 485 781 l 1
EndSplineSet
Validated: 1
EndChar

StartChar: dollar
Encoding: 36 36 4
Width: 1170
VWidth: 1900
GlyphClass: 1
Flags: W
HStem: -27 105<356.328 530 640 750.422> 1226 102<413.564 530>
VStem: 82 237<149.837 343> 120 228<822.5 1100.64> 530 110<-260 -27 84 496 857 1226 1330 1522> 790 266<980.927 1183.93> 840 237<208.517 410.853>
LayerCount: 2
Fore
SplineSet
640 823 m 1xdc
 690 808 l 2
 964 724 1077 604 1077 401 c 0
 1077 163 919 9 640 -23 c 1
 640 -260 l 1
 530 -260 l 1
 530 -27 l 1
 486 -27 459 -21 425 -13 c 0
 205 31 82 139 82 291 c 0
 82 395 150 469 245 469 c 0
 332 469 399 411 399 331 c 0
 399 280 372 222 332 190 c 0
 322 180 319 177 319 169 c 0xea
 319 127 418 78 530 78 c 1
 530 530 l 1
 465 551 l 1
 224 625 120 733 120 912 c 0
 120 1074 207 1212 353 1282 c 0
 402 1307 439 1317 530 1328 c 1
 530 1522 l 1
 640 1522 l 1
 640 1330 l 1
 895 1330 1056 1208 1056 1058 c 0
 1056 959 988 887 891 887 c 0
 809 887 746 946 746 1022 c 0
 746 1056 758 1091 779 1125 c 0
 789 1138 790 1143 790 1153 c 0
 790 1191 737 1216 640 1226 c 1
 640 823 l 1xdc
530 857 m 1
 530 1226 l 1
 408 1205 348 1146 348 1043 c 0xd8
 348 954 399 896 505 864 c 2
 530 857 l 1
640 496 m 1
 640 84 l 1
 678 88 699 93 722 103 c 0
 794 131 840 203 840 283 c 0xca
 840 387 783 452 659 490 c 2
 640 496 l 1
EndSplineSet
Validated: 1
EndChar

StartChar: percent
Encoding: 37 37 5
Width: 1680
VWidth: 1900
GlyphClass: 1
Flags: W
HStem: 0 21G<394 502.472> 27 89<1140.59 1335.15> 598 90<285.726 483.686> 674 99<1325.73 1494.01> 1129 89<739.901 1053.33>
VStem: 73 198<702.872 946.601> 668 76<928.393 1145.08> 926 196<132.846 372.21> 1525 76<360.948 638.427>
LayerCount: 2
Fore
SplineSet
1278 1372 m 1xef80
 491 0 l 1
 394 0 l 1
 1057 1163 l 1
 977 1136 932 1129 864 1129 c 0
 816 1129 787 1133 738 1146 c 1
 742 1119 744 1104 744 1089 c 0
 744 979 691 842 609 745 c 0
 525 644 434 598 326 598 c 0
 180 598 73 701 73 842 c 0
 73 973 161 1145 275 1244 c 0
 351 1309 438 1345 520 1345 c 0
 598 1345 649 1319 698 1254 c 1
 749 1229 803 1218 873 1218 c 0
 1014 1218 1107 1262 1191 1372 c 1
 1278 1372 l 1xef80
546 1250 m 1
 476 1225 453 1203 385 1081 c 0
 301 935 271 856 271 790 c 0
 271 729 311 688 368 688 c 0
 512 688 668 904 668 1104 c 0
 668 1131 665 1151 657 1178 c 1
 608 1195 578 1214 546 1250 c 1
1369 773 m 0xdf80
 1504 773 1601 675 1601 538 c 0
 1601 424 1544 279 1457 169 c 0
 1385 80 1284 27 1183 27 c 0
 1035 27 926 127 926 266 c 0
 926 374 977 505 1057 606 c 1
 1146 714 1255 773 1369 773 c 0xdf80
1417 674 m 0
 1364 674 1316 635 1259 542 c 0
 1162 384 1122 287 1122 217 c 0
 1122 160 1166 116 1219 116 c 0
 1365 116 1525 332 1525 530 c 0
 1525 610 1478 674 1417 674 c 0
EndSplineSet
Validated: 1
EndChar

StartChar: ampersand
Encoding: 38 38 6
Width: 1631
VWidth: 1900
GlyphClass: 1
Flags: W
HStem: -42 169<448 750.98> -30 207<1162 1395.97> 673 102<1005 1160.47 1363.94 1523> 1302 98<694.322 888.342>
VStem: 83 323<325.987 513.696> 393 266<994.097 1214.64> 940 209<984.834 1252.2> 1476 95<225.366 318.169>
LayerCount: 2
Fore
SplineSet
1523 775 m 1xb7
 1523 673 l 1
 1388 673 1345 638 1271 494 c 1
 1220 401 1204 374 1151 302 c 1
 1216 216 1277 177 1345 177 c 0
 1410 177 1453 232 1476 336 c 1
 1571 315 l 1
 1563 245 1546 196 1514 141 c 0
 1442 21 1354 -30 1221 -30 c 0x77
 1103 -30 1005 13 921 97 c 1
 801 11 671 -42 519 -42 c 0
 377 -42 260 11 186 89 c 0
 120 159 83 247 83 340 c 0xbb
 83 482 163 607 309 694 c 0
 357 722 395 741 467 773 c 1
 412 887 393 956 393 1047 c 0
 393 1140 437 1239 505 1302 c 0
 579 1368 679 1400 803 1400 c 0
 1010 1400 1149 1291 1149 1129 c 0
 1149 1047 1109 969 1041 914 c 0
 980 866 933 840 817 792 c 1
 914 627 1037 440 1083 391 c 1
 1148 469 1174 527 1174 580 c 0
 1174 645 1125 673 1005 673 c 1
 1005 775 l 1
 1523 775 l 1xb7
513 678 m 1
 443 634 406 572 406 490 c 0
 406 439 422 382 450 325 c 0
 515 194 606 127 720 127 c 0xbb
 768 127 799 137 845 169 c 1
 704 340 595 509 513 678 c 1
763 882 m 1
 780 890 784 891 794 895 c 0
 889 943 940 1022 940 1119 c 0
 940 1223 878 1302 792 1302 c 0
 716 1302 659 1239 659 1159 c 0x37
 659 1087 687 1013 763 882 c 1
EndSplineSet
Validated: 1
EndChar

StartChar: quotesingle
Encoding: 39 39 7
Width: 565
VWidth: 1900
GlyphClass: 1
Flags: W
HStem: 720 680
VStem: 296 184<993.857 1239.5>
LayerCount: 2
Fore
SplineSet
159 720 m 1
 108 798 l 1
 226 878 296 971 296 1041 c 0
 296 1049 292 1053 288 1053 c 0
 286 1053 285 1055 281 1053 c 0
 275 1051 271 1049 265 1049 c 0
 174 1049 106 1119 106 1212 c 0
 106 1318 185 1400 288 1400 c 0
 402 1400 480 1307 480 1172 c 0
 480 1003 370 847 159 720 c 1
EndSplineSet
Validated: 1
EndChar

StartChar: parenleft
Encoding: 40 40 8
Width: 648
VWidth: 1900
GlyphClass: 1
Flags: W
HStem: 1380 20G<543.5 607>
VStem: 102 237<312.075 867.231>
LayerCount: 2
Fore
SplineSet
607 -129 m 1
 607 -224 l 1
 468 -152 383 -82 294 32 c 0
 169 192 102 388 102 589 c 0
 102 806 180 1013 322 1180 c 0
 408 1279 480 1334 607 1400 c 1
 607 1305 l 1
 504 1233 457 1174 413 1060 c 0
 364 936 339 773 339 587 c 0
 339 382 372 205 429 78 c 1
 473 -13 514 -64 607 -129 c 1
EndSplineSet
Validated: 1
EndChar

StartChar: parenright
Encoding: 41 41 9
Width: 650
VWidth: 1900
GlyphClass: 1
Flags: W
HStem: 1380 20G<49 118.5>
VStem: 317 237<308.769 863.925>
LayerCount: 2
Fore
SplineSet
49 1305 m 1
 49 1400 l 1
 188 1328 273 1258 362 1144 c 0
 487 984 554 788 554 587 c 0
 554 370 476 163 334 -4 c 0
 248 -103 176 -158 49 -224 c 1
 49 -129 l 1
 152 -57 199 2 243 116 c 0
 292 240 317 403 317 589 c 0
 317 794 285 971 228 1098 c 1
 184 1189 142 1240 49 1305 c 1
EndSplineSet
Validated: 1
EndChar

StartChar: asterisk
Encoding: 42 42 10
Width: 932
VWidth: 1900
GlyphClass: 1
Flags: W
HStem: 478 195<160.204 276.038 668.351 815> 789 194<119.291 274.887 662.323 815.929>
VStem: 377 182<326.885 537.133 922.672 1133.39> 445 50<537.133 688 772 922.672>
LayerCount: 2
Fore
SplineSet
445 688 m 1xd0
 415 670 l 2
 361 637 343 620 293 544 c 0
 265 500 229 478 187 478 c 0
 137 478 97 517 97 565 c 0
 97 605 121 641 159 658 c 0
 185 668 191 673 265 673 c 0
 313 673 349 688 389 711 c 2
 419 730 l 1
 389 747 l 2
 331 779 315 789 219 789 c 0
 145 789 97 837 97 896 c 0
 97 944 137 983 189 983 c 0
 213 983 243 972 265 953 c 0
 279 938 279 937 317 880 c 0
 345 840 371 814 415 789 c 1
 445 772 l 1
 445 808 l 2
 445 813 445 817 445 821 c 0xd0
 445 872 438 889 395 977 c 0
 383 1002 377 1027 377 1048 c 0xe0
 377 1103 419 1148 467 1148 c 0
 519 1148 561 1103 561 1046 c 0
 561 1019 559 1012 523 936 c 0
 501 895 494 861 494 818 c 0
 494 814 494 811 495 808 c 2
 495 772 l 1
 523 789 l 2
 579 824 591 836 645 916 c 0
 675 962 709 983 751 983 c 0
 799 983 839 945 839 896 c 0
 839 856 815 821 777 802 c 0
 755 792 749 793 673 785 c 1
 623 785 591 772 547 747 c 2
 517 730 l 1
 547 713 l 2
 607 681 623 671 717 671 c 0
 791 671 839 622 839 563 c 0
 839 515 803 478 755 478 c 0
 703 478 683 496 619 582 c 0
 593 620 561 645 523 670 c 2
 495 688 l 1
 495 652 l 2xd0
 495 591 495 576 539 483 c 0
 553 458 559 434 559 415 c 0
 559 358 519 312 467 312 c 0
 419 312 377 358 377 413 c 0xe0
 377 441 381 451 415 525 c 1
 437 569 445 603 445 652 c 2
 445 688 l 1xd0
EndSplineSet
Validated: 1
EndChar

StartChar: plus
Encoding: 43 43 11
Width: 1121
VWidth: 1900
GlyphClass: 1
Flags: W
HStem: 616 219<79 449 668 1036>
VStem: 449 219<246 616 835 1206>
LayerCount: 2
Fore
SplineSet
449 616 m 1
 79 616 l 1
 79 835 l 1
 449 835 l 1
 449 1206 l 1
 668 1206 l 1
 668 835 l 1
 1036 835 l 1
 1036 616 l 1
 668 616 l 1
 668 246 l 1
 449 246 l 1
 449 616 l 1
EndSplineSet
Validated: 1
Substitution2: "saltStylisticAlternatives subtable" hebrewplussign
EndChar

StartChar: comma
Encoding: 44 44 12
Width: 564
VWidth: 1900
GlyphClass: 1
Flags: W
HStem: -19 348<161.199 283.317>
VStem: 286 184<-78.6154 167.5>
LayerCount: 2
Fore
SplineSet
149 -353 m 1
 98 -276 l 1
 216 -194 286 -102 286 -30 c 0
 286 -22 284 -19 278 -19 c 2
 271 -19 l 1
 267 -21 264 -19 256 -19 c 0
 165 -19 96 49 96 142 c 0
 96 246 175 329 278 329 c 0
 392 329 470 236 470 99 c 0
 470 -70 360 -226 149 -353 c 1
EndSplineSet
Validated: 1
EndChar

StartChar: hyphen
Encoding: 45 45 13
Width: 712
VWidth: 1900
GlyphClass: 1
Flags: W
HStem: 425 247<125 597>
VStem: 125 472<425 672>
LayerCount: 2
Fore
SplineSet
125 672 m 1
 597 672 l 1
 597 425 l 1
 125 425 l 1
 125 672 l 1
EndSplineSet
Validated: 1
EndChar

StartChar: period
Encoding: 46 46 14
Width: 549
VWidth: 1900
GlyphClass: 1
Flags: W
HStem: -28 357<158.23 391.872>
VStem: 97 357<34.0435 267.2>
LayerCount: 2
Fore
SplineSet
275 329 m 0
 374 329 454 249 454 150 c 0
 454 51 374 -28 273 -28 c 0
 176 -28 97 53 97 150 c 0
 97 249 176 329 275 329 c 0
EndSplineSet
Validated: 1
EndChar

StartChar: slash
Encoding: 47 47 15
Width: 695
VWidth: 1900
GlyphClass: 1
Flags: W
HStem: 1380 20G<512.319 660>
VStem: 42 618
LayerCount: 2
Fore
SplineSet
519 1400 m 1
 660 1400 l 1
 183 -28 l 1
 42 -28 l 1
 519 1400 l 1
EndSplineSet
Validated: 1
EndChar

StartChar: zero
Encoding: 48 48 16
Width: 1197
VWidth: 1900
GlyphClass: 1
Flags: W
HStem: -27 99<503.673 689.314> 1246 99<503.071 691.108>
VStem: 104 327<365.302 949.539> 760 330<362.07 959.709>
LayerCount: 2
Fore
SplineSet
598 1345 m 0
 725 1345 838 1288 927 1180 c 1
 1039 1039 1090 874 1090 650 c 0
 1090 264 877 -27 598 -27 c 0
 313 -27 104 264 104 659 c 0
 104 1054 313 1345 598 1345 c 0
596 1246 m 0
 530 1246 484 1206 463 1130 c 0
 446 1065 431 853 431 659 c 0
 431 435 448 230 471 167 c 0
 494 106 537 72 596 72 c 0
 661 72 706 112 727 188 c 0
 744 253 760 462 760 656 c 0
 760 884 745 1088 720 1151 c 1
 699 1212 653 1246 596 1246 c 0
EndSplineSet
Validated: 1
EndChar

StartChar: one
Encoding: 49 49 17
Width: 880
VWidth: 1900
GlyphClass: 1
Flags: W
HStem: 0 103<77 304.008 610.943 835> 1108 106<60 294.845>
VStem: 309 298<112.912 1100.08>
LayerCount: 2
Fore
SplineSet
607 1345 m 1
 607 274 l 2
 607 154 607 146 620 131 c 0
 635 110 677 103 774 103 c 2
 835 103 l 1
 835 0 l 1
 77 0 l 1
 77 103 l 1
 138 103 l 2
 239 103 278 110 295 131 c 0
 308 146 309 156 309 274 c 2
 309 948 l 2
 309 1106 309 1108 140 1108 c 1
 60 1108 l 1
 60 1214 l 1
 284 1214 422 1256 540 1345 c 1
 607 1345 l 1
EndSplineSet
Validated: 1
EndChar

StartChar: two
Encoding: 50 50 18
Width: 1161
VWidth: 1900
GlyphClass: 1
Flags: W
HStem: 0 285<363 872.12> 1237 108<363.622 641.345>
VStem: 109 196<894.5 1129.4> 711 323<816.365 1144.06> 937 103<440.147 505>
LayerCount: 2
Fore
SplineSet
937 505 m 1xe8
 1040 505 l 1
 1040 -8 l 1xe8
 983 -2 912 0 880 0 c 2
 166 0 l 2
 139 0 116 -2 67 -8 c 1
 67 82 l 1
 162 219 236 306 449 530 c 0
 650 745 711 857 711 1015 c 0
 711 1156 635 1237 502 1237 c 0
 407 1237 305 1173 305 1112 c 0
 305 1097 314 1085 335 1075 c 0
 422 1033 459 986 459 904 c 0
 459 805 396 743 297 743 c 0
 183 743 109 828 109 961 c 0
 109 1178 309 1345 567 1345 c 0
 835 1345 1034 1191 1034 988 c 0xf0
 1034 899 997 798 932 712 c 0
 877 642 817 599 553 428 c 0
 479 379 429 342 363 285 c 1
 730 285 l 1
 850 285 854 287 873 300 c 0
 888 310 899 334 916 410 c 2
 937 505 l 1xe8
EndSplineSet
Validated: 1
EndChar

StartChar: three
Encoding: 51 51 19
Width: 1135
VWidth: 1900
GlyphClass: 1
Flags: W
HStem: -27 99<351.19 619.885> 631 135<345.438 534.609> 642 103<410.07 639.065> 859 21G<251.5 346.5> 1246 99<381.491 633.071>
VStem: 81 247<148.206 349> 128 238<982.5 1192> 700 308<854.181 1168.4> 711 331<186.371 542.386>
LayerCount: 2
Fore
SplineSet
700 699 m 1xbb
 801 686 848 672 901 642 c 0
 988 591 1042 487 1042 367 c 0
 1042 245 985 129 898 68 c 0
 811 7 679 -27 540 -27 c 0
 266 -27 81 104 81 296 c 0
 81 402 151 477 252 477 c 0
 347 477 417 408 417 319 c 0
 417 266 404 241 347 186 c 0
 334 175 328 163 328 152 c 0
 328 112 411 72 491 72 c 0
 632 72 711 182 711 372 c 0
 711 551 653 642 535 642 c 0xbc80
 527 642 497 637 440 631 c 0
 429 629 417 631 409 631 c 0
 369 631 341 661 341 703 c 0
 341 743 365 766 409 766 c 0xdc80
 432 766 443 764 487 754 c 0
 517 748 539 745 554 745 c 0
 643 745 700 848 700 1011 c 0
 700 1159 630 1246 510 1246 c 0
 438 1246 366 1210 366 1174 c 0
 366 1166 369 1161 379 1151 c 0
 434 1100 455 1060 455 1009 c 0
 455 920 392 859 301 859 c 0
 202 859 128 933 128 1032 c 0
 128 1104 168 1184 229 1239 c 0
 309 1309 422 1345 559 1345 c 0
 829 1345 1008 1210 1008 1009 c 0
 1008 863 918 760 751 712 c 0
 738 708 723 705 700 699 c 1xbb
EndSplineSet
Validated: 1
EndChar

StartChar: four
Encoding: 52 52 20
Width: 1151
VWidth: 1900
GlyphClass: 1
Flags: W
HStem: 0 103<408 583.057 899.724 1056> 344 127<213 587 885 1075>
VStem: 587 298<129.791 344 471 946>
LayerCount: 2
Fore
SplineSet
885 471 m 1
 1075 471 l 1
 1075 344 l 1
 885 344 l 1
 885 274 l 2
 885 154 886 146 899 129 c 0
 914 112 958 103 1036 103 c 2
 1056 103 l 1
 1056 0 l 1
 408 0 l 1
 408 103 l 1
 429 103 l 2
 515 103 559 110 574 129 c 0
 587 146 587 154 587 274 c 2
 587 344 l 1
 74 344 l 1
 74 484 l 1
 766 1345 l 1
 897 1345 l 1
 897 1204 885 1098 885 1056 c 2
 885 471 l 1
587 471 m 1
 587 946 l 1
 213 471 l 1
 587 471 l 1
EndSplineSet
Validated: 1
EndChar

StartChar: five
Encoding: 53 53 21
Width: 1127
VWidth: 1900
GlyphClass: 1
Flags: W
HStem: -27 109<325.312 600.598> 745 129<357.997 617.79> 1018 295<320.969 786.817>
VStem: 83 218<135.57 346> 132 148<573.49 672.484> 702 338<243.3 635.188>
LayerCount: 2
Fore
SplineSet
322 1047 m 1xec
 294 802 l 1
 419 859 478 874 567 874 c 0
 841 874 1040 692 1040 445 c 0
 1040 166 828 -27 516 -27 c 0
 254 -27 83 97 83 287 c 0
 83 405 155 481 265 481 c 0
 362 481 427 418 427 325 c 0
 427 260 398 224 324 188 c 0
 307 178 301 173 301 162 c 0xf4
 301 122 383 82 469 82 c 0
 621 82 702 205 702 435 c 0
 702 640 630 745 488 745 c 0
 410 745 334 721 277 673 c 1
 279 662 280 650 280 642 c 0
 280 600 245 566 203 566 c 0
 163 566 132 596 132 636 c 0
 132 666 140 680 182 722 c 1
 182 1051 225 1193 225 1345 c 1
 343 1320 438 1313 596 1313 c 0
 744 1313 877 1325 940 1340 c 0
 951 1344 962 1345 970 1345 c 0
 980 1345 985 1335 985 1324 c 0
 985 1282 957 1213 921 1165 c 0
 849 1072 720 1018 562 1018 c 0
 488 1018 411 1028 322 1047 c 1xec
EndSplineSet
Validated: 1
EndChar

StartChar: six
Encoding: 54 54 22
Width: 1187
VWidth: 1900
GlyphClass: 1
Flags: W
HStem: -27 90<512.769 690.298> 669 142<527.809 823> 1246 99<571.871 762.578>
VStem: 105 340<297.015 901.852> 762 331<230.181 607.399> 766 291<1027 1219.83>
LayerCount: 2
Fore
SplineSet
434 686 m 1xf4
 514 777 589 811 711 811 c 0
 935 811 1093 652 1093 424 c 0xf8
 1093 164 889 -27 610 -27 c 0
 454 -27 327 32 234 146 c 0
 145 256 105 391 105 581 c 0
 105 807 156 983 268 1129 c 0
 378 1275 520 1345 700 1345 c 0
 918 1345 1057 1242 1057 1079 c 0
 1057 975 988 908 880 908 c 0
 781 908 713 968 713 1054 c 0
 713 1092 726 1135 751 1167 c 0
 764 1184 766 1192 766 1203 c 0
 766 1230 733 1246 685 1246 c 0
 556 1246 443 1100 443 830 c 0
 443 794 434 709 434 686 c 1xf4
612 669 m 0
 540 669 481 622 460 540 c 0
 450 496 445 435 445 369 c 0
 445 173 504 63 607 63 c 0
 708 63 762 183 762 403 c 0
 762 574 711 669 612 669 c 0
EndSplineSet
Validated: 1
EndChar

StartChar: seven
Encoding: 55 55 23
Width: 1074
VWidth: 1900
GlyphClass: 1
Flags: W
HStem: 1043 276<245.073 813.753>
VStem: 77 104<775.484 830.135> 346 363<34.0762 334.523>
LayerCount: 2
Fore
SplineSet
1028 1345 m 1
 1028 1265 l 1
 745 663 709 534 709 184 c 0
 709 47 641 -27 521 -27 c 0
 415 -27 346 48 346 160 c 0
 346 238 377 330 447 467 c 0
 457 486 536 613 688 849 c 1
 817 1043 l 1
 657 1043 575 1036 567 1036 c 0
 510 1036 413 1043 350 1043 c 0
 337 1043 326 1043 316 1043 c 0
 250 1043 236 1018 200 851 c 2
 181 766 l 1
 77 777 l 1
 141 1345 l 1
 329 1324 420 1319 595 1319 c 0
 791 1319 908 1326 1028 1345 c 1
EndSplineSet
Validated: 1
EndChar

StartChar: eight
Encoding: 56 56 24
Width: 1167
VWidth: 1900
GlyphClass: 1
Flags: W
HStem: -27 99<433.092 739.341> 1246 99<450.615 719.21>
VStem: 91 247<162.581 465.222> 133 247<865 1126.43> 792 238<905.502 1171.93> 842 235<217.8 415.771>
LayerCount: 2
Fore
SplineSet
806 781 m 1xd8
 990 707 1077 587 1077 408 c 0
 1077 148 870 -27 564 -27 c 0
 275 -27 91 105 91 310 c 0xe4
 91 420 143 508 238 557 c 0
 270 574 295 581 354 600 c 1
 204 680 133 790 133 940 c 0
 133 1185 324 1345 618 1345 c 0
 863 1345 1030 1226 1030 1051 c 0
 1030 964 988 885 914 834 c 0
 887 815 859 802 806 781 c 1xd8
709 828 m 1
 713 832 l 1
 762 876 792 952 792 1030 c 0
 792 1163 712 1246 585 1246 c 0
 467 1246 380 1168 380 1064 c 0xd8
 380 980 438 902 524 870 c 0
 560 857 621 840 699 821 c 1
 703 823 703 822 705 826 c 1
 709 828 l 1
456 549 m 1
 367 475 338 418 338 315 c 0
 338 163 431 72 585 72 c 0
 733 72 842 165 842 294 c 0xe4
 842 391 796 442 676 484 c 0
 628 499 536 526 456 549 c 1
EndSplineSet
Validated: 1
EndChar

StartChar: nine
Encoding: 57 57 25
Width: 1177
VWidth: 1900
GlyphClass: 1
Flags: W
HStem: -27 99<418.314 611.642> 500 142<355.5 645.266> 1246 99<483.345 666.059>
VStem: 88 328<705.238 1091.26> 126 290<88.0309 272> 734 342<418.438 1008.11>
LayerCount: 2
Fore
SplineSet
741 625 m 1xec
 661 536 582 500 464 500 c 0
 247 500 88 665 88 889 c 0xf4
 88 1153 286 1345 562 1345 c 0
 722 1345 861 1275 958 1146 c 0
 1038 1038 1076 906 1076 733 c 0
 1076 526 1026 344 931 203 c 1
 832 53 675 -27 479 -27 c 0
 264 -27 126 69 126 217 c 0
 126 327 202 407 306 407 c 0
 401 407 466 344 466 253 c 0
 466 211 462 199 428 144 c 0
 420 133 416 121 416 110 c 0
 416 87 439 72 481 72 c 0
 633 72 737 205 737 477 c 0
 737 523 741 541 741 625 c 1xec
578 1246 m 0
 472 1246 416 1140 416 933 c 0
 416 838 427 770 448 724 c 0
 471 676 523 642 576 642 c 0
 673 642 734 749 734 916 c 0
 734 1003 717 1106 692 1161 c 0
 669 1216 627 1246 578 1246 c 0
EndSplineSet
Validated: 1
EndChar

StartChar: colon
Encoding: 58 58 26
Width: 568
VWidth: 1900
GlyphClass: 1
Flags: W
HStem: -28 355<163.473 395.872> 559 355<163.473 395.872>
VStem: 102 356<34.0435 265.527 621.043 852.527>
LayerCount: 2
Fore
SplineSet
279 327 m 0
 378 327 458 247 458 150 c 0
 458 51 378 -28 277 -28 c 0
 182 -28 102 53 102 150 c 0
 102 247 182 327 279 327 c 0
279 914 m 0
 378 914 458 834 458 737 c 0
 458 638 378 559 277 559 c 0
 182 559 102 640 102 737 c 0
 102 834 182 914 279 914 c 0
EndSplineSet
Validated: 1
EndChar

StartChar: semicolon
Encoding: 59 59 27
Width: 577
VWidth: 1900
GlyphClass: 1
Flags: W
HStem: -19 350<162.793 285.317> 559 355<168.473 400.443>
VStem: 97 375<30.4651 255.573 634.527 839.135> 287 185<-77.6505 169.5>
LayerCount: 2
Fore
SplineSet
150 -352 m 1xe0
 97 -276 l 1xe0
 215 -192 287 -102 287 -30 c 0xd0
 287 -22 286 -19 280 -19 c 2
 272 -19 l 1
 268 -21 265 -19 257 -19 c 0
 166 -19 97 49 97 142 c 0
 97 248 177 331 280 331 c 0
 394 331 472 238 472 101 c 0
 472 -68 361 -225 150 -352 c 1xe0
284 914 m 0
 383 914 462 834 462 737 c 0
 462 638 383 559 282 559 c 0
 187 559 107 640 107 737 c 0
 107 834 187 914 284 914 c 0
EndSplineSet
Validated: 1
EndChar

StartChar: less
Encoding: 60 60 28
Width: 1158
VWidth: 1900
GlyphClass: 1
Flags: W
LayerCount: 2
Fore
SplineSet
1048 768 m 1
 425 481 l 1
 1048 190 l 1
 1048 -48 l 1
 81 393 l 1
 81 564 l 1
 1048 1005 l 1
 1048 768 l 1
EndSplineSet
Validated: 1
EndChar

StartChar: equal
Encoding: 61 61 29
Width: 1208
VWidth: 1900
GlyphClass: 1
Flags: W
HStem: 240 218<121 1078> 631 219<121 1078>
LayerCount: 2
Fore
SplineSet
121 240 m 1
 121 458 l 1
 1078 458 l 1
 1078 240 l 1
 121 240 l 1
121 631 m 1
 121 850 l 1
 1078 850 l 1
 1078 631 l 1
 121 631 l 1
EndSplineSet
Validated: 1
EndChar

StartChar: greater
Encoding: 62 62 30
Width: 1143
VWidth: 1900
GlyphClass: 1
Flags: W
LayerCount: 2
Fore
SplineSet
104 768 m 1
 104 1005 l 1
 1071 564 l 1
 1071 393 l 1
 104 -48 l 1
 104 190 l 1
 727 481 l 1
 104 768 l 1
EndSplineSet
Validated: 1
EndChar

StartChar: question
Encoding: 63 63 31
Width: 974
VWidth: 1900
GlyphClass: 1
Flags: W
HStem: -28 357<326.8 560.872> 1292 108<303.829 520.022>
VStem: 53 247<1052.5 1244.63> 265 358<34.0435 267.2> 383 109<433 603.491> 579 334<897.739 1225.87>
LayerCount: 2
Fore
SplineSet
492 433 m 1xec
 389 433 l 1
 385 463 383 494 383 513 c 0
 383 599 399 637 503 823 c 0
 551 909 579 1005 579 1083 c 0
 579 1216 514 1292 400 1292 c 0
 341 1292 300 1271 300 1244 c 0
 300 1231 302 1230 336 1203 c 0
 376 1173 397 1130 397 1079 c 0
 397 990 330 927 233 927 c 0
 129 927 53 1001 53 1104 c 0
 53 1279 229 1400 480 1400 c 0
 746 1400 913 1269 913 1062 c 0
 913 971 875 883 809 826 c 0
 796 815 778 802 632 690 c 0
 514 599 492 566 492 433 c 1xec
444 329 m 0
 543 329 623 249 623 150 c 0
 623 51 543 -28 442 -28 c 0
 345 -28 265 53 265 150 c 0xd0
 265 249 345 329 444 329 c 0
EndSplineSet
Validated: 1
EndChar

StartChar: at
Encoding: 64 64 32
Width: 1519
VWidth: 1900
GlyphClass: 1
Flags: W
HStem: -28 115<578.58 1013.15> 276 98<565.51 726.772> 281 116<919.5 1136.46> 990 99<729.062 899.727> 1284 116<563.728 1007.02>
VStem: 97 121<455.927 931.151> 355 196<396.951 711.636> 1301 122<596.638 1001.09>
LayerCount: 2
Fore
SplineSet
1275 361 m 1xbf
 1406 361 l 1
 1378 291 1345 247 1284 186 c 0
 1140 40 978 -28 786 -28 c 0
 402 -28 97 289 97 688 c 0
 97 1083 404 1400 790 1400 c 0
 1142 1400 1423 1138 1423 809 c 0
 1423 533 1202 281 963 281 c 0xbf
 876 281 817 323 817 388 c 0
 817 394 819 405 821 418 c 1
 770 321 701 276 606 276 c 0xdf
 464 276 355 399 355 559 c 0
 355 679 404 819 484 927 c 0
 560 1030 671 1089 783 1089 c 0
 867 1089 911 1060 959 990 c 1
 982 1056 l 1
 1180 1056 l 1
 1005 509 l 2
 997 481 991 456 991 439 c 0
 991 412 1007 397 1037 397 c 0
 1073 397 1117 418 1159 454 c 0
 1252 532 1301 652 1301 796 c 0
 1301 1079 1086 1284 788 1284 c 0
 461 1284 218 1031 218 695 c 0
 218 351 467 87 790 87 c 0
 993 87 1167 184 1275 361 c 1xbf
822 990 m 0
 763 990 710 944 659 851 c 0
 593 733 551 592 551 486 c 0
 551 414 583 374 638 374 c 0xdf
 699 374 754 429 798 532 c 0
 849 652 912 855 912 904 c 0
 912 950 871 990 822 990 c 0
EndSplineSet
Validated: 1
EndChar

StartChar: bracketleft
Encoding: 91 91 33
Width: 679
VWidth: 1900
GlyphClass: 1
Flags: W
HStem: -205 95<387 638> 1277 95<387 638>
VStem: 154 233<-110 1277>
LayerCount: 2
Fore
SplineSet
638 1372 m 1
 638 1277 l 1
 387 1277 l 1
 387 -110 l 1
 638 -110 l 1
 638 -205 l 1
 154 -205 l 1
 154 1372 l 1
 638 1372 l 1
EndSplineSet
Validated: 1
EndChar

StartChar: backslash
Encoding: 92 92 34
Width: 1029
VWidth: 1900
GlyphClass: 1
Flags: W
HStem: 0 21G<842.3 994> 1380 20G<35 187.686>
LayerCount: 2
Fore
SplineSet
176 1400 m 1
 994 0 l 1
 854 0 l 1
 35 1400 l 1
 176 1400 l 1
EndSplineSet
Validated: 1
EndChar

StartChar: bracketright
Encoding: 93 93 35
Width: 686
VWidth: 1900
GlyphClass: 1
Flags: W
HStem: -205 95<50 301> 1277 95<50 301>
VStem: 301 233<-110 1277>
LayerCount: 2
Fore
SplineSet
50 -205 m 1
 50 -110 l 1
 301 -110 l 1
 301 1277 l 1
 50 1277 l 1
 50 1372 l 1
 534 1372 l 1
 534 -205 l 1
 50 -205 l 1
EndSplineSet
Validated: 1
EndChar

StartChar: asciicircum
Encoding: 94 94 36
Width: 1081
VWidth: 1900
GlyphClass: 1
Flags: W
LayerCount: 2
Fore
SplineSet
1019 604 m 1
 792 604 l 1
 544 1079 l 1
 291 604 l 1
 65 604 l 1
 462 1372 l 1
 623 1372 l 1
 1019 604 l 1
EndSplineSet
Validated: 1
EndChar

StartChar: underscore
Encoding: 95 95 37
Width: 1271
VWidth: 1900
GlyphClass: 1
Flags: W
HStem: -281 171<160 1110>
LayerCount: 2
Fore
SplineSet
160 -110 m 1
 1110 -110 l 1
 1110 -281 l 1
 160 -281 l 1
 160 -110 l 1
EndSplineSet
Validated: 1
EndChar

StartChar: grave
Encoding: 96 96 38
Width: 578
VWidth: 1900
GlyphClass: 1
Flags: W
HStem: 737 348<283.343 406.801>
VStem: 98 184<898.5 1144.55>
LayerCount: 2
Fore
SplineSet
419 1419 m 1
 470 1341 l 1
 352 1259 282 1168 282 1096 c 0
 282 1088 286 1085 290 1085 c 0
 292 1085 293 1085 297 1087 c 0
 303 1089 306 1089 312 1089 c 0
 403 1089 472 1018 472 925 c 0
 472 819 393 737 290 737 c 0
 176 737 98 830 98 967 c 0
 98 1136 208 1292 419 1419 c 1
EndSplineSet
Validated: 1
EndChar

StartChar: braceleft
Encoding: 123 123 39
Width: 604
VWidth: 1900
GlyphClass: 1
Flags: W
HStem: -205 87<461.638 555> 1284 88<459.59 555>
VStem: 207 234<-68.7066 467.324 668.504 1267.65>
LayerCount: 2
Fore
SplineSet
63 542 m 1
 63 625 l 1
 143 644 171 663 192 712 c 0
 205 744 207 764 207 878 c 2
 207 1087 l 2
 207 1212 226 1280 275 1320 c 1
 309 1350 386 1372 456 1372 c 2
 555 1372 l 1
 555 1284 l 1
 469 1284 441 1240 441 1151 c 2
 441 1045 l 1
 441 821 l 2
 441 675 397 621 247 583 c 1
 397 545 441 492 441 346 c 2
 441 122 l 2
 441 -41 441 -42 458 -70 c 0
 477 -100 502 -112 555 -118 c 1
 555 -205 l 1
 456 -205 l 2
 386 -205 309 -184 275 -154 c 1
 226 -114 207 -45 207 80 c 2
 207 289 l 2
 207 414 205 433 184 469 c 0
 161 507 135 523 63 542 c 1
EndSplineSet
Validated: 1
EndChar

StartChar: bar
Encoding: 124 124 40
Width: 530
VWidth: 1900
GlyphClass: 1
Flags: W
HStem: 0 21G<153 379>
VStem: 153 226<0 1372>
LayerCount: 2
Fore
SplineSet
379 1372 m 1
 379 0 l 1
 153 0 l 1
 153 1372 l 1
 379 1372 l 1
EndSplineSet
Validated: 1
EndChar

StartChar: braceright
Encoding: 125 125 41
Width: 602
VWidth: 1900
GlyphClass: 1
Flags: W
HStem: -205 87<55 150.361> 1284 88<55 153.106>
VStem: 173 233<-68.7066 498.043 698.677 1264.68>
LayerCount: 2
Fore
SplineSet
547 625 m 1
 547 542 l 1
 469 523 441 503 422 454 c 0
 409 420 406 403 406 289 c 2
 406 80 l 2
 406 -45 387 -114 338 -154 c 1
 304 -184 228 -205 158 -205 c 2
 55 -205 l 1
 55 -118 l 1
 110 -112 135 -100 154 -70 c 0
 173 -42 173 -41 173 122 c 2
 173 346 l 2
 173 492 216 545 366 583 c 1
 216 621 173 675 173 821 c 2
 173 1045 l 1
 173 1151 l 2
 173 1240 142 1284 55 1284 c 1
 55 1372 l 1
 158 1372 l 2
 228 1372 304 1350 338 1320 c 1
 387 1280 406 1212 406 1087 c 2
 406 878 l 2
 406 754 408 733 429 697 c 0
 450 659 477 642 547 625 c 1
EndSplineSet
Validated: 1
EndChar

StartChar: asciitilde
Encoding: 126 126 42
Width: 1118
VWidth: 1900
GlyphClass: 1
Flags: W
HStem: 304 217<606.466 841.446> 420 216<287.534 523.157>
LayerCount: 2
Fore
SplineSet
245 321 m 1x40
 86 420 l 1
 162 562 255 636 359 636 c 0x40
 403 636 445 625 531 593 c 2
 631 557 l 1
 713 525 729 521 757 521 c 0
 801 521 831 543 884 619 c 1
 1043 519 l 1
 965 377 874 304 770 304 c 0x80
 726 304 685 314 599 348 c 1
 498 384 l 1
 416 416 401 420 373 420 c 0
 329 420 298 397 245 321 c 1x40
EndSplineSet
Validated: 1
EndChar

StartChar: atnah
Encoding: 1425 1425 43
Width: 0
VWidth: 2273
GlyphClass: 4
Flags: W
HStem: 138 40<-189 189> 602 47<-70.8391 13.6032> 718 47<-189 189>
VStem: -232 43<178 718> -34 50<288.969 350.812> 38 67<470.32 587.792> 189 43<178 718>
LayerCount: 2
Fore
SplineSet
-28 332 m 10
 0 360 l 18
 8 367 16 367 16 354 c 10
 16 324 l 18
 16 316 12 312 6 305 c 10
 -19 278 l 17
 -26 272 -34 274 -34 288 c 10
 -34 314 l 18
 -34 322 -33 326 -28 332 c 10
-30 403 m 0
 -30 429 38 468 38 510 c 0
 38 566 4 602 -34 602 c 0
 -75 602 -75 581 -86 581 c 0
 -92 581 -100 585 -100 590 c 0
 -100 592 -71 649 -5 649 c 3
 52 649 105 612 105 552 c 0
 105 478 43 453 15 404 c 0
 13 402 12 401 10 401 c 0
 6 400 -6 399 -16 399 c 0
 -24 399 -30 400 -30 403 c 0
-189 718 m 1
 -189 178 l 1
 189 178 l 1
 189 718 l 1
 -189 718 l 1
-232 765 m 1
 232 765 l 1
 232 138 l 1
 -232 138 l 1
 -232 765 l 1
EndSplineSet
Validated: 1
Substitution2: "ccmpChangeCantillationsToCircle subtable" dottedcircle
EndChar

StartChar: segolta
Encoding: 1426 1426 44
Width: 0
VWidth: 2273
GlyphClass: 4
Flags: W
HStem: 138 40<-189 189> 602 47<-70.8391 13.6032> 718 47<-189 189>
VStem: -232 43<178 718> -34 50<288.969 350.812> 38 67<470.32 587.792> 189 43<178 718>
LayerCount: 2
Fore
SplineSet
-28 332 m 10
 0 360 l 18
 8 367 16 367 16 354 c 10
 16 324 l 18
 16 316 12 312 6 305 c 10
 -19 278 l 17
 -26 272 -34 274 -34 288 c 10
 -34 314 l 18
 -34 322 -33 326 -28 332 c 10
-30 403 m 0
 -30 429 38 468 38 510 c 0
 38 566 4 602 -34 602 c 0
 -75 602 -75 581 -86 581 c 0
 -92 581 -100 585 -100 590 c 0
 -100 592 -71 649 -5 649 c 3
 52 649 105 612 105 552 c 0
 105 478 43 453 15 404 c 0
 13 402 12 401 10 401 c 0
 6 400 -6 399 -16 399 c 0
 -24 399 -30 400 -30 403 c 0
-189 718 m 1
 -189 178 l 1
 189 178 l 1
 189 718 l 1
 -189 718 l 1
-232 765 m 1
 232 765 l 1
 232 138 l 1
 -232 138 l 1
 -232 765 l 1
EndSplineSet
Validated: 1
Substitution2: "ccmpChangeCantillationsToCircle subtable" dottedcircle
EndChar

StartChar: shalshelet
Encoding: 1427 1427 45
Width: 0
VWidth: 2273
GlyphClass: 4
Flags: W
HStem: 138 40<-189 189> 602 47<-70.8391 13.6032> 718 47<-189 189>
VStem: -232 43<178 718> -34 50<288.969 350.812> 38 67<470.32 587.792> 189 43<178 718>
LayerCount: 2
Fore
SplineSet
-28 332 m 10
 0 360 l 18
 8 367 16 367 16 354 c 10
 16 324 l 18
 16 316 12 312 6 305 c 10
 -19 278 l 17
 -26 272 -34 274 -34 288 c 10
 -34 314 l 18
 -34 322 -33 326 -28 332 c 10
-30 403 m 0
 -30 429 38 468 38 510 c 0
 38 566 4 602 -34 602 c 0
 -75 602 -75 581 -86 581 c 0
 -92 581 -100 585 -100 590 c 0
 -100 592 -71 649 -5 649 c 3
 52 649 105 612 105 552 c 0
 105 478 43 453 15 404 c 0
 13 402 12 401 10 401 c 0
 6 400 -6 399 -16 399 c 0
 -24 399 -30 400 -30 403 c 0
-189 718 m 1
 -189 178 l 1
 189 178 l 1
 189 718 l 1
 -189 718 l 1
-232 765 m 1
 232 765 l 1
 232 138 l 1
 -232 138 l 1
 -232 765 l 1
EndSplineSet
Validated: 1
Substitution2: "ccmpChangeCantillationsToCircle subtable" dottedcircle
EndChar

StartChar: zaqefqatan
Encoding: 1428 1428 46
Width: 0
VWidth: 2273
GlyphClass: 4
Flags: W
HStem: 138 40<-189 189> 602 47<-70.8391 13.6032> 718 47<-189 189>
VStem: -232 43<178 718> -34 50<288.969 350.812> 38 67<470.32 587.792> 189 43<178 718>
LayerCount: 2
Fore
SplineSet
-28 332 m 10
 0 360 l 18
 8 367 16 367 16 354 c 10
 16 324 l 18
 16 316 12 312 6 305 c 10
 -19 278 l 17
 -26 272 -34 274 -34 288 c 10
 -34 314 l 18
 -34 322 -33 326 -28 332 c 10
-30 403 m 0
 -30 429 38 468 38 510 c 0
 38 566 4 602 -34 602 c 0
 -75 602 -75 581 -86 581 c 0
 -92 581 -100 585 -100 590 c 0
 -100 592 -71 649 -5 649 c 3
 52 649 105 612 105 552 c 0
 105 478 43 453 15 404 c 0
 13 402 12 401 10 401 c 0
 6 400 -6 399 -16 399 c 0
 -24 399 -30 400 -30 403 c 0
-189 718 m 1
 -189 178 l 1
 189 178 l 1
 189 718 l 1
 -189 718 l 1
-232 765 m 1
 232 765 l 1
 232 138 l 1
 -232 138 l 1
 -232 765 l 1
EndSplineSet
Validated: 1
Substitution2: "ccmpChangeCantillationsToCircle subtable" dottedcircle
EndChar

StartChar: zaqefgadol
Encoding: 1429 1429 47
Width: 0
VWidth: 2273
GlyphClass: 4
Flags: W
HStem: 138 40<-189 189> 602 47<-70.8391 13.6032> 718 47<-189 189>
VStem: -232 43<178 718> -34 50<288.969 350.812> 38 67<470.32 587.792> 189 43<178 718>
LayerCount: 2
Fore
SplineSet
-28 332 m 10
 0 360 l 18
 8 367 16 367 16 354 c 10
 16 324 l 18
 16 316 12 312 6 305 c 10
 -19 278 l 17
 -26 272 -34 274 -34 288 c 10
 -34 314 l 18
 -34 322 -33 326 -28 332 c 10
-30 403 m 0
 -30 429 38 468 38 510 c 0
 38 566 4 602 -34 602 c 0
 -75 602 -75 581 -86 581 c 0
 -92 581 -100 585 -100 590 c 0
 -100 592 -71 649 -5 649 c 3
 52 649 105 612 105 552 c 0
 105 478 43 453 15 404 c 0
 13 402 12 401 10 401 c 0
 6 400 -6 399 -16 399 c 0
 -24 399 -30 400 -30 403 c 0
-189 718 m 1
 -189 178 l 1
 189 178 l 1
 189 718 l 1
 -189 718 l 1
-232 765 m 1
 232 765 l 1
 232 138 l 1
 -232 138 l 1
 -232 765 l 1
EndSplineSet
Validated: 1
Substitution2: "ccmpChangeCantillationsToCircle subtable" dottedcircle
EndChar

StartChar: tipeha
Encoding: 1430 1430 48
Width: 0
VWidth: 2273
GlyphClass: 4
Flags: W
HStem: 138 40<-189 189> 602 47<-70.8391 13.6032> 718 47<-189 189>
VStem: -232 43<178 718> -34 50<288.969 350.812> 38 67<470.32 587.792> 189 43<178 718>
LayerCount: 2
Fore
SplineSet
-28 332 m 10
 0 360 l 18
 8 367 16 367 16 354 c 10
 16 324 l 18
 16 316 12 312 6 305 c 10
 -19 278 l 17
 -26 272 -34 274 -34 288 c 10
 -34 314 l 18
 -34 322 -33 326 -28 332 c 10
-30 403 m 0
 -30 429 38 468 38 510 c 0
 38 566 4 602 -34 602 c 0
 -75 602 -75 581 -86 581 c 0
 -92 581 -100 585 -100 590 c 0
 -100 592 -71 649 -5 649 c 3
 52 649 105 612 105 552 c 0
 105 478 43 453 15 404 c 0
 13 402 12 401 10 401 c 0
 6 400 -6 399 -16 399 c 0
 -24 399 -30 400 -30 403 c 0
-189 718 m 1
 -189 178 l 1
 189 178 l 1
 189 718 l 1
 -189 718 l 1
-232 765 m 1
 232 765 l 1
 232 138 l 1
 -232 138 l 1
 -232 765 l 1
EndSplineSet
Validated: 1
Substitution2: "ccmpChangeCantillationsToCircle subtable" dottedcircle
EndChar

StartChar: revia
Encoding: 1431 1431 49
Width: 0
VWidth: 2273
GlyphClass: 4
Flags: W
HStem: 138 40<-189 189> 602 47<-70.8391 13.6032> 718 47<-189 189>
VStem: -232 43<178 718> -34 50<288.969 350.812> 38 67<470.32 587.792> 189 43<178 718>
LayerCount: 2
Fore
SplineSet
-28 332 m 10
 0 360 l 18
 8 367 16 367 16 354 c 10
 16 324 l 18
 16 316 12 312 6 305 c 10
 -19 278 l 17
 -26 272 -34 274 -34 288 c 10
 -34 314 l 18
 -34 322 -33 326 -28 332 c 10
-30 403 m 0
 -30 429 38 468 38 510 c 0
 38 566 4 602 -34 602 c 0
 -75 602 -75 581 -86 581 c 0
 -92 581 -100 585 -100 590 c 0
 -100 592 -71 649 -5 649 c 3
 52 649 105 612 105 552 c 0
 105 478 43 453 15 404 c 0
 13 402 12 401 10 401 c 0
 6 400 -6 399 -16 399 c 0
 -24 399 -30 400 -30 403 c 0
-189 718 m 1
 -189 178 l 1
 189 178 l 1
 189 718 l 1
 -189 718 l 1
-232 765 m 1
 232 765 l 1
 232 138 l 1
 -232 138 l 1
 -232 765 l 1
EndSplineSet
Validated: 1
Substitution2: "ccmpChangeCantillationsToCircle subtable" dottedcircle
EndChar

StartChar: zarqa
Encoding: 1432 1432 50
Width: 0
VWidth: 2273
GlyphClass: 4
Flags: W
HStem: 138 40<-189 189> 602 47<-70.8391 13.6032> 718 47<-189 189>
VStem: -232 43<178 718> -34 50<288.969 350.812> 38 67<470.32 587.792> 189 43<178 718>
LayerCount: 2
Fore
SplineSet
-28 332 m 10
 0 360 l 18
 8 367 16 367 16 354 c 10
 16 324 l 18
 16 316 12 312 6 305 c 10
 -19 278 l 17
 -26 272 -34 274 -34 288 c 10
 -34 314 l 18
 -34 322 -33 326 -28 332 c 10
-30 403 m 0
 -30 429 38 468 38 510 c 0
 38 566 4 602 -34 602 c 0
 -75 602 -75 581 -86 581 c 0
 -92 581 -100 585 -100 590 c 0
 -100 592 -71 649 -5 649 c 3
 52 649 105 612 105 552 c 0
 105 478 43 453 15 404 c 0
 13 402 12 401 10 401 c 0
 6 400 -6 399 -16 399 c 0
 -24 399 -30 400 -30 403 c 0
-189 718 m 1
 -189 178 l 1
 189 178 l 1
 189 718 l 1
 -189 718 l 1
-232 765 m 1
 232 765 l 1
 232 138 l 1
 -232 138 l 1
 -232 765 l 1
EndSplineSet
Validated: 1
Substitution2: "ccmpChangeCantillationsToCircle subtable" dottedcircle
EndChar

StartChar: pashta
Encoding: 1433 1433 51
Width: 0
VWidth: 2273
GlyphClass: 4
Flags: W
HStem: 138 40<-189 189> 602 47<-70.8391 13.6032> 718 47<-189 189>
VStem: -232 43<178 718> -34 50<288.969 350.812> 38 67<470.32 587.792> 189 43<178 718>
LayerCount: 2
Fore
SplineSet
-28 332 m 10
 0 360 l 18
 8 367 16 367 16 354 c 10
 16 324 l 18
 16 316 12 312 6 305 c 10
 -19 278 l 17
 -26 272 -34 274 -34 288 c 10
 -34 314 l 18
 -34 322 -33 326 -28 332 c 10
-30 403 m 0
 -30 429 38 468 38 510 c 0
 38 566 4 602 -34 602 c 0
 -75 602 -75 581 -86 581 c 0
 -92 581 -100 585 -100 590 c 0
 -100 592 -71 649 -5 649 c 3
 52 649 105 612 105 552 c 0
 105 478 43 453 15 404 c 0
 13 402 12 401 10 401 c 0
 6 400 -6 399 -16 399 c 0
 -24 399 -30 400 -30 403 c 0
-189 718 m 1
 -189 178 l 1
 189 178 l 1
 189 718 l 1
 -189 718 l 1
-232 765 m 1
 232 765 l 1
 232 138 l 1
 -232 138 l 1
 -232 765 l 1
EndSplineSet
Validated: 1
Substitution2: "ccmpChangeCantillationsToCircle subtable" dottedcircle
EndChar

StartChar: yetiv
Encoding: 1434 1434 52
Width: 0
VWidth: 2273
GlyphClass: 4
Flags: W
HStem: 138 40<-189 189> 602 47<-70.8391 13.6032> 718 47<-189 189>
VStem: -232 43<178 718> -34 50<288.969 350.812> 38 67<470.32 587.792> 189 43<178 718>
LayerCount: 2
Fore
SplineSet
-28 332 m 10
 0 360 l 18
 8 367 16 367 16 354 c 10
 16 324 l 18
 16 316 12 312 6 305 c 10
 -19 278 l 17
 -26 272 -34 274 -34 288 c 10
 -34 314 l 18
 -34 322 -33 326 -28 332 c 10
-30 403 m 0
 -30 429 38 468 38 510 c 0
 38 566 4 602 -34 602 c 0
 -75 602 -75 581 -86 581 c 0
 -92 581 -100 585 -100 590 c 0
 -100 592 -71 649 -5 649 c 3
 52 649 105 612 105 552 c 0
 105 478 43 453 15 404 c 0
 13 402 12 401 10 401 c 0
 6 400 -6 399 -16 399 c 0
 -24 399 -30 400 -30 403 c 0
-189 718 m 1
 -189 178 l 1
 189 178 l 1
 189 718 l 1
 -189 718 l 1
-232 765 m 1
 232 765 l 1
 232 138 l 1
 -232 138 l 1
 -232 765 l 1
EndSplineSet
Validated: 1
Substitution2: "ccmpChangeCantillationsToCircle subtable" dottedcircle
EndChar

StartChar: tevir
Encoding: 1435 1435 53
Width: 0
VWidth: 2273
GlyphClass: 4
Flags: W
HStem: 138 40<-189 189> 602 47<-70.8391 13.6032> 718 47<-189 189>
VStem: -232 43<178 718> -34 50<288.969 350.812> 38 67<470.32 587.792> 189 43<178 718>
LayerCount: 2
Fore
SplineSet
-28 332 m 10
 0 360 l 18
 8 367 16 367 16 354 c 10
 16 324 l 18
 16 316 12 312 6 305 c 10
 -19 278 l 17
 -26 272 -34 274 -34 288 c 10
 -34 314 l 18
 -34 322 -33 326 -28 332 c 10
-30 403 m 0
 -30 429 38 468 38 510 c 0
 38 566 4 602 -34 602 c 0
 -75 602 -75 581 -86 581 c 0
 -92 581 -100 585 -100 590 c 0
 -100 592 -71 649 -5 649 c 3
 52 649 105 612 105 552 c 0
 105 478 43 453 15 404 c 0
 13 402 12 401 10 401 c 0
 6 400 -6 399 -16 399 c 0
 -24 399 -30 400 -30 403 c 0
-189 718 m 1
 -189 178 l 1
 189 178 l 1
 189 718 l 1
 -189 718 l 1
-232 765 m 1
 232 765 l 1
 232 138 l 1
 -232 138 l 1
 -232 765 l 1
EndSplineSet
Validated: 1
Substitution2: "ccmpChangeCantillationsToCircle subtable" dottedcircle
EndChar

StartChar: gereshaccent
Encoding: 1436 1436 54
Width: 0
VWidth: 2273
GlyphClass: 4
Flags: W
HStem: 138 40<-189 189> 602 47<-70.8391 13.6032> 718 47<-189 189>
VStem: -232 43<178 718> -34 50<288.969 350.812> 38 67<470.32 587.792> 189 43<178 718>
LayerCount: 2
Fore
SplineSet
-28 332 m 10
 0 360 l 18
 8 367 16 367 16 354 c 10
 16 324 l 18
 16 316 12 312 6 305 c 10
 -19 278 l 17
 -26 272 -34 274 -34 288 c 10
 -34 314 l 18
 -34 322 -33 326 -28 332 c 10
-30 403 m 0
 -30 429 38 468 38 510 c 0
 38 566 4 602 -34 602 c 0
 -75 602 -75 581 -86 581 c 0
 -92 581 -100 585 -100 590 c 0
 -100 592 -71 649 -5 649 c 3
 52 649 105 612 105 552 c 0
 105 478 43 453 15 404 c 0
 13 402 12 401 10 401 c 0
 6 400 -6 399 -16 399 c 0
 -24 399 -30 400 -30 403 c 0
-189 718 m 1
 -189 178 l 1
 189 178 l 1
 189 718 l 1
 -189 718 l 1
-232 765 m 1
 232 765 l 1
 232 138 l 1
 -232 138 l 1
 -232 765 l 1
EndSplineSet
Validated: 1
Substitution2: "ccmpChangeCantillationsToCircle subtable" dottedcircle
EndChar

StartChar: gereshmuqdam
Encoding: 1437 1437 55
Width: 0
VWidth: 2273
GlyphClass: 4
Flags: W
HStem: 138 40<-189 189> 602 47<-70.8391 13.6032> 718 47<-189 189>
VStem: -232 43<178 718> -34 50<288.969 350.812> 38 67<470.32 587.792> 189 43<178 718>
LayerCount: 2
Fore
SplineSet
-28 332 m 10
 0 360 l 18
 8 367 16 367 16 354 c 10
 16 324 l 18
 16 316 12 312 6 305 c 10
 -19 278 l 17
 -26 272 -34 274 -34 288 c 10
 -34 314 l 18
 -34 322 -33 326 -28 332 c 10
-30 403 m 0
 -30 429 38 468 38 510 c 0
 38 566 4 602 -34 602 c 0
 -75 602 -75 581 -86 581 c 0
 -92 581 -100 585 -100 590 c 0
 -100 592 -71 649 -5 649 c 3
 52 649 105 612 105 552 c 0
 105 478 43 453 15 404 c 0
 13 402 12 401 10 401 c 0
 6 400 -6 399 -16 399 c 0
 -24 399 -30 400 -30 403 c 0
-189 718 m 1
 -189 178 l 1
 189 178 l 1
 189 718 l 1
 -189 718 l 1
-232 765 m 1
 232 765 l 1
 232 138 l 1
 -232 138 l 1
 -232 765 l 1
EndSplineSet
Validated: 1
Substitution2: "ccmpChangeCantillationsToCircle subtable" dottedcircle
EndChar

StartChar: gershayimaccent
Encoding: 1438 1438 56
Width: 0
VWidth: 2273
GlyphClass: 4
Flags: W
HStem: 138 40<-189 189> 602 47<-70.8391 13.6032> 718 47<-189 189>
VStem: -232 43<178 718> -34 50<288.969 350.812> 38 67<470.32 587.792> 189 43<178 718>
LayerCount: 2
Fore
SplineSet
-28 332 m 10
 0 360 l 18
 8 367 16 367 16 354 c 10
 16 324 l 18
 16 316 12 312 6 305 c 10
 -19 278 l 17
 -26 272 -34 274 -34 288 c 10
 -34 314 l 18
 -34 322 -33 326 -28 332 c 10
-30 403 m 0
 -30 429 38 468 38 510 c 0
 38 566 4 602 -34 602 c 0
 -75 602 -75 581 -86 581 c 0
 -92 581 -100 585 -100 590 c 0
 -100 592 -71 649 -5 649 c 3
 52 649 105 612 105 552 c 0
 105 478 43 453 15 404 c 0
 13 402 12 401 10 401 c 0
 6 400 -6 399 -16 399 c 0
 -24 399 -30 400 -30 403 c 0
-189 718 m 1
 -189 178 l 1
 189 178 l 1
 189 718 l 1
 -189 718 l 1
-232 765 m 1
 232 765 l 1
 232 138 l 1
 -232 138 l 1
 -232 765 l 1
EndSplineSet
Validated: 1
Substitution2: "ccmpChangeCantillationsToCircle subtable" dottedcircle
EndChar

StartChar: qarneypara
Encoding: 1439 1439 57
Width: 0
VWidth: 2273
GlyphClass: 4
Flags: W
HStem: 138 40<-189 189> 602 47<-70.8391 13.6032> 718 47<-189 189>
VStem: -232 43<178 718> -34 50<288.969 350.812> 38 67<470.32 587.792> 189 43<178 718>
LayerCount: 2
Fore
SplineSet
-28 332 m 10
 0 360 l 18
 8 367 16 367 16 354 c 10
 16 324 l 18
 16 316 12 312 6 305 c 10
 -19 278 l 17
 -26 272 -34 274 -34 288 c 10
 -34 314 l 18
 -34 322 -33 326 -28 332 c 10
-30 403 m 0
 -30 429 38 468 38 510 c 0
 38 566 4 602 -34 602 c 0
 -75 602 -75 581 -86 581 c 0
 -92 581 -100 585 -100 590 c 0
 -100 592 -71 649 -5 649 c 3
 52 649 105 612 105 552 c 0
 105 478 43 453 15 404 c 0
 13 402 12 401 10 401 c 0
 6 400 -6 399 -16 399 c 0
 -24 399 -30 400 -30 403 c 0
-189 718 m 1
 -189 178 l 1
 189 178 l 1
 189 718 l 1
 -189 718 l 1
-232 765 m 1
 232 765 l 1
 232 138 l 1
 -232 138 l 1
 -232 765 l 1
EndSplineSet
Validated: 1
Substitution2: "ccmpChangeCantillationsToCircle subtable" dottedcircle
EndChar

StartChar: telishagedola
Encoding: 1440 1440 58
Width: 0
VWidth: 2273
GlyphClass: 4
Flags: W
HStem: 138 40<-189 189> 602 47<-70.8391 13.6032> 718 47<-189 189>
VStem: -232 43<178 718> -34 50<288.969 350.812> 38 67<470.32 587.792> 189 43<178 718>
LayerCount: 2
Fore
SplineSet
-28 332 m 10
 0 360 l 18
 8 367 16 367 16 354 c 10
 16 324 l 18
 16 316 12 312 6 305 c 10
 -19 278 l 17
 -26 272 -34 274 -34 288 c 10
 -34 314 l 18
 -34 322 -33 326 -28 332 c 10
-30 403 m 0
 -30 429 38 468 38 510 c 0
 38 566 4 602 -34 602 c 0
 -75 602 -75 581 -86 581 c 0
 -92 581 -100 585 -100 590 c 0
 -100 592 -71 649 -5 649 c 3
 52 649 105 612 105 552 c 0
 105 478 43 453 15 404 c 0
 13 402 12 401 10 401 c 0
 6 400 -6 399 -16 399 c 0
 -24 399 -30 400 -30 403 c 0
-189 718 m 1
 -189 178 l 1
 189 178 l 1
 189 718 l 1
 -189 718 l 1
-232 765 m 1
 232 765 l 1
 232 138 l 1
 -232 138 l 1
 -232 765 l 1
EndSplineSet
Validated: 1
Substitution2: "ccmpChangeCantillationsToCircle subtable" dottedcircle
EndChar

StartChar: pazer
Encoding: 1441 1441 59
Width: 0
VWidth: 2273
GlyphClass: 4
Flags: W
HStem: 138 40<-189 189> 602 47<-70.8391 13.6032> 718 47<-189 189>
VStem: -232 43<178 718> -34 50<288.969 350.812> 38 67<470.32 587.792> 189 43<178 718>
LayerCount: 2
Fore
SplineSet
-28 332 m 10
 0 360 l 18
 8 367 16 367 16 354 c 10
 16 324 l 18
 16 316 12 312 6 305 c 10
 -19 278 l 17
 -26 272 -34 274 -34 288 c 10
 -34 314 l 18
 -34 322 -33 326 -28 332 c 10
-30 403 m 0
 -30 429 38 468 38 510 c 0
 38 566 4 602 -34 602 c 0
 -75 602 -75 581 -86 581 c 0
 -92 581 -100 585 -100 590 c 0
 -100 592 -71 649 -5 649 c 3
 52 649 105 612 105 552 c 0
 105 478 43 453 15 404 c 0
 13 402 12 401 10 401 c 0
 6 400 -6 399 -16 399 c 0
 -24 399 -30 400 -30 403 c 0
-189 718 m 1
 -189 178 l 1
 189 178 l 1
 189 718 l 1
 -189 718 l 1
-232 765 m 1
 232 765 l 1
 232 138 l 1
 -232 138 l 1
 -232 765 l 1
EndSplineSet
Validated: 1
Substitution2: "ccmpChangeCantillationsToCircle subtable" dottedcircle
EndChar

StartChar: munah
Encoding: 1443 1443 60
Width: 0
VWidth: 2273
GlyphClass: 4
Flags: W
HStem: 138 40<-189 189> 602 47<-70.8391 13.6032> 718 47<-189 189>
VStem: -232 43<178 718> -34 50<288.969 350.812> 38 67<470.32 587.792> 189 43<178 718>
LayerCount: 2
Fore
SplineSet
-28 332 m 10
 0 360 l 18
 8 367 16 367 16 354 c 10
 16 324 l 18
 16 316 12 312 6 305 c 10
 -19 278 l 17
 -26 272 -34 274 -34 288 c 10
 -34 314 l 18
 -34 322 -33 326 -28 332 c 10
-30 403 m 0
 -30 429 38 468 38 510 c 0
 38 566 4 602 -34 602 c 0
 -75 602 -75 581 -86 581 c 0
 -92 581 -100 585 -100 590 c 0
 -100 592 -71 649 -5 649 c 3
 52 649 105 612 105 552 c 0
 105 478 43 453 15 404 c 0
 13 402 12 401 10 401 c 0
 6 400 -6 399 -16 399 c 0
 -24 399 -30 400 -30 403 c 0
-189 718 m 1
 -189 178 l 1
 189 178 l 1
 189 718 l 1
 -189 718 l 1
-232 765 m 1
 232 765 l 1
 232 138 l 1
 -232 138 l 1
 -232 765 l 1
EndSplineSet
Validated: 1
Substitution2: "ccmpChangeCantillationsToCircle subtable" dottedcircle
EndChar

StartChar: mahapakh
Encoding: 1444 1444 61
Width: 0
VWidth: 2273
GlyphClass: 4
Flags: W
HStem: 138 40<-189 189> 602 47<-70.8391 13.6032> 718 47<-189 189>
VStem: -232 43<178 718> -34 50<288.969 350.812> 38 67<470.32 587.792> 189 43<178 718>
LayerCount: 2
Fore
SplineSet
-28 332 m 10
 0 360 l 18
 8 367 16 367 16 354 c 10
 16 324 l 18
 16 316 12 312 6 305 c 10
 -19 278 l 17
 -26 272 -34 274 -34 288 c 10
 -34 314 l 18
 -34 322 -33 326 -28 332 c 10
-30 403 m 0
 -30 429 38 468 38 510 c 0
 38 566 4 602 -34 602 c 0
 -75 602 -75 581 -86 581 c 0
 -92 581 -100 585 -100 590 c 0
 -100 592 -71 649 -5 649 c 3
 52 649 105 612 105 552 c 0
 105 478 43 453 15 404 c 0
 13 402 12 401 10 401 c 0
 6 400 -6 399 -16 399 c 0
 -24 399 -30 400 -30 403 c 0
-189 718 m 1
 -189 178 l 1
 189 178 l 1
 189 718 l 1
 -189 718 l 1
-232 765 m 1
 232 765 l 1
 232 138 l 1
 -232 138 l 1
 -232 765 l 1
EndSplineSet
Validated: 1
Substitution2: "ccmpChangeCantillationsToCircle subtable" dottedcircle
EndChar

StartChar: merkha
Encoding: 1445 1445 62
Width: 0
VWidth: 2273
GlyphClass: 4
Flags: W
HStem: 138 40<-189 189> 602 47<-70.8391 13.6032> 718 47<-189 189>
VStem: -232 43<178 718> -34 50<288.969 350.812> 38 67<470.32 587.792> 189 43<178 718>
LayerCount: 2
Fore
SplineSet
-28 332 m 10
 0 360 l 18
 8 367 16 367 16 354 c 10
 16 324 l 18
 16 316 12 312 6 305 c 10
 -19 278 l 17
 -26 272 -34 274 -34 288 c 10
 -34 314 l 18
 -34 322 -33 326 -28 332 c 10
-30 403 m 0
 -30 429 38 468 38 510 c 0
 38 566 4 602 -34 602 c 0
 -75 602 -75 581 -86 581 c 0
 -92 581 -100 585 -100 590 c 0
 -100 592 -71 649 -5 649 c 3
 52 649 105 612 105 552 c 0
 105 478 43 453 15 404 c 0
 13 402 12 401 10 401 c 0
 6 400 -6 399 -16 399 c 0
 -24 399 -30 400 -30 403 c 0
-189 718 m 1
 -189 178 l 1
 189 178 l 1
 189 718 l 1
 -189 718 l 1
-232 765 m 1
 232 765 l 1
 232 138 l 1
 -232 138 l 1
 -232 765 l 1
EndSplineSet
Validated: 1
Substitution2: "ccmpChangeCantillationsToCircle subtable" dottedcircle
EndChar

StartChar: merkhakefula
Encoding: 1446 1446 63
Width: 0
VWidth: 2273
GlyphClass: 4
Flags: W
HStem: 138 40<-189 189> 602 47<-70.8391 13.6032> 718 47<-189 189>
VStem: -232 43<178 718> -34 50<288.969 350.812> 38 67<470.32 587.792> 189 43<178 718>
LayerCount: 2
Fore
SplineSet
-28 332 m 10
 0 360 l 18
 8 367 16 367 16 354 c 10
 16 324 l 18
 16 316 12 312 6 305 c 10
 -19 278 l 17
 -26 272 -34 274 -34 288 c 10
 -34 314 l 18
 -34 322 -33 326 -28 332 c 10
-30 403 m 0
 -30 429 38 468 38 510 c 0
 38 566 4 602 -34 602 c 0
 -75 602 -75 581 -86 581 c 0
 -92 581 -100 585 -100 590 c 0
 -100 592 -71 649 -5 649 c 3
 52 649 105 612 105 552 c 0
 105 478 43 453 15 404 c 0
 13 402 12 401 10 401 c 0
 6 400 -6 399 -16 399 c 0
 -24 399 -30 400 -30 403 c 0
-189 718 m 1
 -189 178 l 1
 189 178 l 1
 189 718 l 1
 -189 718 l 1
-232 765 m 1
 232 765 l 1
 232 138 l 1
 -232 138 l 1
 -232 765 l 1
EndSplineSet
Validated: 1
Substitution2: "ccmpChangeCantillationsToCircle subtable" dottedcircle
EndChar

StartChar: darga
Encoding: 1447 1447 64
Width: 0
VWidth: 2273
GlyphClass: 4
Flags: W
HStem: 138 40<-189 189> 602 47<-70.8391 13.6032> 718 47<-189 189>
VStem: -232 43<178 718> -34 50<288.969 350.812> 38 67<470.32 587.792> 189 43<178 718>
LayerCount: 2
Fore
SplineSet
-28 332 m 10
 0 360 l 18
 8 367 16 367 16 354 c 10
 16 324 l 18
 16 316 12 312 6 305 c 10
 -19 278 l 17
 -26 272 -34 274 -34 288 c 10
 -34 314 l 18
 -34 322 -33 326 -28 332 c 10
-30 403 m 0
 -30 429 38 468 38 510 c 0
 38 566 4 602 -34 602 c 0
 -75 602 -75 581 -86 581 c 0
 -92 581 -100 585 -100 590 c 0
 -100 592 -71 649 -5 649 c 3
 52 649 105 612 105 552 c 0
 105 478 43 453 15 404 c 0
 13 402 12 401 10 401 c 0
 6 400 -6 399 -16 399 c 0
 -24 399 -30 400 -30 403 c 0
-189 718 m 1
 -189 178 l 1
 189 178 l 1
 189 718 l 1
 -189 718 l 1
-232 765 m 1
 232 765 l 1
 232 138 l 1
 -232 138 l 1
 -232 765 l 1
EndSplineSet
Validated: 1
Substitution2: "ccmpChangeCantillationsToCircle subtable" dottedcircle
EndChar

StartChar: qadma
Encoding: 1448 1448 65
Width: 0
VWidth: 2273
GlyphClass: 4
Flags: W
HStem: 138 40<-189 189> 602 47<-70.8391 13.6032> 718 47<-189 189>
VStem: -232 43<178 718> -34 50<288.969 350.812> 38 67<470.32 587.792> 189 43<178 718>
LayerCount: 2
Fore
SplineSet
-28 332 m 10
 0 360 l 18
 8 367 16 367 16 354 c 10
 16 324 l 18
 16 316 12 312 6 305 c 10
 -19 278 l 17
 -26 272 -34 274 -34 288 c 10
 -34 314 l 18
 -34 322 -33 326 -28 332 c 10
-30 403 m 0
 -30 429 38 468 38 510 c 0
 38 566 4 602 -34 602 c 0
 -75 602 -75 581 -86 581 c 0
 -92 581 -100 585 -100 590 c 0
 -100 592 -71 649 -5 649 c 3
 52 649 105 612 105 552 c 0
 105 478 43 453 15 404 c 0
 13 402 12 401 10 401 c 0
 6 400 -6 399 -16 399 c 0
 -24 399 -30 400 -30 403 c 0
-189 718 m 1
 -189 178 l 1
 189 178 l 1
 189 718 l 1
 -189 718 l 1
-232 765 m 1
 232 765 l 1
 232 138 l 1
 -232 138 l 1
 -232 765 l 1
EndSplineSet
Validated: 1
Substitution2: "ccmpChangeCantillationsToCircle subtable" dottedcircle
EndChar

StartChar: telishaqetana
Encoding: 1449 1449 66
Width: 0
VWidth: 2273
GlyphClass: 4
Flags: W
HStem: 138 40<-189 189> 602 47<-70.8391 13.6032> 718 47<-189 189>
VStem: -232 43<178 718> -34 50<288.969 350.812> 38 67<470.32 587.792> 189 43<178 718>
LayerCount: 2
Fore
SplineSet
-28 332 m 10
 0 360 l 18
 8 367 16 367 16 354 c 10
 16 324 l 18
 16 316 12 312 6 305 c 10
 -19 278 l 17
 -26 272 -34 274 -34 288 c 10
 -34 314 l 18
 -34 322 -33 326 -28 332 c 10
-30 403 m 0
 -30 429 38 468 38 510 c 0
 38 566 4 602 -34 602 c 0
 -75 602 -75 581 -86 581 c 0
 -92 581 -100 585 -100 590 c 0
 -100 592 -71 649 -5 649 c 3
 52 649 105 612 105 552 c 0
 105 478 43 453 15 404 c 0
 13 402 12 401 10 401 c 0
 6 400 -6 399 -16 399 c 0
 -24 399 -30 400 -30 403 c 0
-189 718 m 1
 -189 178 l 1
 189 178 l 1
 189 718 l 1
 -189 718 l 1
-232 765 m 1
 232 765 l 1
 232 138 l 1
 -232 138 l 1
 -232 765 l 1
EndSplineSet
Validated: 1
Substitution2: "ccmpChangeCantillationsToCircle subtable" dottedcircle
EndChar

StartChar: yerahbenyomo
Encoding: 1450 1450 67
Width: 0
VWidth: 2273
GlyphClass: 4
Flags: W
HStem: 138 40<-189 189> 602 47<-70.8391 13.6032> 718 47<-189 189>
VStem: -232 43<178 718> -34 50<288.969 350.812> 38 67<470.32 587.792> 189 43<178 718>
LayerCount: 2
Fore
SplineSet
-28 332 m 10
 0 360 l 18
 8 367 16 367 16 354 c 10
 16 324 l 18
 16 316 12 312 6 305 c 10
 -19 278 l 17
 -26 272 -34 274 -34 288 c 10
 -34 314 l 18
 -34 322 -33 326 -28 332 c 10
-30 403 m 0
 -30 429 38 468 38 510 c 0
 38 566 4 602 -34 602 c 0
 -75 602 -75 581 -86 581 c 0
 -92 581 -100 585 -100 590 c 0
 -100 592 -71 649 -5 649 c 3
 52 649 105 612 105 552 c 0
 105 478 43 453 15 404 c 0
 13 402 12 401 10 401 c 0
 6 400 -6 399 -16 399 c 0
 -24 399 -30 400 -30 403 c 0
-189 718 m 1
 -189 178 l 1
 189 178 l 1
 189 718 l 1
 -189 718 l 1
-232 765 m 1
 232 765 l 1
 232 138 l 1
 -232 138 l 1
 -232 765 l 1
EndSplineSet
Validated: 1
Substitution2: "ccmpChangeCantillationsToCircle subtable" dottedcircle
EndChar

StartChar: ole
Encoding: 1451 1451 68
Width: 0
VWidth: 2273
GlyphClass: 4
Flags: W
HStem: 138 40<-189 189> 602 47<-70.8391 13.6032> 718 47<-189 189>
VStem: -232 43<178 718> -34 50<288.969 350.812> 38 67<470.32 587.792> 189 43<178 718>
LayerCount: 2
Fore
SplineSet
-28 332 m 10
 0 360 l 18
 8 367 16 367 16 354 c 10
 16 324 l 18
 16 316 12 312 6 305 c 10
 -19 278 l 17
 -26 272 -34 274 -34 288 c 10
 -34 314 l 18
 -34 322 -33 326 -28 332 c 10
-30 403 m 0
 -30 429 38 468 38 510 c 0
 38 566 4 602 -34 602 c 0
 -75 602 -75 581 -86 581 c 0
 -92 581 -100 585 -100 590 c 0
 -100 592 -71 649 -5 649 c 3
 52 649 105 612 105 552 c 0
 105 478 43 453 15 404 c 0
 13 402 12 401 10 401 c 0
 6 400 -6 399 -16 399 c 0
 -24 399 -30 400 -30 403 c 0
-189 718 m 1
 -189 178 l 1
 189 178 l 1
 189 718 l 1
 -189 718 l 1
-232 765 m 1
 232 765 l 1
 232 138 l 1
 -232 138 l 1
 -232 765 l 1
EndSplineSet
Validated: 1
Substitution2: "ccmpChangeCantillationsToCircle subtable" dottedcircle
EndChar

StartChar: iluy
Encoding: 1452 1452 69
Width: 0
VWidth: 2273
GlyphClass: 4
Flags: W
HStem: 138 40<-189 189> 602 47<-70.8391 13.6032> 718 47<-189 189>
VStem: -232 43<178 718> -34 50<288.969 350.812> 38 67<470.32 587.792> 189 43<178 718>
LayerCount: 2
Fore
SplineSet
-28 332 m 10
 0 360 l 18
 8 367 16 367 16 354 c 10
 16 324 l 18
 16 316 12 312 6 305 c 10
 -19 278 l 17
 -26 272 -34 274 -34 288 c 10
 -34 314 l 18
 -34 322 -33 326 -28 332 c 10
-30 403 m 0
 -30 429 38 468 38 510 c 0
 38 566 4 602 -34 602 c 0
 -75 602 -75 581 -86 581 c 0
 -92 581 -100 585 -100 590 c 0
 -100 592 -71 649 -5 649 c 3
 52 649 105 612 105 552 c 0
 105 478 43 453 15 404 c 0
 13 402 12 401 10 401 c 0
 6 400 -6 399 -16 399 c 0
 -24 399 -30 400 -30 403 c 0
-189 718 m 1
 -189 178 l 1
 189 178 l 1
 189 718 l 1
 -189 718 l 1
-232 765 m 1
 232 765 l 1
 232 138 l 1
 -232 138 l 1
 -232 765 l 1
EndSplineSet
Validated: 1
Substitution2: "ccmpChangeCantillationsToCircle subtable" dottedcircle
EndChar

StartChar: dehi
Encoding: 1453 1453 70
Width: 0
VWidth: 2273
GlyphClass: 4
Flags: W
HStem: 138 40<-189 189> 602 47<-70.8391 13.6032> 718 47<-189 189>
VStem: -232 43<178 718> -34 50<288.969 350.812> 38 67<470.32 587.792> 189 43<178 718>
LayerCount: 2
Fore
SplineSet
-28 332 m 10
 0 360 l 18
 8 367 16 367 16 354 c 10
 16 324 l 18
 16 316 12 312 6 305 c 10
 -19 278 l 17
 -26 272 -34 274 -34 288 c 10
 -34 314 l 18
 -34 322 -33 326 -28 332 c 10
-30 403 m 0
 -30 429 38 468 38 510 c 0
 38 566 4 602 -34 602 c 0
 -75 602 -75 581 -86 581 c 0
 -92 581 -100 585 -100 590 c 0
 -100 592 -71 649 -5 649 c 3
 52 649 105 612 105 552 c 0
 105 478 43 453 15 404 c 0
 13 402 12 401 10 401 c 0
 6 400 -6 399 -16 399 c 0
 -24 399 -30 400 -30 403 c 0
-189 718 m 1
 -189 178 l 1
 189 178 l 1
 189 718 l 1
 -189 718 l 1
-232 765 m 1
 232 765 l 1
 232 138 l 1
 -232 138 l 1
 -232 765 l 1
EndSplineSet
Validated: 1
Substitution2: "ccmpChangeCantillationsToCircle subtable" dottedcircle
EndChar

StartChar: tsinor
Encoding: 1454 1454 71
Width: 0
VWidth: 2273
GlyphClass: 4
Flags: W
HStem: 138 40<-189 189> 602 47<-70.8391 13.6032> 718 47<-189 189>
VStem: -232 43<178 718> -34 50<288.969 350.812> 38 67<470.32 587.792> 189 43<178 718>
LayerCount: 2
Fore
SplineSet
-28 332 m 10
 0 360 l 18
 8 367 16 367 16 354 c 10
 16 324 l 18
 16 316 12 312 6 305 c 10
 -19 278 l 17
 -26 272 -34 274 -34 288 c 10
 -34 314 l 18
 -34 322 -33 326 -28 332 c 10
-30 403 m 0
 -30 429 38 468 38 510 c 0
 38 566 4 602 -34 602 c 0
 -75 602 -75 581 -86 581 c 0
 -92 581 -100 585 -100 590 c 0
 -100 592 -71 649 -5 649 c 3
 52 649 105 612 105 552 c 0
 105 478 43 453 15 404 c 0
 13 402 12 401 10 401 c 0
 6 400 -6 399 -16 399 c 0
 -24 399 -30 400 -30 403 c 0
-189 718 m 1
 -189 178 l 1
 189 178 l 1
 189 718 l 1
 -189 718 l 1
-232 765 m 1
 232 765 l 1
 232 138 l 1
 -232 138 l 1
 -232 765 l 1
EndSplineSet
Validated: 1
Substitution2: "ccmpChangeCantillationsToCircle subtable" dottedcircle
EndChar

StartChar: masoracircle
Encoding: 1455 1455 72
Width: 0
VWidth: 2273
GlyphClass: 4
Flags: W
HStem: 138 40<-189 189> 602 47<-70.8391 13.6032> 718 47<-189 189>
VStem: -232 43<178 718> -34 50<288.969 350.812> 38 67<470.32 587.792> 189 43<178 718>
LayerCount: 2
Fore
SplineSet
-28 332 m 10
 0 360 l 18
 8 367 16 367 16 354 c 10
 16 324 l 18
 16 316 12 312 6 305 c 10
 -19 278 l 17
 -26 272 -34 274 -34 288 c 10
 -34 314 l 18
 -34 322 -33 326 -28 332 c 10
-30 403 m 0
 -30 429 38 468 38 510 c 0
 38 566 4 602 -34 602 c 0
 -75 602 -75 581 -86 581 c 0
 -92 581 -100 585 -100 590 c 0
 -100 592 -71 649 -5 649 c 3
 52 649 105 612 105 552 c 0
 105 478 43 453 15 404 c 0
 13 402 12 401 10 401 c 0
 6 400 -6 399 -16 399 c 0
 -24 399 -30 400 -30 403 c 0
-189 718 m 1
 -189 178 l 1
 189 178 l 1
 189 718 l 1
 -189 718 l 1
-232 765 m 1
 232 765 l 1
 232 138 l 1
 -232 138 l 1
 -232 765 l 1
EndSplineSet
Validated: 1
Substitution2: "ccmpChangeCantillationsToCircle subtable" dottedcircle
EndChar

StartChar: sheva
Encoding: 1456 1456 73
Width: 0
GlyphClass: 4
Flags: W
HStem: -595 207<-75.6373 75.6373> -351 207<-75.6373 75.6373>
VStem: -92 184<-580.294 -402.742 -336.258 -158.707>
AnchorPoint: "m2m1" -172 0 basemark 0
AnchorPoint: "kaf" 0 0 mark 0
AnchorPoint: "N" 0 0 mark 0
LayerCount: 2
Fore
SplineSet
92 -492 m 0
 92 -550 53 -595 0 -595 c 0
 -58 -595 -92 -544 -92 -492 c 0
 -92 -433 -53 -388 0 -388 c 0
 58 -388 92 -439 92 -492 c 0
92 -247 m 0
 92 -306 53 -351 0 -351 c 0
 -58 -351 -92 -300 -92 -247 c 0
 -92 -189 -53 -144 0 -144 c 0
 58 -144 92 -195 92 -247 c 0
EndSplineSet
Ligature2: "ccmpRemoveCircles subtable" sheva dottedcircle
Ligature2: "ccmpRemoveCircles subtable" dottedcircle sheva
LCarets2: 1 0 
EndChar

StartChar: hatafsegol
Encoding: 1457 1457 74
Width: 0
GlyphClass: 4
Flags: W
HStem: -594 206<-200.976 -49.8185 163.525 313.728> -350 206<-314.61 -162.306 -88.5934 62.2988 163.525 313.728>
VStem: -331 184<-335.475 -158.844> -217 184<-579.546 -402.926> -104 183<-335.041 -158.844> 147 184<-579.661 -403.742 -335.621 -159.652>
AnchorPoint: "m2m1" -420 0 basemark 0
AnchorPoint: "H" 0 0 mark 0
LayerCount: 2
Fore
SplineSet
331 -493 m 0xc4
 331 -550 293 -594 240 -594 c 0
 182 -594 147 -546 147 -493 c 0
 147 -434 186 -389 240 -389 c 0
 296 -389 331 -440 331 -493 c 0xc4
331 -248 m 0
 331 -306 293 -350 240 -350 c 0
 182 -350 147 -302 147 -248 c 0
 147 -190 186 -145 240 -145 c 0
 295 -145 331 -195 331 -248 c 0
-104 -246 m 0xcc
 -104 -190 -68 -144 -14 -144 c 0
 43 -144 79 -194 79 -246 c 0
 79 -306 39 -350 -14 -350 c 0
 -73 -350 -104 -298 -104 -246 c 0xcc
-217 -492 m 0xd4
 -217 -434 -179 -388 -126 -388 c 0
 -69 -388 -33 -438 -33 -492 c 0
 -33 -550 -72 -594 -126 -594 c 0
 -184 -594 -217 -544 -217 -492 c 0xd4
-331 -246 m 0xe4
 -331 -190 -293 -144 -240 -144 c 0
 -182 -144 -147 -194 -147 -246 c 0
 -147 -306 -186 -350 -240 -350 c 0
 -296 -350 -331 -300 -331 -246 c 0xe4
EndSplineSet
Ligature2: "ccmpRemoveCircles subtable" hatafsegol dottedcircle
Ligature2: "ccmpRemoveCircles subtable" dottedcircle hatafsegol
LCarets2: 1 0 
EndChar

StartChar: hatafpatah
Encoding: 1458 1458 75
Width: 0
GlyphClass: 4
Flags: W
HStem: -596 207<164.096 314.637> -352 207<164.024 314.637> -319 162<-330.97 79.8845>
VStem: 148 183<-581.348 -402.874 -337.293 -158.657>
AnchorPoint: "m2m1" -420 0 basemark 0
AnchorPoint: "H" 0 0 mark 0
LayerCount: 2
Fore
SplineSet
-277 -319 m 2xb0
 -325 -319 -331 -317 -331 -270 c 1
 -331 -267 -331 -206 -331 -203 c 1
 -331 -158 -321 -157 -273 -157 c 2
 23 -157 l 2
 71 -157 80 -158 80 -203 c 1
 80 -206 81 -267 81 -270 c 1
 81 -317 76 -319 28 -319 c 2
 -277 -319 l 2xb0
331 -493 m 0
 331 -551 292 -596 239 -596 c 0
 182 -596 148 -546 148 -493 c 0
 148 -436 185 -389 239 -389 c 0
 297 -389 331 -440 331 -493 c 0
331 -249 m 0
 331 -307 292 -352 239 -352 c 0
 181 -352 148 -301 148 -249 c 0
 148 -191 186 -145 239 -145 c 0xd0
 297 -145 331 -196 331 -249 c 0
EndSplineSet
Ligature2: "ccmpRemoveCircles subtable" hatafpatah dottedcircle
Ligature2: "ccmpRemoveCircles subtable" dottedcircle hatafpatah
LCarets2: 1 0 
EndChar

StartChar: hatafqamats
Encoding: 1459 1459 76
Width: 0
GlyphClass: 4
Flags: W
HStem: -595 207<163.084 314.836> -351 207<163.751 314.836> -324 162<-330.97 -177 -73 78.7753>
VStem: -177 104<-479.812 -324> 147 184<-580.348 -402.742 -336.348 -157.446>
AnchorPoint: "m2m1" -420 0 basemark 0
AnchorPoint: "H" 0 0 mark 0
LayerCount: 2
Fore
SplineSet
-73 -324 m 1xb8
 -73 -376 l 2
 -73 -384 -67 -422 -63 -426 c 2
 -13 -508 l 1
 -25 -536 -43 -574 -93 -600 c 1
 -99 -600 l 2
 -113 -600 -123 -600 -125 -600 c 0
 -127 -600 -141 -600 -153 -600 c 2
 -159 -600 l 1
 -205 -576 -223 -542 -239 -508 c 1
 -189 -426 l 1
 -185 -422 -177 -382 -177 -376 c 2
 -177 -324 l 1
 -277 -324 l 2
 -325 -324 -331 -322 -331 -276 c 1
 -331 -272 -331 -212 -331 -208 c 1
 -331 -164 -321 -162 -273 -162 c 2
 23 -162 l 2
 71 -162 79 -164 79 -208 c 1
 79 -212 81 -272 81 -276 c 1
 81 -322 75 -324 27 -324 c 2
 -73 -324 l 1xb8
331 -492 m 0
 331 -550 293 -595 239 -595 c 0
 183 -595 147 -546 147 -492 c 0
 147 -434 185 -388 239 -388 c 0
 297 -388 331 -439 331 -492 c 0
331 -248 m 0
 331 -306 293 -351 239 -351 c 0
 183 -351 147 -301 147 -248 c 0
 147 -189 185 -144 239 -144 c 0xd8
 297 -144 331 -195 331 -248 c 0
EndSplineSet
Ligature2: "ccmpRemoveCircles subtable" hatafqamats dottedcircle
Ligature2: "ccmpRemoveCircles subtable" dottedcircle hatafqamats
LCarets2: 1 0 
EndChar

StartChar: hiriq
Encoding: 1460 1460 77
Width: 0
GlyphClass: 4
Flags: W
HStem: -350 207<-76.5777 76.1815>
VStem: -93 186<-335.293 -157.693>
AnchorPoint: "m2m1" -172 0 basemark 0
AnchorPoint: "N" 0 0 mark 0
LayerCount: 2
Fore
SplineSet
93 -247 m 0
 93 -306 51 -350 0 -350 c 0
 -59 -350 -93 -299 -93 -247 c 0
 -93 -188 -54 -143 0 -143 c 0
 57 -143 93 -193 93 -247 c 0
EndSplineSet
Substitution2: "HiriqAfterPatahQamatsTable subtable" hiriq.J
Ligature2: "ccmpRemoveCircles subtable" hiriq dottedcircle
Ligature2: "ccmpRemoveCircles subtable" dottedcircle hiriq
Ligature2: "ccmpRemoveOldFontsZerojoins subtable" zerojoin hiriq
LCarets2: 1 0 
EndChar

StartChar: tsere
Encoding: 1461 1461 78
Width: 0
GlyphClass: 4
Flags: W
HStem: -350 207<-188.836 -37.4575 37.4575 188.836>
VStem: -205 184<-335.258 -157.652> 21 184<-335.074 -157.707>
AnchorPoint: "m2m1" -296 0 basemark 0
AnchorPoint: "W" 0 0 mark 0
LayerCount: 2
Fore
SplineSet
21 -246 m 0
 21 -188 60 -143 113 -143 c 0
 171 -143 205 -194 205 -246 c 0
 205 -304 167 -350 113 -350 c 0
 56 -350 21 -299 21 -246 c 0
-205 -246 m 0
 -205 -188 -167 -143 -113 -143 c 0
 -56 -143 -21 -193 -21 -246 c 0
 -21 -305 -60 -350 -113 -350 c 0
 -171 -350 -205 -299 -205 -246 c 0
EndSplineSet
Ligature2: "ccmpRemoveCircles subtable" tsere dottedcircle
Ligature2: "ccmpRemoveCircles subtable" dottedcircle tsere
LCarets2: 1 0 
EndChar

StartChar: segol
Encoding: 1462 1462 79
Width: 0
GlyphClass: 4
Flags: W
HStem: -584 207<-75.6373 75.6373> -350 207<-188.836 -37.4575 37.4575 188.836>
VStem: -205 184<-335.258 -157.652> -92 184<-569.294 -391.742> 21 184<-335.074 -157.707>
AnchorPoint: "m2m1" -296 0 basemark 0
AnchorPoint: "W" 0 0 mark 0
LayerCount: 2
Fore
SplineSet
21 -246 m 0xc8
 21 -188 60 -143 113 -143 c 0
 171 -143 205 -194 205 -246 c 0
 205 -304 167 -350 113 -350 c 0
 56 -350 21 -299 21 -246 c 0xc8
-92 -481 m 0xd0
 -92 -422 -53 -377 0 -377 c 0
 58 -377 92 -428 92 -481 c 0
 92 -539 53 -584 0 -584 c 0
 -58 -584 -92 -533 -92 -481 c 0xd0
-205 -246 m 0xe0
 -205 -188 -167 -143 -113 -143 c 0
 -56 -143 -21 -193 -21 -246 c 0
 -21 -305 -60 -350 -113 -350 c 0
 -171 -350 -205 -299 -205 -246 c 0xe0
EndSplineSet
Ligature2: "ccmpRemoveCircles subtable" segol dottedcircle
Ligature2: "ccmpRemoveCircles subtable" dottedcircle segol
LCarets2: 1 0 
EndChar

StartChar: patah
Encoding: 1463 1463 80
Width: 0
GlyphClass: 4
Flags: W
HStem: -304 162<-205.97 204.884>
VStem: -206 412<-303.943 -142.092>
AnchorPoint: "pg" 0 0 mark 0
AnchorPoint: "m2m1" -296 0 basemark 0
AnchorPoint: "W" 0 0 mark 0
LayerCount: 2
Fore
SplineSet
-152 -304 m 2
 -200 -304 -206 -302 -206 -255 c 1
 -206 -252 -206 -191 -206 -188 c 1
 -206 -143 -196 -142 -148 -142 c 2
 148 -142 l 2
 196 -142 205 -143 205 -188 c 1
 205 -191 206 -252 206 -255 c 1
 206 -302 201 -304 153 -304 c 2
 -152 -304 l 2
EndSplineSet
Ligature2: "ccmpRemoveCircles subtable" patah dottedcircle
Ligature2: "ccmpRemoveCircles subtable" dottedcircle patah
LCarets2: 1 0 
EndChar

StartChar: qamats
Encoding: 1464 1464 81
Width: 0
GlyphClass: 4
Flags: W
HStem: -304 162<-205.97 -52 52 204.884>
VStem: -52 104<-459.812 -304>
AnchorPoint: "m2m1" -296 0 basemark 0
AnchorPoint: "kaf" 0 0 mark 0
AnchorPoint: "W" 0 0 mark 0
LayerCount: 2
Fore
SplineSet
52 -304 m 1
 52 -356 l 2
 52 -363 59 -402 63 -406 c 2
 113 -487 l 1
 100 -516 83 -554 33 -579 c 1
 27 -579 l 2
 13 -579 2 -580 0 -580 c 0
 -2 -580 -16 -579 -27 -579 c 2
 -33 -579 l 1
 -79 -556 -98 -522 -114 -488 c 1
 -63 -406 l 1
 -59 -401 -52 -362 -52 -356 c 2
 -52 -304 l 1
 -152 -304 l 2
 -200 -304 -206 -302 -206 -255 c 1
 -206 -252 -206 -191 -206 -188 c 1
 -206 -143 -196 -142 -148 -142 c 2
 148 -142 l 2
 196 -142 205 -143 205 -188 c 1
 205 -191 206 -252 206 -255 c 1
 206 -302 201 -304 153 -304 c 2
 52 -304 l 1
EndSplineSet
Ligature2: "ccmpRemoveCircles subtable" qamats dottedcircle
Ligature2: "ccmpRemoveCircles subtable" dottedcircle qamats
LCarets2: 1 0 
EndChar

StartChar: holam
Encoding: 1465 1465 82
Width: 0
GlyphClass: 4
Flags: W
HStem: 1262 208<-75.6373 75.6373>
VStem: -92 184<1276.96 1455.04>
AnchorPoint: "hoqa" 0 0 mark 0
AnchorPoint: "Holam" -92 0 mark 0
LayerCount: 2
Fore
SplineSet
92 1366 m 0
 92 1308 53 1262 0 1262 c 0
 -58 1262 -92 1314 -92 1366 c 0
 -92 1424 -53 1470 0 1470 c 0
 58 1470 92 1418 92 1366 c 0
EndSplineSet
Validated: 1
Ligature2: "ccmpRemoveCircles subtable" holam dottedcircle
Ligature2: "ccmpRemoveCircles subtable" dottedcircle holam
EndChar

StartChar: qubuts
Encoding: 1467 1467 83
Width: 0
GlyphClass: 4
Flags: W
HStem: -601 192<86.9928 229.948> -465 192<-72.5 71.9727> -331 193<-228.5 -83.5>
VStem: -242 172<-318.402 -149.276> -86 172<-453.208 -284.25> 73 171<-589.777 -420.648>
AnchorPoint: "m2m1" -350 0 basemark 0
AnchorPoint: "W" -50 0 mark 0
LayerCount: 2
Fore
SplineSet
-70 -235 m 0x30
 -70 -287 -108 -331 -156 -331 c 0
 -209 -331 -242 -283 -242 -235 c 0
 -242 -185 -208 -138 -156 -138 c 0
 -104 -138 -70 -185 -70 -235 c 0x30
244 -506 m 0x84
 244 -560 207 -601 158 -601 c 0
 106 -601 73 -554 73 -506 c 0
 73 -458 105 -409 158 -409 c 0
 212 -409 244 -458 244 -506 c 0x84
86 -369 m 0x48
 86 -421 50 -465 0 -465 c 0
 -53 -465 -86 -417 -86 -369 c 0
 -86 -320 -52 -273 0 -273 c 0
 52 -273 86 -320 86 -369 c 0x48
EndSplineSet
Ligature2: "ccmpRemoveCircles subtable" qubuts dottedcircle
Ligature2: "ccmpRemoveCircles subtable" dottedcircle qubuts
LCarets2: 1 0 
EndChar

StartChar: dagesh
Encoding: 1468 1468 84
Width: 0
GlyphClass: 4
Flags: W
HStem: 445 208<-75.6373 75.6373>
VStem: -92 184<460.199 638.294>
AnchorPoint: "D" 0 0 mark 0
LayerCount: 2
Fore
SplineSet
92 550 m 0
 92 492 53 445 0 445 c 0
 -59 445 -92 497 -92 550 c 0
 -92 608 -53 653 0 653 c 0
 58 653 92 602 92 550 c 0
EndSplineSet
Validated: 1
EndChar

StartChar: meteg
Encoding: 1469 1469 85
Width: 0
VWidth: 2273
GlyphClass: 4
Flags: W
HStem: 138 40<-189 189> 602 47<-70.8391 13.6032> 718 47<-189 189>
VStem: -232 43<178 718> -34 50<288.969 350.812> 38 67<470.32 587.792> 189 43<178 718>
LayerCount: 2
Fore
SplineSet
-28 332 m 10
 0 360 l 18
 8 367 16 367 16 354 c 10
 16 324 l 18
 16 316 12 312 6 305 c 10
 -19 278 l 17
 -26 272 -34 274 -34 288 c 10
 -34 314 l 18
 -34 322 -33 326 -28 332 c 10
-30 403 m 0
 -30 429 38 468 38 510 c 0
 38 566 4 602 -34 602 c 0
 -75 602 -75 581 -86 581 c 0
 -92 581 -100 585 -100 590 c 0
 -100 592 -71 649 -5 649 c 3
 52 649 105 612 105 552 c 0
 105 478 43 453 15 404 c 0
 13 402 12 401 10 401 c 0
 6 400 -6 399 -16 399 c 0
 -24 399 -30 400 -30 403 c 0
-189 718 m 1
 -189 178 l 1
 189 178 l 1
 189 718 l 1
 -189 718 l 1
-232 765 m 1
 232 765 l 1
 232 138 l 1
 -232 138 l 1
 -232 765 l 1
EndSplineSet
Validated: 1
Ligature2: "ccmpRemoveCircles subtable" meteg dottedcircle
Ligature2: "ccmpRemoveCircles subtable" dottedcircle meteg
Substitution2: "ccmpChangeCantillationsToCircle subtable" dottedcircle
Ligature2: "ccmpRemoveOldFontsZerojoins subtable" zerojoin meteg
Ligature2: "ccmpRemoveOldFontsZerojoins subtable" meteg zerojoin
LCarets2: 1 0 
EndChar

StartChar: makaf
Encoding: 1470 1470 86
Width: 1051
GlyphClass: 1
Flags: W
HStem: 822 256<147.72 926.578>
LayerCount: 2
Fore
SplineSet
231 822 m 2
 155 822 146 829 146 903 c 1
 146 908 146 1004 146 1009 c 1
 146 1076 160 1078 225 1078 c 0
 237 1078 l 1
 838 1078 l 2
 913 1078 928 1076 928 1005 c 1
 928 1000 929 903 929 899 c 1
 929 825 921 822 846 822 c 2
 231 822 l 2
EndSplineSet
Validated: 1
EndChar

StartChar: rafe
Encoding: 1471 1471 87
Width: 0
GlyphClass: 4
Flags: W
HStem: 1221 162<-226.967 225.914>
VStem: -227 454<1221.13 1382.82>
AnchorPoint: "R" 0 0 mark 0
LayerCount: 2
Fore
SplineSet
-167 1221 m 2
 -220 1221 -227 1223 -227 1270 c 1
 -227 1273 -227 1334 -227 1337 c 1
 -227 1382 -216 1383 -163 1383 c 2
 163 1383 l 2
 216 1383 226 1382 226 1337 c 1
 226 1334 227 1273 227 1270 c 1
 227 1223 221 1221 168 1221 c 2
 -167 1221 l 2
EndSplineSet
Validated: 1
Substitution2: "saltStylisticAlternatives subtable" jsvarika
EndChar

StartChar: paseq
Encoding: 1472 1472 88
Width: 0
VWidth: 2273
GlyphClass: 1
Flags: W
HStem: 138 40<-189 189> 602 47<-70.8391 13.6032> 718 47<-189 189>
VStem: -232 43<178 718> -34 50<288.969 350.812> 38 67<470.32 587.792> 189 43<178 718>
LayerCount: 2
Fore
SplineSet
-28 332 m 10
 0 360 l 18
 8 367 16 367 16 354 c 10
 16 324 l 18
 16 316 12 312 6 305 c 10
 -19 278 l 17
 -26 272 -34 274 -34 288 c 10
 -34 314 l 18
 -34 322 -33 326 -28 332 c 10
-30 403 m 0
 -30 429 38 468 38 510 c 0
 38 566 4 602 -34 602 c 0
 -75 602 -75 581 -86 581 c 0
 -92 581 -100 585 -100 590 c 0
 -100 592 -71 649 -5 649 c 3
 52 649 105 612 105 552 c 0
 105 478 43 453 15 404 c 0
 13 402 12 401 10 401 c 0
 6 400 -6 399 -16 399 c 0
 -24 399 -30 400 -30 403 c 0
-189 718 m 1
 -189 178 l 1
 189 178 l 1
 189 718 l 1
 -189 718 l 1
-232 765 m 1
 232 765 l 1
 232 138 l 1
 -232 138 l 1
 -232 765 l 1
EndSplineSet
Validated: 1
Substitution2: "ccmpChangeCantillationsToCircle subtable" dottedcircle
EndChar

StartChar: shindot
Encoding: 1473 1473 89
Width: 0
GlyphClass: 4
Flags: W
HStem: 1090 207<-76.1815 76.0198>
VStem: -93 186<1104.69 1282.29>
AnchorPoint: "Shin_Dot" 0 0 mark 0
LayerCount: 2
Fore
SplineSet
93 1194 m 0
 93 1135 52 1090 0 1090 c 0
 -57 1090 -93 1140 -93 1194 c 0
 -93 1252 -54 1297 0 1297 c 0
 59 1297 93 1246 93 1194 c 0
EndSplineSet
Validated: 1
EndChar

StartChar: sofpasuq
Encoding: 1475 1475 91
Width: 561
VWidth: 1949
GlyphClass: 1
Flags: W
HStem: 0 360<210.109 349.047> 708 360<210.109 349.047>
VStem: 100 361<109.953 248.469 817.797 956.312>
LayerCount: 2
Fore
SplineSet
383 283 m 0
 435 231 461 205 461 179 c 0
 461 153 435 127 384 76 c 0
 332 25 306 0 280 0 c 0
 254 0 228 26 177 76 c 0
 126 126 100 152 100 179 c 0
 100 205 126 232 176 283 c 0
 227 334 254 360 280 360 c 0
 306 360 332 334 383 283 c 0
383 991 m 0
 435 939 461 912 461 886 c 0
 461 860 435 835 384 784 c 0
 332 733 306 708 280 708 c 0
 254 708 228 734 177 784 c 0
 126 834 100 859 100 886 c 0
 100 912 126 940 176 991 c 0
 227 1042 254 1068 280 1068 c 0
 306 1068 332 1042 383 991 c 0
EndSplineSet
Validated: 1
EndChar

StartChar: upperdot
Encoding: 1476 1476 92
Width: 0
VWidth: 2273
GlyphClass: 4
Flags: W
HStem: 138 40<-189 189> 602 47<-70.8391 13.6032> 718 47<-189 189>
VStem: -232 43<178 718> -34 50<288.969 350.812> 38 67<470.32 587.792> 189 43<178 718>
LayerCount: 2
Fore
SplineSet
-28 332 m 10
 0 360 l 18
 8 367 16 367 16 354 c 10
 16 324 l 18
 16 316 12 312 6 305 c 10
 -19 278 l 17
 -26 272 -34 274 -34 288 c 10
 -34 314 l 18
 -34 322 -33 326 -28 332 c 10
-30 403 m 0
 -30 429 38 468 38 510 c 0
 38 566 4 602 -34 602 c 0
 -75 602 -75 581 -86 581 c 0
 -92 581 -100 585 -100 590 c 0
 -100 592 -71 649 -5 649 c 3
 52 649 105 612 105 552 c 0
 105 478 43 453 15 404 c 0
 13 402 12 401 10 401 c 0
 6 400 -6 399 -16 399 c 0
 -24 399 -30 400 -30 403 c 0
-189 718 m 1
 -189 178 l 1
 189 178 l 1
 189 718 l 1
 -189 718 l 1
-232 765 m 1
 232 765 l 1
 232 138 l 1
 -232 138 l 1
 -232 765 l 1
EndSplineSet
Validated: 1
Substitution2: "ccmpChangeCantillationsToCircle subtable" dottedcircle
EndChar

StartChar: alef
Encoding: 1488 1488 93
Width: 1335
GlyphClass: 1
Flags: W
HStem: 0 270<335.903 559.539> 821 343<950.824 1080.91>
VStem: 183 147<270.439 657.042> 201 138<327.806 658.972>
AnchorPoint: "hoqa" -320 0.600006 basechar 0
AnchorPoint: "E1" 590 0 basechar 0
AnchorPoint: "H" 750 0 basechar 0
AnchorPoint: "W" 750 0 basechar 0
AnchorPoint: "N" 700 0 basechar 0
AnchorPoint: "Holam" 0 0 basechar 0
AnchorPoint: "R" 600 0 basechar 0
AnchorPoint: "D" 730 -450 basechar 0
LayerCount: 2
Fore
SplineSet
403 270 m 0xe0
 411 270 424 270 434 270 c 0
 568 270 569 268 569 155 c 0
 569 150 l 0
 569 0 565 0 359 0 c 0
 187 0 183 0 183 198 c 0xe0
 183 456 201 548 201 806 c 1
 131 852 129 845 129 988 c 0
 129 1010 129 1031 129 1050 c 0
 129 1151 133 1195 158 1195 c 0
 181 1195 220 1158 291 1096 c 2
 607 818 l 1
 653 776 678 754 698 754 c 0
 721 754 740 781 776 840 c 2
 909 1058 l 1
 956 1130 978 1164 1009 1164 c 0
 1035 1164 1066 1139 1123 1092 c 0
 1205 1024 1216 1011 1216 930 c 0
 1216 918 1215 905 1215 890 c 0
 1215 867 1216 846 1216 828 c 0
 1216 762 1210 732 1182 732 c 0
 1159 732 1121 755 1055 790 c 0
 1016 811 992 821 973 821 c 0
 947 821 929 800 890 750 c 0
 858 708 841 683 841 661 c 0
 841 637 863 617 907 576 c 2
 1057 434 l 1
 1181 320 1195 304 1195 190 c 0
 1195 175 1195 160 1195 145 c 0
 1195 65 1193 -9 1166 -9 c 0
 1138 -9 1085 41 979 136 c 2
 503 562 l 1
 433 626 396 659 374 659 c 0
 351 659 347 621 339 545 c 9xd0
 330 354 l 17
 330 350 330 346 330 342 c 0
 330 271 340 270 403 270 c 0xe0
EndSplineSet
Validated: 1
Substitution2: "jaltJustificationAlternatives subtable" alef.wide
EndChar

StartChar: bet
Encoding: 1489 1489 94
Width: 1152
GlyphClass: 1
Flags: W
VStem: 816 151<338.705 774.906>
AnchorPoint: "hoqa" -320 0.600006 basechar 0
AnchorPoint: "E1" 480 0 basechar 0
AnchorPoint: "H" 600 0 basechar 0
AnchorPoint: "W" 601 0 basechar 0
AnchorPoint: "N" 600 0 basechar 0
AnchorPoint: "Holam" 0 0 basechar 0
AnchorPoint: "R" 567 0 basechar 0
AnchorPoint: "D" 500 0 basechar 0
LayerCount: 2
Fore
SplineSet
967 501 m 1
 969 338 964 338 991 338 c 0
 995 338 1000 339 1005 339 c 0
 1018 339 1029 342 1038 342 c 0
 1070 342 1081 310 1081 236 c 2
 1081 189 l 1
 1077 49 1075 49 925 31 c 2
 257 -47 l 1
 210 -54 175 -58 151 -58 c 0
 86 -58 83 -27 83 77 c 0
 83 231 85 236 209 249 c 2
 651 297 l 1
 783 313 816 304 816 379 c 0
 816 397 814 419 812 445 c 2
 795 657 l 2
 785 793 771 811 633 828 c 2
 219 878 l 1
 175 890 161 868 161 963 c 0
 161 973 161 984 161 997 c 2
 163 1125 l 1
 167 1154 179 1178 193 1202 c 1
 224 1162 273 1133 347 1123 c 2
 759 1069 l 1
 951 1049 957 1049 957 884 c 2
 967 501 l 1
EndSplineSet
Validated: 1
EndChar

StartChar: gimel
Encoding: 1490 1490 95
Width: 795
GlyphClass: 1
Flags: W
HStem: -20 21G<555 576.5>
VStem: 195 449<897.957 1041.93> 456 124<646.062 830.496>
AnchorPoint: "hoqa" -320 0.600006 basechar 0
AnchorPoint: "E1" 470 0 basechar 0
AnchorPoint: "H" 400 0 basechar 0
AnchorPoint: "W" 403 0 basechar 0
AnchorPoint: "N" 400 0 basechar 0
AnchorPoint: "Holam" 60 0 basechar 0
AnchorPoint: "R" 450 50 basechar 0
AnchorPoint: "D" 276 0 basechar 0
LayerCount: 2
Fore
SplineSet
711 462 m 0xa0
 711 338 709 338 668 294 c 1
 692 201 l 1
 699 172 703 153 703 137 c 0
 703 106 686 88 636 34 c 0
 605 1 585 -20 568 -20 c 0
 542 -20 528 34 501 181 c 1
 223 -12 l 2
 149 -63 110 -90 89 -90 c 0
 66 -90 65 -56 65 17 c 0
 65 22 65 27 65 32 c 0
 65 165 67 169 174 239 c 2
 456 425 l 1
 424 646 l 1
 425 650 l 1
 425 699 456 738 456 790 c 0xa0
 456 801 449 818 418 829 c 2
 285 880 l 2
 193 915 196 915 195 985 c 2
 195 1118 l 1
 198 1164 218 1195 245 1210 c 1
 270 1186 298 1160 324 1150 c 2
 571 1054 l 1
 641 1025 644 1022 644 945 c 0xc0
 644 869 643 869 612 808 c 0
 588 761 580 740 580 715 c 0
 580 701 583 686 587 664 c 2
 613 533 l 1
 651 555 674 569 688 569 c 0
 710 569 711 539 711 462 c 0xa0
EndSplineSet
Validated: 1
EndChar

StartChar: dalet
Encoding: 1491 1491 96
Width: 1171
GlyphClass: 1
Flags: W
HStem: 866 263<192.181 800.558>
VStem: 802 192<54.5779 693.188> 802 157<578.656 863.339>
AnchorPoint: "hoqa" -320 0.600006 basechar 0
AnchorPoint: "E2" 532 0 basechar 0
AnchorPoint: "E1" 744 0 basechar 0
AnchorPoint: "H" 860 0 basechar 0
AnchorPoint: "W" 874 0 basechar 0
AnchorPoint: "N" 900 0 basechar 0
AnchorPoint: "Holam" 0 0 basechar 0
AnchorPoint: "R" 580 0 basechar 0
AnchorPoint: "D" 500 0 basechar 0
LayerCount: 2
Fore
SplineSet
1057 970 m 2xa0
 1057 964 1057 958 1057 952 c 0
 1057 902 1049 884 959 860 c 1xa0
 991 232 l 2
 993 203 994 181 994 162 c 0
 994 89 974 74 883 -4 c 0
 854 -28 836 -45 824 -45 c 0
 803 -45 802 7 802 150 c 2xc0
 802 771 l 2
 802 861 802 866 690 866 c 1
 641 866 593 866 544 866 c 0
 252 866 l 1
 133 867 123 865 123 949 c 0
 123 954 123 960 123 966 c 2
 124 1115 l 1
 126 1166 138 1184 168 1201 c 1
 211 1146 254 1129 296 1129 c 2
 868 1129 l 1
 920 1131 968 1165 1019 1192 c 0
 1020 1193 1022 1193 1023 1193 c 0
 1037 1193 1058 1151 1058 1119 c 2
 1057 970 l 2xa0
EndSplineSet
Validated: 1
Substitution2: "jaltJustificationAlternatives subtable" daled.wide
EndChar

StartChar: he
Encoding: 1492 1492 97
Width: 1319
GlyphClass: 1
Flags: W
HStem: 869 263<202.517 967.516>
VStem: 159 199<15.8125 627.721> 159 170<370.885 627.721> 969 192<62.2031 696.188>
AnchorPoint: "hoqa" -320 0.600006 basechar 0
AnchorPoint: "pg" 1150 0 basechar 0
AnchorPoint: "E1" 573 0 basechar 0
AnchorPoint: "H" 650 0 basechar 0
AnchorPoint: "W" 650 0 basechar 0
AnchorPoint: "N" 650 0 basechar 0
AnchorPoint: "Holam" 0 0 basechar 0
AnchorPoint: "R" 640 0 basechar 0
AnchorPoint: "D" 650 0 basechar 0
LayerCount: 2
Fore
SplineSet
1197 960 m 2x90
 1197 954 1197 948 1197 942 c 0
 1197 892 1189 882 1126 863 c 1
 1158 235 l 2
 1160 206 1161 184 1161 165 c 0
 1161 92 1141 78 1050 0 c 0
 1021 -24 1003 -42 991 -42 c 0
 970 -42 969 10 969 153 c 2
 969 774 l 2
 969 859 969 869 874 869 c 0
 869 869 863 869 857 869 c 2
 266 863 l 2
 147 864 137 862 137 946 c 0
 137 951 137 957 137 963 c 2
 138 1112 l 1
 140 1163 152 1181 182 1198 c 1
 225 1143 268 1126 310 1126 c 2
 1035 1132 l 1
 1087 1134 1108 1155 1159 1182 c 0
 1160 1183 1162 1183 1163 1183 c 0
 1177 1183 1198 1141 1198 1109 c 2
 1197 960 l 2x90
159 94 m 1xd0
 159 446 l 1xd0
 161 584 163 586 230 660 c 1
 267 699 289 722 302 722 c 0
 321 722 324 679 329 576 c 1xb0
 355 204 l 1
 357 170 358 144 358 122 c 0
 358 45 341 35 271 -21 c 1
 228 -56 202 -77 187 -77 c 0
 162 -77 161 -28 159 94 c 1xd0
EndSplineSet
Validated: 1
Substitution2: "jaltJustificationAlternatives subtable" he.wide
EndChar

StartChar: vav
Encoding: 1493 1493 98
Width: 648
GlyphClass: 1
Flags: W
VStem: 387 128<-49.7207 214.452>
AnchorPoint: "hoqa" -320 0.600006 basechar 0
AnchorPoint: "E1" 290 0 basechar 0
AnchorPoint: "H" 350 0 basechar 0
AnchorPoint: "W" 451 0 basechar 0
AnchorPoint: "N" 450 -4 basechar 0
AnchorPoint: "Holam" 0 0 basechar 0
AnchorPoint: "D" 190 0 basechar 0
LayerCount: 2
Fore
SplineSet
337 738 m 1
 331 800 323 840 223 874 c 1
 135 900 101 922 101 978 c 2
 102 1127 l 1
 102 1131 l 2
 102 1176 116 1225 143 1225 c 0
 144 1225 146 1224 148 1224 c 1
 175 1188 201 1170 229 1161 c 2
 363 1116 l 2
 490 1074 515 970 515 918 c 2
 515 58 l 1
 506 -15 l 1
 496 -42 461 -58 438 -58 c 0
 413 -58 389 -39 387 4 c 2
 337 738 l 1
EndSplineSet
Validated: 1
EndChar

StartChar: zayin
Encoding: 1494 1494 99
Width: 637
GlyphClass: 1
Flags: W
VStem: 267 105<585.049 809.436> 309 182<28.3312 92.4994>
AnchorPoint: "hoqa" -320 0.600006 basechar 0
AnchorPoint: "E1" 530 0 basechar 0
AnchorPoint: "H" 350 0 basechar 0
AnchorPoint: "W" 369 0 basechar 0
AnchorPoint: "N" 390 0 basechar 0
AnchorPoint: "Holam" 0 20 basechar 0
AnchorPoint: "D" 100 0 basechar 0
LayerCount: 2
Fore
SplineSet
267 824 m 0x80
 267 869 207 874 171 886 c 0
 128 901 103 918 103 997 c 0
 103 999 103 1000 103 1002 c 1
 103 1131 l 1
 107 1165 119 1231 138 1231 c 0
 140 1231 142 1230 144 1229 c 1
 170 1192 203 1173 238 1156 c 1
 451 1080 l 2
 520 1055 523 1052 523 985 c 1
 521 916 l 1
 518 909 519 886 500 864 c 1
 449 817 415 831 395 810 c 0
 384 798 376 784 374 772 c 0
 373 764 372 757 372 749 c 0x80
 372 735 374 720 376 705 c 0
 417 403 460 409 491 124 c 0
 491 122 491 120 491 117 c 0
 491 47 386 -32 352 -57 c 0
 321 -80 317 -79 309 -22 c 2x40
 233 585 l 1
 233 585 227 653 227 667 c 0
 227 669 l 0
 237 740 267 755 267 824 c 0x80
EndSplineSet
Validated: 1
EndChar

StartChar: het
Encoding: 1495 1495 100
Width: 1267
GlyphClass: 1
Flags: W
HStem: 866 265<394.34 898.611>
VStem: 138 200<50.8335 318.664>
AnchorPoint: "hoqa" -320 0.600006 basechar 0
AnchorPoint: "pg" 1080 0 basechar 0
AnchorPoint: "E1" 612 0 basechar 0
AnchorPoint: "H" 680 0 basechar 0
AnchorPoint: "W" 650 0 basechar 0
AnchorPoint: "N" 660 0 basechar 0
AnchorPoint: "Holam" 40 0 basechar 0
AnchorPoint: "D" 640 0 basechar 0
LayerCount: 2
Fore
SplineSet
506 866 m 1
 394 866 388 834 382 746 c 2
 338 146 l 2
 326 4 329 -50 308 -50 c 0
 296 -50 278 -33 249 -9 c 0
 158 69 138 84 138 157 c 0
 138 176 139 198 141 227 c 2
 237 860 l 1
 147 884 138 902 138 952 c 0
 138 958 138 964 138 970 c 2
 138 1119 l 2
 138 1151 159 1193 173 1193 c 0
 174 1193 176 1193 177 1192 c 0
 228 1165 276 1131 328 1131 c 1
 964 1131 l 1
 1016 1131 1033 1159 1084 1186 c 0
 1085 1187 1087 1187 1088 1187 c 0
 1102 1187 1123 1145 1123 1113 c 2
 1122 964 l 2
 1122 958 1122 952 1122 946 c 0
 1122 929 1125 917 1125 907 c 0
 1125 888 1115 878 1055 862 c 1
 1151 229 l 2
 1153 200 1154 178 1154 159 c 0
 1154 86 1134 71 1043 -7 c 0
 1014 -31 996 -48 984 -48 c 0
 963 -48 966 6 954 148 c 2
 910 748 l 2
 904 836 898 866 786 866 c 1
 506 866 l 1
EndSplineSet
Validated: 1
EndChar

StartChar: tet
Encoding: 1496 1496 101
Width: 1240
GlyphClass: 1
Flags: W
HStem: -47 315<376.779 536.129> 865 250<664.5 906.514>
VStem: 115 408<900.567 1069.16> 173 156<421.359 734.88> 629 135<724.555 849.994> 979 177<376.191 840.171>
AnchorPoint: "hoqa" -320 0.600006 basechar 0
AnchorPoint: "E1" 650 0 basechar 0
AnchorPoint: "H" 614 0 basechar 0
AnchorPoint: "W" 600 0 basechar 0
AnchorPoint: "N" 600 0 basechar 0
AnchorPoint: "Holam" 0 0 basechar 0
AnchorPoint: "D" 700 -30 basechar 0
LayerCount: 2
Fore
SplineSet
1115 388 m 1xdc
 1105 307 1023 160 999 110 c 1
 840 38 445 -18 272 -47 c 0
 271 -47 270 -47 269 -47 c 0
 247 -47 232 31 222 100 c 1
 173 497 l 1
 173 499 l 2
 173 530 168 552 168 583 c 0
 168 596 171 611 173 628 c 0xdc
 180 677 225 746 259 813 c 1
 264 827 246 842 219 852 c 1
 186 870 180 867 146 899 c 1
 125 933 115 930 115 1008 c 2
 115 1145 l 2
 115 1204 121 1218 130 1218 c 0
 133 1218 136 1216 140 1214 c 0
 173 1191 202 1169 240 1147 c 1
 286 1123 340 1108 401 1093 c 1
 444 1085 494 1073 508 1040 c 1
 518 1011 523 981 523 956 c 0xec
 523 938 521 924 516 914 c 0
 461 805 329 738 329 662 c 0
 329 529 345 455 373 323 c 0
 378 301 404 268 424 268 c 0
 633 268 760 298 926 369 c 1
 968 396 979 423 979 500 c 2
 979 746 l 1
 970 805 966 821 922 849 c 1
 909 859 882 865 857 865 c 0
 841 865 826 862 815 857 c 1
 782 827 798 799 764 749 c 1
 752 725 721 704 690 704 c 0
 670 704 652 712 640 724 c 0
 629 736 629 737 629 761 c 2
 629 1028 l 2
 629 1096 637 1115 692 1115 c 0
 712 1115 738 1113 772 1109 c 0
 922 1091 1069 1073 1128 973 c 1
 1148 937 1156 900 1156 858 c 0
 1156 843 1155 827 1153 810 c 2
 1115 388 l 1xdc
EndSplineSet
Validated: 1
EndChar

StartChar: yod
Encoding: 1497 1497 102
Width: 669
GlyphClass: 1
Flags: W
VStem: 355 220<747.634 961.5>
AnchorPoint: "hoqa" -320 0.600006 basechar 0
AnchorPoint: "E1" 300 0 basechar 0
AnchorPoint: "H" 328 0 basechar 0
AnchorPoint: "W" 320 0 basechar 0
AnchorPoint: "N" 330 0 basechar 0
AnchorPoint: "Holam" 0 0 basechar 0
AnchorPoint: "D" 150 110 basechar 0
LayerCount: 2
Fore
SplineSet
487 1050 m 1
 550 1023 575 984 575 939 c 0
 575 896 560 828 548 796 c 0
 509 689 462 546 416 495 c 1
 359 443 317 414 295 414 c 0
 284 414 278 422 278 438 c 0
 278 446 279 456 282 468 c 2
 352 737 l 2
 354 744 355 751 355 758 c 0
 355 790 333 812 303 819 c 0
 248 833 220 836 175 863 c 1
 140 889 119 897 118 986 c 1
 118 1125 l 2
 118 1156 138 1218 153 1218 c 0
 156 1218 159 1215 162 1209 c 1
 183 1166 219 1158 258 1139 c 1
 323 1110 405 1077 487 1050 c 1
EndSplineSet
Validated: 1
EndChar

StartChar: finalkaf
Encoding: 1498 1498 103
Width: 1172
GlyphClass: 1
Flags: W
HStem: 866 263<190.181 798.558>
VStem: 800 157<521.384 863.339> 805 206<-484.575 -7.46637>
AnchorPoint: "E1" 480 0 basechar 0
AnchorPoint: "kaf" 500 730 basechar 0
AnchorPoint: "H" 350 0 basechar 0
AnchorPoint: "W" 470 0 basechar 0
AnchorPoint: "N" 500 0 basechar 0
AnchorPoint: "Holam" 0 0 basechar 0
AnchorPoint: "D" 490 0 basechar 0
LayerCount: 2
Fore
SplineSet
1055 970 m 2xc0
 1055 964 1055 958 1055 952 c 0
 1055 902 1047 884 957 860 c 1xc0
 1007 -321 l 2
 1009 -350 1011 -372 1011 -391 c 0
 1011 -464 977 -475 887 -553 c 0
 857 -577 839 -594 827 -594 c 0
 807 -594 805 -542 805 -399 c 2xa0
 800 771 l 2
 800 861 800 866 688 866 c 2
 250 866 l 2
 131 867 121 865 121 949 c 0
 121 954 121 960 121 966 c 2
 122 1115 l 1
 124 1166 136 1184 166 1201 c 1
 209 1146 252 1129 294 1129 c 2
 866 1129 l 1
 918 1131 966 1165 1017 1192 c 0
 1018 1193 1020 1193 1021 1193 c 0
 1035 1193 1056 1151 1056 1119 c 2
 1055 970 l 2xc0
EndSplineSet
Validated: 1
EndChar

StartChar: kaf
Encoding: 1499 1499 104
Width: 1087
GlyphClass: 1
Flags: W
VStem: 870 139<322.362 641.132>
AnchorPoint: "hoqa" -320 0.600006 basechar 0
AnchorPoint: "E1" 408 0 basechar 0
AnchorPoint: "H" 500 0 basechar 0
AnchorPoint: "W" 500 0 basechar 0
AnchorPoint: "N" 500 0 basechar 0
AnchorPoint: "Holam" 0 0 basechar 0
AnchorPoint: "R" 550 0 basechar 0
AnchorPoint: "D" 500 0 basechar 0
LayerCount: 2
Fore
SplineSet
324 1134 m 2
 788 1077 l 2
 895 1064 927 1024 952 956 c 1
 952 954 l 1
 953 956 l 1
 987 813 997 720 1003 567 c 0
 1006 475 1009 401 1009 334 c 0
 1009 211 904 50 780 15 c 1
 778 15 l 1
 276 -43 l 2
 222 -49 183 -50 154 -53 c 0
 149 -54 145 -54 141 -54 c 0
 94 -54 91 -16 91 48 c 0
 91 58 91 68 91 79 c 0
 91 85 91 91 91 97 c 1
 92 226 90 236 228 250 c 2
 714 300 l 2
 843 314 870 331 870 400 c 0
 870 417 868 438 866 463 c 1
 854 544 834 625 805 705 c 1
 770 792 768 796 633 812 c 2
 276 853 l 2
 164 866 151 870 151 954 c 0
 151 959 151 965 151 971 c 2
 152 1120 l 1
 154 1171 166 1189 196 1206 c 1
 239 1151 282 1139 324 1134 c 2
EndSplineSet
Validated: 1
Substitution2: "jaltJustificationAlternatives subtable" khaf.wide
EndChar

StartChar: lamed
Encoding: 1500 1500 105
Width: 1065
GlyphClass: 1
Flags: W
HStem: 875 269<252.474 795.577>
VStem: 13 246<1653.32 1840.03> 129 128<1144.9 1626.08> 844 153<634 832.177>
AnchorPoint: "hoqa" -320 0.600006 basechar 0
AnchorPoint: "E2" 587 0 basechar 0
AnchorPoint: "E1" 280 -7 basechar 0
AnchorPoint: "H" 470 0 basechar 0
AnchorPoint: "W" 500 0 basechar 0
AnchorPoint: "N" 580 0 basechar 0
AnchorPoint: "Holam" -130 100 basechar 0
AnchorPoint: "D" 420 0 basechar 0
LayerCount: 2
Fore
SplineSet
330 1144 m 1xb0
 330 1144 774 1140 777 1140 c 0
 915 1140 925 1118 949 984 c 1
 989 742 l 2
 994 706 997 677 997 652 c 0
 997 584 978 548 942 489 c 1
 725 248 l 1
 705 222 698 197 698 172 c 2
 698 167 l 1
 700 155 702 147 702 140 c 0
 702 121 693 113 674 96 c 1
 521 -18 l 2
 489 -42 467 -55 455 -55 c 0
 444 -55 440 -46 440 -24 c 0
 440 -16 441 -5 442 8 c 0
 446 73 459 135 540 242 c 1
 844 634 l 1
 844 645 l 2
 844 700 831 755 812 809 c 1
 781 872 765 875 640 875 c 1
 274 875 l 1
 153 875 133 892 125 1051 c 1
 129 1478 l 1
 129 1494 l 2xb0
 129 1574 114 1603 59 1652 c 1
 19 1680 13 1722 13 1777 c 1
 16 1918 l 2
 17 1988 33 2019 52 2019 c 0
 69 2019 89 1993 101 1947 c 0
 110 1912 147 1888 169 1874 c 0
 246 1829 259 1786 259 1707 c 0xd0
 259 1682 258 1653 257 1619 c 2
 249 1246 l 1
 249 1156 249 1144 330 1144 c 1xb0
EndSplineSet
Validated: 1
Substitution2: "jaltJustificationAlternatives subtable" lamed.wide
EndChar

StartChar: finalmem
Encoding: 1501 1501 106
Width: 1241
GlyphClass: 1
Flags: W
HStem: 0 259<340.514 972.629> 865 264<362.855 949.504>
VStem: 170 140<274.247 783.195> 975 166<261.199 497.614>
AnchorPoint: "E1" 600 0 basechar 0
AnchorPoint: "H" 650 0 basechar 0
AnchorPoint: "W" 621 0 basechar 0
AnchorPoint: "N" 650 0 basechar 0
AnchorPoint: "Holam" 0 0 basechar 0
AnchorPoint: "D" 650 0 basechar 0
LayerCount: 2
Fore
SplineSet
174 1214 m 0
 234 1149 286 1130 380 1129 c 2
 901 1126 l 1
 1063 1123 1091 1092 1105 899 c 1
 1141 232 l 1
 1141 227 l 2
 1141 70 973 0 832 0 c 2
 319 0 l 2
 211 0 166 28 165 154 c 1
 170 666 l 2
 171 712 190 761 251 830 c 0
 257 837 259 844 259 849 c 0
 259 884 135 848 133 904 c 1
 129 1109 l 1
 131 1145 149 1216 170 1216 c 0
 172 1216 171 1216 174 1214 c 0
963 740 m 1
 951 862 947 864 797 865 c 1
 442 865 l 1
 332 834 310 749 310 621 c 0
 310 612 310 603 311 594 c 2
 329 374 l 1
 343 265 343 259 434 259 c 2
 441 259 l 1
 879 260 l 2
 960 260 975 260 975 324 c 0
 975 339 976 358 975 382 c 1
 969 564 971 534 963 740 c 1
EndSplineSet
Validated: 1
Substitution2: "jaltJustificationAlternatives subtable" finalmem.wide
EndChar

StartChar: mem
Encoding: 1502 1502 107
Width: 1294
GlyphClass: 1
Flags: W
HStem: 0 7G<118 134.5 465 500.5> 866 294<687.407 922.568>
VStem: 108 202<63.5986 516.555> 1014 172<317.461 781.332>
AnchorPoint: "hoqa" -320 0.600006 basechar 0
AnchorPoint: "E1" 498 0 basechar 0
AnchorPoint: "H" 650 0 basechar 0
AnchorPoint: "W" 700 0 basechar 0
AnchorPoint: "N" 650 0 basechar 0
AnchorPoint: "Holam" 0 0 basechar 0
AnchorPoint: "D" 700 0 basechar 0
LayerCount: 2
Fore
SplineSet
108 78 m 1
 108 312 115 550 271 772 c 1
 276 783 277 792 277 798 c 0
 277 805 272 811 251 822 c 1
 202 860 181 891 172 950 c 1
 165 969 162 1008 162 1052 c 0
 162 1139 175 1243 204 1249 c 1
 216 1246 225 1242 237 1229 c 1
 269 1200 303 1148 373 1077 c 0
 384 1066 431 1006 490 1006 c 0
 547 1006 693 1156 820 1160 c 1
 907 1156 1014 1076 1070 1034 c 1
 1099 1011 1124 981 1144 949 c 0
 1170 905 1186 857 1186 819 c 0
 1186 817 l 2
 1183 254 l 2
 1182 61 1180 61 1038 44 c 2
 579 -9 l 1
 541 -12 512 -14 489 -14 c 0
 441 -14 423 -5 423 26 c 0
 423 48 432 81 445 129 c 0
 488 277 491 255 597 269 c 2
 898 310 l 1
 997 317 1014 318 1014 384 c 0
 1014 396 1012 431 1010 448 c 2
 986 717 l 1
 980 773 974 787 926 821 c 1
 864 862 843 866 782 866 c 0
 763 866 741 866 712 866 c 0
 537 866 362 646 345 520 c 1
 328 406 310 293 310 191 c 0
 310 188 310 185 310 181 c 0
 310 141 307 88 242 44 c 1
 193 14 142 0 127 0 c 0
 109 0 109 24 108 78 c 1
EndSplineSet
Validated: 1
EndChar

StartChar: finalnun
Encoding: 1503 1503 108
Width: 634
GlyphClass: 1
Flags: W
VStem: 108 437<909.855 1071.32> 188 184<167.288 629.373> 203 217<-454.223 183.094>
AnchorPoint: "E2" 350 0 basechar 0
AnchorPoint: "E1" 336 0 basechar 0
AnchorPoint: "H" -200 0 basechar 0
AnchorPoint: "W" -150 0 basechar 0
AnchorPoint: "N" 0 0 basechar 0
AnchorPoint: "Holam" 0 30 basechar 0
AnchorPoint: "D" 50 0 basechar 0
LayerCount: 2
Fore
SplineSet
475 1086 m 1x80
 527 1060 545 1036 545 974 c 0x80
 545 883 483 808 453 750 c 1
 419 666 372 544 372 421 c 2
 372 411 l 1x40
 411 -252 l 2
 414 -309 420 -345 420 -372 c 0
 420 -420 402 -439 324 -497 c 0
 278 -532 251 -552 234 -552 c 0
 210 -552 207 -511 203 -412 c 1x20
 188 307 l 1
 187 315 188 323 188 331 c 0
 188 346 188 361 188 374 c 0x40
 188 540 225 621 266 707 c 1
 280 731 306 769 306 805 c 0
 306 829 293 853 254 868 c 0
 130 915 108 924 108 965 c 0
 108 967 108 969 108 971 c 2
 108 1145 l 1
 111 1184 130 1247 143 1247 c 1
 147 1248 151 1243 152 1240 c 1
 174 1207 197 1188 236 1172 c 1
 475 1086 l 1x80
EndSplineSet
Validated: 1
EndChar

StartChar: nun
Encoding: 1504 1504 109
Width: 800
GlyphClass: 1
Flags: W
VStem: 516 156<279.222 798.679>
AnchorPoint: "hoqa" -320 0.600006 basechar 0
AnchorPoint: "E1" 420 0 basechar 0
AnchorPoint: "H" 400 0 basechar 0
AnchorPoint: "W" 380 0 basechar 0
AnchorPoint: "N" 390 0 basechar 0
AnchorPoint: "Holam" 80 0 basechar 0
AnchorPoint: "D" 300 0 basechar 0
LayerCount: 2
Fore
SplineSet
207 246 m 2
 420 271 l 2
 503 281 516 286 516 356 c 0
 516 372 517 392 516 416 c 2
 503 698 l 1
 503 759 485 804 427 831 c 2
 333 874 l 2
 270 903 251 911 251 995 c 2
 251 1161 l 2
 251 1224 264 1256 281 1256 c 0
 287 1256 294 1252 301 1243 c 1
 333 1209 345 1183 402 1150 c 1
 520 1096 l 1
 659 1049 671 947 671 862 c 2
 672 174 l 1
 671 0 669 0 520 -14 c 1
 201 -51 l 2
 170 -55 146 -57 128 -57 c 0
 78 -57 71 -36 71 47 c 2
 71 89 l 1
 74 231 75 231 207 246 c 2
EndSplineSet
Validated: 1
EndChar

StartChar: samekh
Encoding: 1505 1505 110
Width: 1196
GlyphClass: 1
Flags: W
HStem: -33 282<215 460.4>
VStem: 151 140<473.344 816.053> 927 169<406.657 838.818>
AnchorPoint: "hoqa" -320 0.600006 basechar 0
AnchorPoint: "E1" 522 0 basechar 0
AnchorPoint: "H" 600 0 basechar 0
AnchorPoint: "W" 530 0 basechar 0
AnchorPoint: "N" 500 0 basechar 0
AnchorPoint: "Holam" 0 30 basechar 0
AnchorPoint: "D" 600 50 basechar 0
LayerCount: 2
Fore
SplineSet
917 499 m 2
 927 752 l 1
 927 791 913 851 809 860 c 2
 498 886 l 2
 493 887 484 886 473 886 c 0
 386 886 291 825 291 716 c 0
 291 704 298 658 301 644 c 2
 352 390 l 2
 372 287 375 249 419 249 c 0
 443 249 480 258 536 278 c 2
 778 363 l 1
 890 398 913 408 917 499 c 2
1096 915 m 1
 1086 432 l 1
 1084 392 1083 390 1077 378 c 1
 1042 228 990 153 886 120 c 2
 776 85 l 1
 409 0 l 2
 327 -20 276 -33 243 -33 c 0
 187 -33 186 5 181 104 c 2
 151 726 l 1
 151 728 l 2
 151 760 225 850 225 880 c 0
 225 912 182 906 155 922 c 17
 129 930 127 928 127 985 c 2
 127 1028 l 1
 128 1176 l 1
 130 1228 142 1246 172 1262 c 1
 215 1208 257 1188 299 1183 c 2
 868 1113 l 1
 1066 1083 1096 1017 1096 920 c 2
 1096 915 l 1
EndSplineSet
Validated: 1
EndChar

StartChar: ayin
Encoding: 1506 1506 111
Width: 1149
GlyphClass: 1
Flags: W
HStem: -155 333<104.922 238.979>
VStem: 137 70<1178.17 1254.05> 262 144<561.106 777.757> 707 70<1190.77 1242.82> 862 215<753 929.5>
AnchorPoint: "hoqa" -320 0.600006 basechar 0
AnchorPoint: "pg" 960 0 basechar 0
AnchorPoint: "E1" 549 0 basechar 0
AnchorPoint: "H" 710 0 basechar 0
AnchorPoint: "W" 621 0 basechar 0
AnchorPoint: "N" 550 0 basechar 0
AnchorPoint: "Holam" 0 30 basechar 0
AnchorPoint: "D" 630 80 basechar 0
LayerCount: 2
Fore
SplineSet
494 914 m 0
 494 871 406 723 406 670 c 0
 406 642 420 616 448 566 c 2
 543 395 l 1
 575 335 609 296 642 296 c 0
 668 296 693 320 716 377 c 2
 830 660 l 2
 850 711 862 741 862 765 c 0
 862 797 840 819 781 865 c 0
 746 892 728 909 718 932 c 0
 708 956 707 984 707 1035 c 2
 707 1151 l 1
 709 1198 752 1270 770 1270 c 0
 775 1270 777 1265 777 1251 c 0
 777 1223 821 1177 856 1146 c 2
 986 1028 l 1
 1046 969 1077 948 1077 911 c 0
 1077 891 1068 866 1050 828 c 0
 985 694 976 673 950 572 c 2
 871 261 l 2
 831 105 830 105 664 44 c 2
 239 -112 l 1
 169 -139 125 -155 98 -155 c 0
 62 -155 53 -125 53 -48 c 0
 53 -28 53 -10 53 6 c 0
 53 110 63 129 221 178 c 0
 339 215 377 239 377 286 c 0
 377 319 358 363 335 431 c 1
 289 559 l 1
 271 614 262 639 262 662 c 0
 262 684 283 735 283 761 c 0
 283 786 267 806 207 865 c 0
 174 897 157 916 147 938 c 0
 139 958 137 981 137 1018 c 0
 137 1064 137 1110 137 1156 c 0
 137 1204 184 1284 201 1284 c 0
 206 1284 208 1279 207 1266 c 1
 207 1216 236 1180 270 1149 c 2
 411 1023 l 2
 469 970 494 947 494 914 c 0
EndSplineSet
Validated: 1
Substitution2: "saltStylisticAlternatives subtable" ayin.alt
Substitution2: "AlternateAyinSubstTable subtable" ayin.alt
EndChar

StartChar: finalpe
Encoding: 1507 1507 112
Width: 1107
GlyphClass: 1
Flags: W
VStem: 803 172<453.669 789.476> 811 207<-506.156 60.7416>
AnchorPoint: "E1" 548 0 basechar 0
AnchorPoint: "H" 400 1 basechar 0
AnchorPoint: "W" 475 1 basechar 0
AnchorPoint: "N" 600 1 basechar 0
AnchorPoint: "Holam" 120 0 basechar 0
AnchorPoint: "D" 640 0 basechar 0
LayerCount: 2
Fore
SplineSet
487 584 m 0x80
 480 486 477 419 442 419 c 0
 425 419 403 424 374 430 c 2
 186 468 l 1
 104 483 78 494 78 524 c 0
 78 542 86 566 98 601 c 2
 273 1125 l 2
 289 1173 321 1261 336 1261 c 0
 337 1261 337 1261 338 1261 c 1
 372 1191 409 1148 453 1135 c 2
 851 1017 l 2
 970 981 971 979 975 866 c 2x80
 1017 -342 l 2
 1017 -360 1018 -376 1018 -390 c 0
 1018 -463 1006 -482 927 -549 c 0
 877 -591 850 -616 833 -616 c 0
 812 -616 812 -574 811 -478 c 2x40
 803 695 l 2
 802 779 788 784 708 804 c 2
 410 882 l 1
 390 888 385 889 374 886 c 0
 357 883 287 793 287 749 c 0
 287 726 294 716 299 713 c 1
 419 672 l 1
 474 660 487 638 487 598 c 0
 487 594 487 589 487 584 c 0x80
EndSplineSet
Validated: 1
EndChar

StartChar: pe
Encoding: 1508 1508 113
Width: 1089
GlyphClass: 1
Flags: W
VStem: 869 150<319.595 572.909>
AnchorPoint: "hoqa" -320 0.600006 basechar 0
AnchorPoint: "E1" 459 0 basechar 0
AnchorPoint: "H" 528 0 basechar 0
AnchorPoint: "W" 550 0 basechar 0
AnchorPoint: "N" 550 0 basechar 0
AnchorPoint: "Holam" 180 0 basechar 0
AnchorPoint: "R" 650 30 basechar 0
AnchorPoint: "D" 660 0 basechar 0
LayerCount: 2
Fore
SplineSet
1019 376 m 1
 1019 373 1019 369 1019 365 c 0
 1019 204 898 33 809 22 c 1
 803 23 l 1
 252 -45 l 1
 220 -48 190 -53 165 -53 c 0
 123 -53 95 -37 95 37 c 0
 95 58 96 81 97 110 c 0
 102 226 104 235 254 252 c 2
 750 310 l 1
 841 314 869 317 869 358 c 0
 869 367 868 379 865 393 c 2
 801 726 l 1
 782 774 729 800 648 813 c 2
 416 851 l 1
 396 857 391 858 380 855 c 0
 364 852 314 788 314 738 c 0
 314 725 318 713 326 703 c 1
 446 662 l 1
 501 648 514 631 514 588 c 0
 514 584 514 579 514 574 c 0
 509 476 504 409 469 409 c 0
 452 409 430 414 401 420 c 2
 213 458 l 1
 130 472 104 484 104 514 c 0
 104 532 113 556 125 591 c 2
 300 1115 l 1
 318 1163 345 1251 365 1251 c 0
 399 1181 435 1135 480 1125 c 2
 795 1054 l 18
 921 1026 978 936 985 843 c 2
 1019 376 l 1
EndSplineSet
Validated: 1
EndChar

StartChar: finaltsadi
Encoding: 1509 1509 114
Width: 1056
GlyphClass: 1
Flags: W
HStem: 790 359<736.169 858.583>
VStem: 185 147<472 689.594> 213 226<-419.453 23.75>
AnchorPoint: "E1" 198 0 basechar 0
AnchorPoint: "H" 850 0 basechar 0
AnchorPoint: "W" 700 0 basechar 0
AnchorPoint: "N" 700 0 basechar 0
AnchorPoint: "Holam" 0 0 basechar 0
AnchorPoint: "D" 50 0 basechar 0
LayerCount: 2
Fore
SplineSet
237 708 m 1xc0
 245 727 249 742 249 756 c 0
 249 790 223 813 172 852 c 1
 134 884 115 902 115 995 c 0
 115 1030 115 1065 115 1100 c 0
 115 1153 146 1201 179 1231 c 1
 181 1195 196 1170 226 1143 c 1
 400 1003 l 1
 453 959 479 938 479 905 c 0
 479 874 456 834 413 756 c 1
 345 637 332 607 332 562 c 0xc0
 332 555 333 549 333 542 c 2
 338 472 l 1
 341 463 343 458 347 458 c 0
 355 458 370 482 408 548 c 2
 689 1029 l 2
 738 1113 760 1149 788 1149 c 0
 809 1149 832 1128 874 1092 c 1
 956 1017 964 1011 964 909 c 2
 964 865 l 2
 964 738 964 690 941 690 c 0
 927 690 903 709 865 740 c 0
 827 772 805 790 787 790 c 0
 764 790 747 763 708 705 c 1
 440 319 l 1
 392 252 375 227 375 177 c 0
 375 152 379 121 386 77 c 2
 429 -207 l 1
 435 -254 439 -287 439 -314 c 0
 439 -375 418 -400 352 -463 c 1
 295 -516 263 -547 243 -547 c 0
 218 -547 216 -493 213 -367 c 2xa0
 185 589 l 1
 186 628 212 671 237 708 c 1xc0
EndSplineSet
Validated: 1
EndChar

StartChar: tsadi
Encoding: 1510 1510 115
Width: 1097
GlyphClass: 1
Flags: W
VStem: 275 136<588 794.382> 291 120<625.718 793.599>
AnchorPoint: "hoqa" -320 0.600006 basechar 0
AnchorPoint: "E1" 549 0 basechar 0
AnchorPoint: "H" 480 0 basechar 0
AnchorPoint: "W" 490 0 basechar 0
AnchorPoint: "N" 500 0 basechar 0
AnchorPoint: "Holam" 0 0 basechar 0
AnchorPoint: "D" 180 -130 basechar 0
LayerCount: 2
Fore
SplineSet
296 255 m 1x80
 436 272 490 280 490 306 c 0
 490 322 469 345 436 381 c 2
 328 500 l 1
 289 545 275 562 275 614 c 0x80
 275 648 281 697 291 779 c 1
 291 784 l 2x40
 291 815 253 835 204 872 c 1
 166 904 147 922 147 1015 c 0
 147 1050 147 1085 147 1120 c 0
 147 1173 179 1214 211 1246 c 1
 211 1199 228 1190 258 1163 c 1
 432 1023 l 1
 485 979 511 958 511 925 c 0
 511 894 488 854 445 776 c 0
 422 735 411 714 411 697 c 0
 411 679 422 665 442 637 c 1
 472 610 489 594 504 594 c 0
 522 594 535 618 565 673 c 1
 739 1007 l 2
 784 1093 803 1142 831 1142 c 0
 852 1142 875 1121 917 1085 c 1
 999 1010 1007 1004 1007 902 c 2
 1007 858 l 2
 1007 731 1007 683 984 683 c 0
 970 683 946 702 908 733 c 0
 870 765 848 783 830 783 c 0
 807 783 790 756 751 698 c 10
 684 600 l 17
 656 550 641 522 641 496 c 0
 641 465 663 439 714 384 c 1
 757 334 809 285 815 251 c 0
 819 227 821 204 821 182 c 0
 821 92 768 16 672 5 c 2
 266 -43 l 2
 215 -49 177 -53 150 -53 c 0
 82 -53 79 -26 79 71 c 0
 79 231 84 231 296 255 c 1x80
EndSplineSet
Validated: 1
EndChar

StartChar: kof
Encoding: 1511 1511 116
Width: 1183
GlyphClass: 1
Flags: W
HStem: -23 21G<524.5 536> 865 264<203.993 905.676>
VStem: 163 214<-455.411 172.835> 163 190<0.165344 624.469> 949 166<672 822.538>
AnchorPoint: "hoqa" -320 0.600006 basechar 0
AnchorPoint: "E2" 560 0 basechar 0
AnchorPoint: "E1" 109 0 basechar 0
AnchorPoint: "H" 780 0 basechar 0
AnchorPoint: "W" 700 0 basechar 0
AnchorPoint: "N" 653 5 basechar 0
AnchorPoint: "Holam" 0 0 basechar 0
AnchorPoint: "D" 600 0 basechar 0
LayerCount: 2
Fore
SplineSet
282 1129 m 1xc8
 282 1129 844 1125 847 1125 c 0
 985 1125 1038 1114 1062 980 c 1
 1107 784 l 2
 1115 749 1115 719 1115 694 c 0
 1115 626 1096 590 1060 531 c 1
 833 257 l 1
 813 231 806 206 806 181 c 2
 806 176 l 1
 808 164 810 156 810 149 c 0
 810 130 801 122 782 105 c 1
 596 14 l 2
 560 -4 542 -23 530 -23 c 0
 519 -23 515 -14 515 8 c 0
 515 16 516 27 517 40 c 0
 521 105 534 167 615 274 c 1
 949 672 l 1
 949 683 l 2
 949 738 934 752 915 806 c 1
 887 862 848 865 752 865 c 0
 740 865 727 865 713 865 c 1
 229 865 l 1
 225 865 220 865 216 865 c 0
 149 865 130 875 130 951 c 3
 130 1006 118 1047 118 1109 c 27
 118 1153 148 1216 157 1216 c 3
 193 1216 201 1129 282 1129 c 1xc8
163 -361 m 1xe8
 163 531 l 2
 163 586 184 601 220 641 c 0
 268 692 299 735 318 735 c 0
 344 735 349 678 353 530 c 2xd8
 377 -357 l 1
 377 -412 350 -445 305 -480 c 1
 247 -523 214 -549 195 -549 c 0
 173 -549 167 -524 167 -449 c 0
 167 -426 163 -393 163 -361 c 1xe8
EndSplineSet
Validated: 1
EndChar

StartChar: resh
Encoding: 1512 1512 117
Width: 1109
GlyphClass: 1
Flags: W
HStem: -26 21G<842.5 856>
VStem: 831 146<34.2713 313.372>
AnchorPoint: "hoqa" -320 0.600006 basechar 0
AnchorPoint: "E2" 500 0 basechar 0
AnchorPoint: "E1" 778 0 basechar 0
AnchorPoint: "H" 800 0 basechar 0
AnchorPoint: "W" 887 0 basechar 0
AnchorPoint: "N" 900 -1 basechar 0
AnchorPoint: "Holam" 0 0 basechar 0
AnchorPoint: "D" 500 0 basechar 0
LayerCount: 2
Fore
SplineSet
792 751 m 1
 785 853 785 853 675 867 c 1
 205 920 l 1
 106 934 104 934 104 1016 c 1
 104 1148 l 1
 114 1193 129 1223 145 1250 c 1
 184 1207 222 1186 288 1168 c 1
 882 1096 l 1
 957 1083 971 1063 973 949 c 1
 977 219 l 1
 977 212 977 205 977 198 c 0
 977 73 967 62 919 22 c 1
 882 -9 862 -26 850 -26 c 0
 835 -26 834 0 831 59 c 1
 792 751 l 1
EndSplineSet
Validated: 1
Substitution2: "jaltJustificationAlternatives subtable" resh.wide
EndChar

StartChar: shin
Encoding: 1513 1513 118
Width: 1553
GlyphClass: 1
Flags: W
VStem: 199 129<580.83 717.721> 1213 264<785.5 929>
AnchorPoint: "hoqa" -320 0.600006 basechar 0
AnchorPoint: "E1" 640 0 basechar 0
AnchorPoint: "H" 700 0 basechar 0
AnchorPoint: "W" 676 0 basechar 0
AnchorPoint: "N" 586 0 basechar 0
AnchorPoint: "Holam" 0 0 basechar 0
AnchorPoint: "D" 900 0 basechar 0
AnchorPoint: "Shin_Dot" 1434 50 basechar 0
AnchorPoint: "Sin_Dot" 390 50 basechar 0
LayerCount: 2
Fore
SplineSet
823 826 m 0
 798 825 796 822 748 720 c 1
 544 304 l 1
 544 288 563 277 588 277 c 0
 622 277 684 291 786 313 c 0
 1033 368 1040 380 1122 568 c 0
 1190 723 1213 774 1213 797 c 0
 1213 810 1205 813 1194 822 c 0
 1127 874 1120 876 1120 924 c 2
 1120 1117 l 1
 1124 1184 1160 1212 1187 1247 c 1
 1191 1207 1211 1173 1252 1140 c 2
 1420 1003 l 2
 1461 969 1477 942 1477 916 c 0
 1477 868 1423 825 1369 754 c 1
 1148 286 l 1
 1070 118 1069 120 896 80 c 2
 384 -39 l 1
 330 -39 320 4 296 122 c 2
 199 598 l 1
 199 603 l 2
 199 640 249 702 249 747 c 0
 249 771 232 791 186 826 c 0
 119 877 116 906 116 954 c 2
 116 1117 l 1
 120 1184 148 1212 175 1247 c 1
 179 1207 199 1173 240 1140 c 2
 408 1003 l 2
 467 955 495 931 495 904 c 0
 495 879 472 852 428 800 c 0
 367 726 328 685 328 628 c 1
 421 322 l 1
 434 322 459 366 493 461 c 2
 700 1048 l 1
 737 1143 756 1184 784 1184 c 0
 807 1184 837 1157 890 1108 c 0
 998 1010 1010 995 1010 928 c 0
 1010 908 1009 882 1009 849 c 0
 1009 771 1004 739 982 739 c 2
 980 739 l 2
 955 739 894 826 829 826 c 0
 827 826 825 826 823 826 c 0
EndSplineSet
Validated: 1
EndChar

StartChar: tav
Encoding: 1514 1514 119
Width: 1424
GlyphClass: 1
Flags: W
HStem: -27 20G<97.5 175.087 1163.68 1169.5> 865 261<469.831 1099.09>
VStem: 309 129<424.619 824.363>
AnchorPoint: "hoqa" -320 0.600006 basechar 0
AnchorPoint: "E1" 790 0 basechar 0
AnchorPoint: "H" 790 0 basechar 0
AnchorPoint: "W" 750 0 basechar 0
AnchorPoint: "N" 780 0 basechar 0
AnchorPoint: "Holam" 100 0 basechar 0
AnchorPoint: "R" 760 0 basechar 0
AnchorPoint: "D" 790 0 basechar 0
LayerCount: 2
Fore
SplineSet
309 438 m 0
 309 484 303 623 303 652 c 0
 303 698 353 792 353 826 c 0
 353 845 343 858 309 878 c 0
 267 903 263 900 263 954 c 2
 264 1086 l 1
 270 1126 281 1166 309 1201 c 1
 339 1134 384 1126 440 1126 c 2
 1103 1126 l 2
 1284 1126 1285 1125 1285 906 c 0
 1285 899 l 2
 1285 129 l 2
 1285 57 1276 48 1227 0 c 0
 1209 -18 1174 -28 1165 -28 c 1
 1117 700 l 1
 1103 844 1103 865 1001 865 c 2
 550 865 l 1
 477 862 465 831 444 733 c 0
 441 719 438 699 438 683 c 0
 438 447 544 320 544 168 c 0
 544 121 520 112 451 88 c 2
 117 -27 l 1
 78 -27 71 15 71 100 c 0
 71 230 77 230 201 270 c 0
 291 299 309 305 309 366 c 0
 309 392 309 414 309 438 c 0
EndSplineSet
Validated: 1
Substitution2: "jaltJustificationAlternatives subtable" tav.wide
EndChar

StartChar: geresh
Encoding: 1523 1523 123
Width: 510
VWidth: 2458
GlyphClass: 1
Flags: W
HStem: 753 482
VStem: 204 206<997.004 1222.44>
LayerCount: 2
Fore
SplineSet
360 1235 m 2
 402 1235 410 1189 410 1162 c 0
 410 1010 293 880 212 797 c 1
 183 769 161 753 137 753 c 0
 108 753 100 781 100 794 c 0
 100 809 105 822 110 835 c 1
 157 928 178 1041 204 1153 c 1
 204 1156 l 1
 226 1220 259 1235 291 1235 c 2
 360 1235 l 2
EndSplineSet
Validated: 1
EndChar

StartChar: newshekel
Encoding: 8362 8362 129
Width: 1417
GlyphClass: 1
Flags: W
HStem: 905 233<339.904 798.72>
VStem: 110 173<129.386 266.688> 444 311<532.156 657.156> 517 107<338 432.132> 811 186<452.025 613.716>
LayerCount: 2
Fore
SplineSet
1148 711 m 0xd8
 1148 722 1142 724 1132 733 c 0
 1072 778 1067 780 1067 822 c 2
 1067 993 l 1
 1070 1051 1102 1076 1125 1107 c 1
 1129 1072 1147 1044 1182 1015 c 2
 1331 892 l 2
 1360 867 1351 855 1351 836 c 1
 1135 291 l 1
 1066 142 1063 153 913 109 c 2
 626 26 l 1
 579 26 569 64 548 169 c 2
 517 324 l 1xd8
 517 343 562 411 562 447 c 0
 562 469 547 487 506 518 c 0
 448 562 444 588 444 630 c 2
 444 773 l 1
 449 832 473 856 497 887 c 1
 500 852 519 824 554 794 c 2
 727 643 l 1
 746 624 755 602 755 579 c 0xe8
 755 550 742 522 719 494 c 0
 665 430 624 388 624 338 c 1
 654 300 l 1
 672 286 687 282 705 282 c 0
 735 282 767 296 816 306 c 0
 1034 351 995 344 1068 509 c 0
 1127 645 1148 690 1148 711 c 0xd8
983 1122 m 2
 983 941 l 2
 983 924 977 914 924 899 c 1
 997 544 l 1
 997 480 969 465 889 395 c 0
 861 372 844 360 833 360 c 0
 813 360 811 396 811 477 c 0
 811 493 811 512 811 532 c 2
 811 801 l 1
 806 878 785 905 686 905 c 2
 440 905 l 2
 342 905 337 877 331 799 c 2
 283 40 l 1
 272 40 241 57 216 78 c 0
 143 140 110 158 110 207 c 0
 110 213 109 218 110 225 c 2
 203 899 l 1
 124 921 117 937 117 981 c 2
 117 1128 l 2
 117 1156 135 1193 147 1193 c 1
 194 1170 236 1138 284 1138 c 2
 844 1138 l 2
 846 1138 l 0
 891 1138 907 1165 953 1187 c 1
 965 1187 983 1150 983 1122 c 2
EndSplineSet
Validated: 1
EndChar

StartChar: jsvarika
Encoding: 64286 64286 131
Width: 0
VWidth: 45
GlyphClass: 4
Flags: W
HStem: 1211 147<-147.988 149.493>
VStem: -221 6<1515.07 1518.99> 217 6<1515.07 1518.99>
AnchorPoint: "R" 0 0 mark 0
LayerCount: 2
Fore
SplineSet
0 1358 m 0
 164 1358 177 1435 217 1519 c 1
 221 1519 223 1511 223 1497 c 0
 223 1469 222 1420 217 1372 c 0
 207 1274 164 1211 0 1211 c 0
 -165 1211 -210 1278 -216 1372 c 0
 -219 1419 -221 1467 -221 1495 c 0
 -221 1510 -220 1519 -215 1519 c 1
 -176 1435 -164 1358 0 1358 c 0
EndSplineSet
Validated: 1
Substitution2: "ccmpChangeCantillationsToCircle subtable" dottedcircle
EndChar

StartChar: ayin.alt
Encoding: 64288 64288 133
Width: 1178
GlyphClass: 1
Flags: W
VStem: 172 70<1159.17 1235.05> 297 144<542.106 758.757> 742 70<1171.38 1223.82> 897 215<734 910.5>
AnchorPoint: "hoqa" -320 0.600006 basechar 0
AnchorPoint: "pg" 1000 0 basechar 0
AnchorPoint: "E1" 600 0 basechar 0
AnchorPoint: "H" 512 0 basechar 0
AnchorPoint: "W" 506 0 basechar 0
AnchorPoint: "N" 500 0 basechar 0
AnchorPoint: "Holam" 0 0 basechar 0
AnchorPoint: "D" 680 80 basechar 0
LayerCount: 2
Fore
SplineSet
297 643 m 0
 297 665 318 716 318 742 c 0
 318 767 301 786 242 846 c 0
 187 901 173 905 172 999 c 0
 172 1045 172 1091 172 1137 c 0
 172 1185 219 1265 236 1265 c 0
 241 1265 242 1260 242 1247 c 0
 242 1197 271 1161 305 1130 c 2
 446 1004 l 2
 504 951 529 928 529 895 c 0
 529 852 441 704 441 651 c 0
 441 623 455 597 483 547 c 2
 578 376 l 1
 610 316 644 277 677 277 c 0
 703 277 728 301 751 358 c 2
 865 641 l 1
 884 692 897 722 897 746 c 0
 897 778 875 800 816 846 c 0
 754 895 742 906 742 1004 c 0
 742 1008 742 1012 742 1016 c 2
 742 1132 l 1
 744 1179 787 1251 805 1251 c 0
 810 1251 812 1245 812 1231 c 0
 812 1203 856 1158 891 1127 c 2
 1021 1009 l 1
 1081 950 1112 929 1112 892 c 0
 1112 872 1103 847 1085 809 c 0
 1021 675 1011 654 985 553 c 2
 906 242 l 1
 839 20 835 38 607 0 c 2
 297 -42 l 2
 238 -49 189 -54 157 -58 c 0
 143 -60 131 -61 121 -61 c 0
 80 -61 75 -35 73 105 c 0
 73 128 72 145 72 159 c 0
 72 223 85 210 193 222 c 0
 247 229 300 232 364 240 c 0
 407 245 418 281 418 304 c 0
 418 325 407 352 394 381 c 2
 324 540 l 1
 306 595 297 620 297 643 c 0
EndSplineSet
Validated: 1
EndChar

StartChar: alef.wide
Encoding: 64289 64289 134
Width: 1715
GlyphClass: 1
Flags: W
HStem: 0 270<343.362 559.539> 798 343<1334.01 1462.69>
VStem: 183 156<270.182 657.042> 201 138<327.806 658.972>
AnchorPoint: "hoqa" -320 0.600006 basechar 0
AnchorPoint: "E1" 900 0 basechar 0
AnchorPoint: "H" 900 0 basechar 0
AnchorPoint: "W" 900 0 basechar 0
AnchorPoint: "N" 900 0 basechar 0
AnchorPoint: "Holam" 0 0 basechar 0
AnchorPoint: "R" 850 0 basechar 0
AnchorPoint: "D" 870 -471 basechar 0
LayerCount: 2
Fore
SplineSet
1356 798 m 0xd0
 1306 798 1197 608 1192 574 c 1
 1196 548 1218 531 1263 506 c 2
 1441 410 l 1
 1576 345 1578 287 1578 177 c 0
 1578 167 l 0
 1578 133 1578 100 1578 66 c 0
 1578 22 1575 0 1555 0 c 1
 848 421 l 1
 734 485 396 659 374 659 c 0
 351 659 339 621 339 545 c 10
 339 342 l 2
 339 271 340 270 403 270 c 2
 434 270 l 1
 441 270 448 270 454 270 c 0
 567 270 569 260 569 160 c 0
 569 150 l 0
 569 0 565 0 359 0 c 0
 187 0 183 0 183 198 c 0xe0
 183 456 201 548 201 806 c 1
 131 852 129 845 129 988 c 2
 129 1050 l 2
 129 1151 133 1195 158 1195 c 0
 181 1195 199 1138 273 1088 c 0
 513 923 692 835 912 712 c 1
 960 685 1036 643 1055 643 c 0
 1057 643 1058 643 1059 644 c 1
 1292 1035 l 1
 1339 1108 1362 1141 1392 1141 c 0
 1418 1141 1450 1115 1506 1069 c 0
 1596 995 1598 981 1598 880 c 0
 1598 867 l 0
 1598 850 1599 828 1599 806 c 0
 1599 758 1595 708 1570 708 c 0
 1569 708 1567 708 1565 709 c 1
 1564 708 1563 708 1561 708 c 0
 1530 708 1400 798 1356 798 c 0xd0
EndSplineSet
Validated: 1
EndChar

StartChar: daled.wide
Encoding: 64290 64290 135
Width: 1687
GlyphClass: 1
Flags: W
HStem: 859 263<205.234 1316.56>
VStem: 1318 192<47.5779 686.188> 1318 157<571.656 856.339>
AnchorPoint: "hoqa" -320 0.600006 basechar 0
AnchorPoint: "E2" 850 0 basechar 0
AnchorPoint: "E1" 1420 0 basechar 0
AnchorPoint: "H" 1393 0 basechar 0
AnchorPoint: "W" 1379 0 basechar 0
AnchorPoint: "N" 1420 0 basechar 0
AnchorPoint: "Holam" 0 0 basechar 0
AnchorPoint: "R" 800 0 basechar 0
AnchorPoint: "D" 800 0 basechar 0
LayerCount: 2
Fore
SplineSet
1573 963 m 2xa0
 1573 957 1573 951 1573 945 c 0
 1573 895 1565 877 1475 853 c 1xa0
 1507 225 l 2
 1509 196 1510 174 1510 155 c 0
 1510 82 1490 67 1399 -11 c 0
 1370 -35 1352 -52 1340 -52 c 0
 1319 -52 1318 0 1318 143 c 2xc0
 1318 764 l 2
 1318 854 1318 859 1206 859 c 2
 257 866 l 2
 138 867 128 865 128 949 c 0
 128 954 128 960 128 966 c 2
 129 1115 l 1
 131 1166 143 1184 173 1201 c 1
 216 1146 259 1129 301 1129 c 2
 1384 1122 l 1
 1436 1124 1484 1158 1535 1185 c 0
 1536 1186 1538 1186 1539 1186 c 0
 1553 1186 1574 1144 1574 1112 c 2
 1573 963 l 2xa0
EndSplineSet
Validated: 1
EndChar

StartChar: he.wide
Encoding: 64291 64291 136
Width: 1789
GlyphClass: 1
Flags: W
HStem: 864 262<210.255 1436.52>
VStem: 160 199<15.8125 627.721> 160 170<370.885 627.721> 1438 192<57.7812 691.188>
AnchorPoint: "hoqa" -320 0.600006 basechar 0
AnchorPoint: "pg" 1600 0 basechar 0
AnchorPoint: "E1" 890 0 basechar 0
AnchorPoint: "H" 900 0 basechar 0
AnchorPoint: "W" 900 0 basechar 0
AnchorPoint: "N" 847 0 basechar 0
AnchorPoint: "Holam" 0 0 basechar 0
AnchorPoint: "R" 900 0 basechar 0
AnchorPoint: "D" 850 0 basechar 0
LayerCount: 2
Fore
SplineSet
1666 956 m 2x90
 1666 950 1666 944 1666 938 c 0
 1666 888 1658 878 1595 858 c 1
 1627 230 l 2
 1629 202 1630 180 1630 160 c 0
 1630 88 1610 74 1519 -4 c 0
 1490 -28 1472 -46 1460 -46 c 0
 1439 -46 1438 6 1438 148 c 2
 1438 770 l 2
 1438 854 1438 864 1343 864 c 0
 1338 864 1332 864 1326 864 c 2
 267 864 l 2
 259 864 l 0
 148 864 138 864 138 946 c 0
 138 951 138 957 138 963 c 2
 139 1112 l 1
 141 1163 153 1181 183 1198 c 1
 226 1143 269 1126 311 1126 c 2
 1504 1128 l 1
 1556 1130 1577 1150 1628 1178 c 0
 1629 1178 1631 1178 1632 1178 c 0
 1646 1178 1667 1136 1667 1104 c 2
 1666 956 l 2x90
160 94 m 1xd0
 160 446 l 1xd0
 162 584 164 586 231 660 c 1
 268 699 290 722 303 722 c 0
 322 722 325 679 330 576 c 1xb0
 356 204 l 1
 358 170 359 144 359 122 c 0
 359 45 342 35 272 -21 c 1
 229 -56 203 -77 188 -77 c 0
 163 -77 162 -28 160 94 c 1xd0
EndSplineSet
Validated: 1
EndChar

StartChar: khaf.wide
Encoding: 64292 64292 137
Width: 1560
GlyphClass: 1
Flags: W
VStem: 1344 139<368.362 705.944>
AnchorPoint: "hoqa" -320 0.600006 basechar 0
AnchorPoint: "E1" 850 0 basechar 0
AnchorPoint: "H" 800 0 basechar 0
AnchorPoint: "W" 800 0 basechar 0
AnchorPoint: "N" 778 0 basechar 0
AnchorPoint: "Holam" 0 0 basechar 0
AnchorPoint: "R" 800 30 basechar 0
AnchorPoint: "D" 800 0 basechar 0
LayerCount: 2
Fore
SplineSet
345 1178 m 2
 1269 1088 l 2
 1341 1081 1401 1070 1426 1002 c 1
 1426 1000 l 1
 1427 1002 l 1
 1461 859 1471 766 1477 613 c 0
 1480 521 1483 447 1483 380 c 0
 1483 257 1378 96 1254 61 c 1
 1252 61 l 1
 269 -34 l 2
 215 -40 176 -41 147 -44 c 0
 142 -45 138 -45 134 -45 c 0
 87 -45 84 -7 84 57 c 0
 84 67 84 77 84 88 c 0
 84 94 84 100 84 106 c 1
 85 235 83 245 221 259 c 2
 1188 346 l 2
 1317 357 1344 377 1344 446 c 0
 1344 463 1342 484 1340 509 c 1
 1328 590 1302 712 1273 792 c 1
 1251 838 779 849 644 865 c 2
 289 899 l 2
 177 910 164 917 164 1001 c 0
 164 1006 164 1012 164 1018 c 2
 173 1164 l 1
 175 1215 187 1233 217 1250 c 1
 260 1195 303 1182 345 1178 c 2
EndSplineSet
Validated: 1
EndChar

StartChar: lamed.wide
Encoding: 64293 64293 138
Width: 1650
GlyphClass: 1
Flags: W
HStem: 865 269<252.474 1310.47>
VStem: 13 246<1643.32 1830.03> 129 128<1134.9 1616.08> 1355 231<623 820.969>
AnchorPoint: "hoqa" -320 0.600006 basechar 0
AnchorPoint: "E1" 940 -50 basechar 0
AnchorPoint: "H" 956 -96 basechar 0
AnchorPoint: "W" 950 -120 basechar 0
AnchorPoint: "N" 942 -50 basechar 0
AnchorPoint: "Holam" -130 0 basechar 0
AnchorPoint: "D" 800 0 basechar 0
LayerCount: 2
Fore
SplineSet
330 1134 m 1xb0
 1366 1132 l 0
 1504 1132 1514 1110 1538 976 c 1
 1578 734 l 2
 1583 698 1586 669 1586 644 c 0
 1586 576 1425 448 1368 396 c 1
 1136 171 l 1
 1116 145 1109 120 1109 95 c 2
 1109 90 l 1
 1111 78 1113 70 1113 63 c 0
 1113 44 1104 36 1085 19 c 1
 854 -98 l 2
 822 -122 800 -135 788 -135 c 0
 777 -135 773 -126 773 -104 c 0
 773 -96 774 -85 775 -72 c 0
 779 -7 792 55 873 162 c 1
 1355 623 l 1
 1355 634 l 2
 1355 689 1342 744 1323 798 c 1
 1292 861 1276 865 1151 865 c 1
 274 865 l 1
 153 865 133 882 125 1041 c 1
 129 1468 l 1
 129 1484 l 2xb0
 129 1564 114 1593 59 1642 c 1
 19 1670 13 1712 13 1767 c 1
 16 1908 l 2
 17 1978 33 2009 52 2009 c 0
 69 2009 89 1983 101 1937 c 0
 110 1902 147 1878 169 1864 c 0
 246 1819 259 1776 259 1697 c 0xd0
 259 1672 258 1643 257 1609 c 2
 249 1236 l 1
 249 1146 249 1134 330 1134 c 1xb0
EndSplineSet
Validated: 1
EndChar

StartChar: finalmem.wide
Encoding: 64294 64294 139
Width: 1773
GlyphClass: 1
Flags: W
HStem: 0 259<340.514 1504.63> 865 264<362.855 1481.5>
VStem: 170 140<274.247 783.195> 1507 166<263.199 498.818>
AnchorPoint: "E1" 850 0 basechar 0
AnchorPoint: "H" 960 0 basechar 0
AnchorPoint: "W" 900 0 basechar 0
AnchorPoint: "N" 887 0 basechar 0
AnchorPoint: "Holam" 0 0 basechar 0
AnchorPoint: "D" 900 0 basechar 0
LayerCount: 2
Fore
SplineSet
174 1214 m 0
 234 1149 286 1129 380 1129 c 2
 1433 1128 l 1
 1595 1125 1623 1092 1637 899 c 1
 1673 234 l 1
 1673 229 l 2
 1673 72 1505 0 1364 0 c 2
 319 0 l 2
 211 0 166 28 165 154 c 1
 170 666 l 2
 171 712 190 761 251 830 c 0
 257 837 259 844 259 849 c 0
 259 884 135 848 133 904 c 1
 129 1109 l 1
 131 1145 149 1216 170 1216 c 0
 172 1216 171 1216 174 1214 c 0
1495 742 m 1
 1483 864 1479 864 1329 865 c 1
 442 865 l 1
 332 834 310 749 310 621 c 0
 310 612 310 603 311 594 c 2
 329 374 l 1
 343 265 343 259 434 259 c 2
 441 259 l 1
 1411 262 l 2
 1492 262 1507 262 1507 326 c 0
 1507 341 1508 360 1507 384 c 1
 1501 566 1503 536 1495 742 c 1
EndSplineSet
Validated: 1
EndChar

StartChar: resh.wide
Encoding: 64295 64295 140
Width: 1788
GlyphClass: 1
Flags: W
VStem: 1511 146<0.271336 279.372>
AnchorPoint: "hoqa" -320 0.600006 basechar 0
AnchorPoint: "E2" 1005 0 basechar 0
AnchorPoint: "E1" 1584 0 basechar 0
AnchorPoint: "H" 1584 0 basechar 0
AnchorPoint: "W" 1597 0 basechar 0
AnchorPoint: "N" 1600 0 basechar 0
AnchorPoint: "Holam" 0 0 basechar 0
AnchorPoint: "D" 900 0 basechar 0
LayerCount: 2
Fore
SplineSet
1472 717 m 1
 1465 819 1465 819 1355 833 c 1
 222 894 l 1
 123 908 121 908 121 990 c 1
 121 1122 l 1
 131 1167 146 1197 162 1224 c 1
 201 1181 239 1160 305 1142 c 1
 1562 1062 l 1
 1637 1049 1651 1029 1653 915 c 1
 1657 185 l 1
 1657 178 1657 171 1657 164 c 0
 1657 39 1647 28 1599 -12 c 1
 1562 -43 1542 -60 1530 -60 c 0
 1515 -60 1514 -34 1511 25 c 1
 1472 717 l 1
EndSplineSet
Validated: 1
EndChar

StartChar: tav.wide
Encoding: 64296 64296 141
Width: 1873
GlyphClass: 1
Flags: W
HStem: -25 21G<1618.48 1624.5> 867 274<476.831 1544.95>
VStem: 308 137<396.672 793.367>
AnchorPoint: "hoqa" -320 0.600006 basechar 0
AnchorPoint: "E1" 1000 0 basechar 0
AnchorPoint: "H" 1000 0 basechar 0
AnchorPoint: "W" 1000 0 basechar 0
AnchorPoint: "N" 1000 -1 basechar 0
AnchorPoint: "Holam" 100 5 basechar 0
AnchorPoint: "R" 1000 0 basechar 0
AnchorPoint: "D" 1000 0 basechar 0
LayerCount: 2
Fore
SplineSet
308 408 m 0
 308 454 308 625 308 654 c 0
 308 700 360 794 360 828 c 0
 360 847 350 860 316 880 c 0
 274 905 270 902 270 956 c 2
 270 1101 l 1
 316 1216 l 1
 346 1149 390 1141 446 1141 c 2
 1550 1136 l 2
 1733 1136 1731 1121 1733 895 c 2
 1740 132 l 2
 1740 60 1731 51 1682 3 c 0
 1664 -15 1629 -25 1620 -25 c 1
 1565 697 l 1
 1551 841 1551 862 1449 862 c 2
 557 867 l 1
 484 864 472 833 451 735 c 0
 448 721 445 701 445 685 c 0
 445 449 543 290 543 138 c 0
 543 91 519 82 450 58 c 2
 116 -57 l 1
 77 -57 70 -15 70 70 c 0
 70 200 76 200 200 240 c 0
 290 269 308 275 308 336 c 0
 308 362 308 384 308 408 c 0
EndSplineSet
Validated: 1
EndChar

StartChar: hebrewplussign
Encoding: 64297 64297 142
Width: 1106
VWidth: 1998
GlyphClass: 1
Flags: W
HStem: 428 219<99 469 688 1056>
VStem: 469 219<647 1018>
LayerCount: 2
Fore
SplineSet
99 428 m 1
 99 647 l 1
 469 647 l 1
 469 1018 l 1
 688 1018 l 1
 688 647 l 1
 1056 647 l 1
 1056 428 l 1
 99 428 l 1
EndSplineSet
Validated: 1
EndChar

StartChar: aleflamed
Encoding: 64335 64335 144
Width: 1335
GlyphClass: 2
Flags: W
HStem: -9 21G<1152 1179.5> 821 343<950.824 1080.91>
VStem: 13 246<1653.32 1840.03> 129 120<1096.01 1626.08>
AnchorPoint: "H" 700 0 basechar 0
AnchorPoint: "W" 760 0 basechar 0
AnchorPoint: "N" 748 0 basechar 0
AnchorPoint: "Holam" -130 0 basechar 0
AnchorPoint: "D" 355 -170 basechar 0
LayerCount: 2
Fore
SplineSet
129 988 m 1xd0
 129 1478 l 1
 129 1494 l 2xd0
 129 1574 114 1603 59 1652 c 1
 19 1680 13 1722 13 1777 c 1
 16 1918 l 2
 17 1988 33 2019 52 2019 c 0
 69 2019 89 1993 101 1947 c 0
 110 1912 147 1888 169 1874 c 0
 246 1829 259 1786 259 1707 c 0xe0
 259 1682 258 1653 257 1619 c 2
 249 1246 l 1
 249 1156 258 1125 291 1096 c 2
 607 818 l 1
 653 776 678 754 698 754 c 0
 721 754 740 781 776 840 c 2
 909 1058 l 1
 956 1130 978 1164 1009 1164 c 0
 1035 1164 1066 1139 1123 1092 c 0
 1205 1024 1216 1011 1216 930 c 0
 1216 918 1215 905 1215 890 c 0
 1215 867 1216 846 1216 828 c 0
 1216 762 1210 732 1182 732 c 0
 1159 732 1121 755 1055 790 c 0
 1016 811 992 821 973 821 c 0
 947 821 929 800 890 750 c 0
 858 708 841 683 841 661 c 0
 841 637 863 617 907 576 c 2
 1057 434 l 1
 1181 320 1195 304 1195 190 c 0
 1195 175 1195 160 1195 145 c 0
 1195 65 1193 -9 1166 -9 c 0
 1138 -9 1087 43 979 136 c 2
 201 806 l 1
 131 852 129 845 129 988 c 1xd0
EndSplineSet
Validated: 1
Ligature2: "ccmpAlefLamedLigature subtable" alef zerojoin lamed
LCarets2: 2 0 0 
EndChar

StartChar: lowerdot
Encoding: 1477 1477 145
Width: 0
VWidth: 2273
GlyphClass: 4
Flags: W
HStem: 138 40<-189 189> 602 47<-70.8391 13.6032> 718 47<-189 189>
VStem: -232 43<178 718> -34 50<288.969 350.812> 38 67<470.32 587.792> 189 43<178 718>
LayerCount: 2
Fore
SplineSet
-28 332 m 10
 0 360 l 18
 8 367 16 367 16 354 c 10
 16 324 l 18
 16 316 12 312 6 305 c 10
 -19 278 l 17
 -26 272 -34 274 -34 288 c 10
 -34 314 l 18
 -34 322 -33 326 -28 332 c 10
-30 403 m 0
 -30 429 38 468 38 510 c 0
 38 566 4 602 -34 602 c 0
 -75 602 -75 581 -86 581 c 0
 -92 581 -100 585 -100 590 c 0
 -100 592 -71 649 -5 649 c 3
 52 649 105 612 105 552 c 0
 105 478 43 453 15 404 c 0
 13 402 12 401 10 401 c 0
 6 400 -6 399 -16 399 c 0
 -24 399 -30 400 -30 403 c 0
-189 718 m 1
 -189 178 l 1
 189 178 l 1
 189 718 l 1
 -189 718 l 1
-232 765 m 1
 232 765 l 1
 232 138 l 1
 -232 138 l 1
 -232 765 l 1
EndSplineSet
Validated: 1
Substitution2: "ccmpChangeCantillationsToCircle subtable" dottedcircle
EndChar

StartChar: nunhapukha
Encoding: 1478 1478 146
Width: 824
GlyphClass: 1
Flags: W
HStem: -23 299<471.284 713.75>
VStem: 100 557<873.851 1042.3> 211 172<281.084 540.484>
LayerCount: 2
Fore
SplineSet
100 880 m 0xc0
 100 1012 105 1038 211 1071 c 1xa0
 279 1085 350 1090 423 1115 c 1
 498 1135 543 1187 599 1228 c 1
 604 1233 609 1236 613 1236 c 0
 638 1236 657 1167 657 1121 c 2
 657 988 l 2xc0
 657 884 650 884 530 843 c 1
 432 808 426 802 412 676 c 2
 383 408 l 1
 383 370 l 2
 383 287 390 276 508 276 c 1
 609 268 l 1
 723 256 724 252 724 124 c 0
 724 6 721 -23 651 -23 c 0
 629 -23 599 -20 561 -16 c 1
 367 8 l 1
 214 34 211 28 211 166 c 2
 211 722 l 2xa0
 211 780 209 799 176 799 c 0
 168 799 158 798 146 796 c 1
 138 789 131 786 125 786 c 0
 109 786 100 812 100 880 c 0xc0
EndSplineSet
Validated: 1
EndChar

StartChar: qamatsqatan
Encoding: 1479 1479 147
Width: 0
GlyphClass: 4
Flags: W
HStem: -304 162<-174.976 -44 44 173.916>
VStem: -44 88<-498.062 -304>
AnchorPoint: "m2m1" -250 0 basemark 0
AnchorPoint: "W" 0 0 mark 0
LayerCount: 2
Fore
SplineSet
44 -304 m 1
 44 -356 l 2
 44 -363 50 -430 54 -434 c 2
 96 -515 l 1
 85 -544 71 -582 28 -607 c 1
 23 -607 l 2
 11 -607 2 -608 0 -608 c 0
 -2 -608 -14 -607 -23 -607 c 2
 -28 -607 l 1
 -67 -584 -83 -550 -97 -516 c 1
 -54 -434 l 1
 -50 -429 -44 -362 -44 -356 c 2
 -44 -304 l 1
 -129 -304 l 2
 -170 -304 -175 -302 -175 -255 c 1
 -175 -252 -175 -191 -175 -188 c 1
 -175 -143 -167 -142 -126 -142 c 2
 126 -142 l 2
 167 -142 174 -143 174 -188 c 1
 174 -191 175 -252 175 -255 c 1
 175 -302 171 -304 130 -304 c 2
 44 -304 l 1
EndSplineSet
Ligature2: "ccmpRemoveCircles subtable" qamatsqatan dottedcircle
Ligature2: "ccmpRemoveCircles subtable" dottedcircle qamatsqatan
LCarets2: 1 0 
EndChar

StartChar: atnahhafukh
Encoding: 1442 1442 149
Width: 0
VWidth: 2273
GlyphClass: 4
Flags: W
HStem: 138 40<-189 189> 602 47<-70.8391 13.6032> 718 47<-189 189>
VStem: -232 43<178 718> -34 50<288.969 350.812> 38 67<470.32 587.792> 189 43<178 718>
LayerCount: 2
Fore
SplineSet
-28 332 m 10
 0 360 l 18
 8 367 16 367 16 354 c 10
 16 324 l 18
 16 316 12 312 6 305 c 10
 -19 278 l 17
 -26 272 -34 274 -34 288 c 10
 -34 314 l 18
 -34 322 -33 326 -28 332 c 10
-30 403 m 0
 -30 429 38 468 38 510 c 0
 38 566 4 602 -34 602 c 0
 -75 602 -75 581 -86 581 c 0
 -92 581 -100 585 -100 590 c 0
 -100 592 -71 649 -5 649 c 3
 52 649 105 612 105 552 c 0
 105 478 43 453 15 404 c 0
 13 402 12 401 10 401 c 0
 6 400 -6 399 -16 399 c 0
 -24 399 -30 400 -30 403 c 0
-189 718 m 1
 -189 178 l 1
 189 178 l 1
 189 718 l 1
 -189 718 l 1
-232 765 m 1
 232 765 l 1
 232 138 l 1
 -232 138 l 1
 -232 765 l 1
EndSplineSet
Validated: 1
Substitution2: "ccmpChangeCantillationsToCircle subtable" dottedcircle
EndChar

StartChar: .null
Encoding: 0 0 150
Width: 1128
VWidth: 2273
GlyphClass: 1
Flags: W
HStem: -64 138<186 942> 124 192<427.175 608.825> 868 107<451.32 606.137> 1035 154<186 942>
VStem: 40 146<74 1035> 287 210<700.438 845.45> 410 216<143.439 297.284> 461 119<341 508.111> 619 191<656.8 855.113> 942 147<74 1035>
LayerCount: 2
Fore
SplineSet
40 -64 m 1xf840
 40 1189 l 1
 1089 1189 l 1
 1089 -64 l 1
 40 -64 l 1xf840
942 1035 m 1
 186 1035 l 1
 186 74 l 1
 942 74 l 1
 942 1035 l 1
518 316 m 0
 577 316 626 274 626 221 c 0
 626 168 578 124 518 124 c 0
 459 124 410 168 410 221 c 0xfa40
 410 274 459 316 518 316 c 0
497 773 m 0xfcc0
 497 721 450 679 397 679 c 0
 331 679 287 730 287 790 c 0xfcc0
 287 901 404 975 550 975 c 0
 702 975 810 890 810 762 c 0
 810 673 771 629 657 538 c 1
 595 491 580 472 580 381 c 2
 580 341 l 1
 461 341 l 1
 461 406 l 2xf9c0
 461 624 619 625 619 769 c 0
 619 818 599 868 519 868 c 0
 477 868 457 855 449 848 c 1
 455 843 497 812 497 773 c 0xfcc0
EndSplineSet
Validated: 1
Substitution2: "ccmpZwjZwnjOOLinuxBug" zerojoin
EndChar

StartChar: zerojoin
Encoding: 8205 8205 154
Width: 0
VWidth: 0
GlyphClass: 1
Flags: W
HStem: 1584 56<-124 124>
VStem: -204 408<1468 1524>
LayerCount: 2
Fore
SplineSet
-124 1584 m 25
 -204 1524 l 25
 -204 1640 l 25
 204 1640 l 25
 204 1524 l 25
 124 1584 l 25
 -124 1584 l 25
EndSplineSet
Validated: 1
EndChar

StartChar: dottedcircle
Encoding: 9676 9676 156
Width: 1329
GlyphClass: 1
Flags: W
HStem: -4 193<580.507 748.452> 56 193<346.507 514.452 814.507 982.452> 230 193<172.507 340.452 988.507 1156.45> 464 193<112.507 280.452 1048.51 1216.45> 698 193<172.507 340.452 988.507 1156.45> 872 193<346.507 514.452 814.507 982.452> 932 193<580.507 748.452>
VStem: 100 193<476.507 644.22> 160 193<242.507 410.22 710.507 878.22> 334 193<68.5069 236.22 884.507 1052.22> 568 193<8.50693 176.22 944.507 1112.22> 802 193<68.5069 236.22 884.507 1052.22> 976 193<242.507 410.22 710.507 878.22> 1036 193<476.507 644.22>
LayerCount: 2
Fore
SplineSet
100 560 m 0x1120
 100 619 137 657 196 657 c 0
 256 657 293 620 293 560 c 0
 293 501 256 464 196 464 c 0
 137 464 100 501 100 560 c 0x1120
1036 560 m 0x1024
 1036 619 1073 657 1132 657 c 0
 1192 657 1229 620 1229 560 c 0
 1229 501 1192 464 1132 464 c 0
 1073 464 1036 501 1036 560 c 0x1024
568 1028 m 0
 568 1087 605 1125 664 1125 c 0
 724 1125 761 1088 761 1028 c 0
 761 969 724 932 664 932 c 0x1220
 605 932 568 969 568 1028 c 0
568 92 m 0
 568 151 605 189 664 189 c 0
 724 189 761 152 761 92 c 0
 761 33 724 -4 664 -4 c 0x9020
 605 -4 568 33 568 92 c 0
976 794 m 0x1828
 976 853 1013 891 1072 891 c 0
 1132 891 1169 854 1169 794 c 0
 1169 735 1132 698 1072 698 c 0
 1013 698 976 735 976 794 c 0x1828
976 326 m 0
 976 385 1013 423 1072 423 c 0
 1132 423 1169 386 1169 326 c 0
 1169 267 1132 230 1072 230 c 0x3028
 1013 230 976 267 976 326 c 0
160 794 m 0x18a0
 160 853 197 891 256 891 c 0
 316 891 353 854 353 794 c 0
 353 735 316 698 256 698 c 0
 197 698 160 735 160 794 c 0x18a0
160 326 m 0
 160 385 197 423 256 423 c 0
 316 423 353 386 353 326 c 0
 353 267 316 230 256 230 c 0x30a0
 197 230 160 267 160 326 c 0
334 968 m 0x1460
 334 1027 371 1065 430 1065 c 0
 490 1065 527 1028 527 968 c 0
 527 909 490 872 430 872 c 0
 371 872 334 909 334 968 c 0x1460
802 968 m 0x1430
 802 1027 839 1065 898 1065 c 0
 958 1065 995 1028 995 968 c 0
 995 909 958 872 898 872 c 0
 839 872 802 909 802 968 c 0x1430
334 152 m 0x5060
 334 211 371 249 430 249 c 0
 490 249 527 212 527 152 c 0
 527 93 490 56 430 56 c 0
 371 56 334 93 334 152 c 0x5060
802 152 m 0x5030
 802 211 839 249 898 249 c 0
 958 249 995 212 995 152 c 0
 995 93 958 56 898 56 c 0
 839 56 802 93 802 152 c 0x5030
EndSplineSet
Validated: 1
Substitution2: "ccmpChangeCirclesToZWS subtable" zerowidthspace
EndChar

StartChar: Euro
Encoding: 8364 8364 189
Width: 1060
GlyphClass: 1
Flags: W
HStem: -18 110<529.453 817.068> 408 79<51 173 368 729> 617 79<51 173 354 779> 1086 71<521.432 746.827>
VStem: 173 175<487 617 696 828.043> 185 183<281.617 408> 749 206<923.833 1075.76>
LayerCount: 2
Fore
SplineSet
952 108 m 1xf6
 873 38 741 -18 609 -18 c 0
 552 -18 495 -8 442 17 c 0
 298 84 216 229 185 408 c 1xf6
 51 408 l 1
 51 487 l 1
 173 487 l 1
 173 497 173 507 173 518 c 2
 173 548 l 1
 173 617 l 1xfa
 51 617 l 1
 51 696 l 1
 185 696 l 1xf6
 217 895 304 1049 464 1122 c 0
 516 1146 581 1157 647 1157 c 0
 760 1157 874 1124 924 1065 c 0
 944 1041 955 1012 955 976 c 0
 955 924 917 890 868 890 c 0
 791 890 749 967 749 1057 c 1
 716 1076 677 1086 638 1086 c 0
 598 1086 558 1076 526 1055 c 0
 421 989 372 852 354 696 c 1
 779 696 l 1
 779 617 l 1
 348 617 l 1
 348 586 l 2xfa
 348 552 350 519 354 487 c 1
 729 487 l 1
 729 408 l 1
 368 408 l 1
 411 242 491 92 690 92 c 0
 787 92 860 122 937 160 c 1
 942 153 947 144 952 134 c 1
 952 108 l 1xf6
EndSplineSet
Validated: 1
EndChar

StartChar: uni02C2
Encoding: 706 706 190
Width: 0
VWidth: 2273
GlyphClass: 3
Flags: W
HStem: 1358 414
VStem: -173 345
AnchorPoint: "E2" 0 0 mark 0
AnchorPoint: "E1" 0 10 mark 0
LayerCount: 2
Fore
SplineSet
58 1750 m 2
 71 1760 85 1775 109 1772 c 0
 133 1768 141 1749 151 1734 c 0
 161 1720 176 1707 172 1684 c 0
 168 1660 150 1653 136 1643 c 2
 38 1574 l 2
 33 1570 29 1567 26 1565 c 1
 30 1562 33 1560 38 1557 c 2
 130 1492 l 2
 150 1478 170 1464 170 1439 c 0
 170 1419 159 1406 148 1391 c 0
 140 1379 133 1362 110 1358 c 0
 86 1354 73 1369 58 1380 c 2
 -121 1506 l 2
 -144 1522 -173 1533 -173 1564 c 0
 -173 1595 -144 1607 -120 1624 c 2
 58 1750 l 2
EndSplineSet
Validated: 1
EndChar

StartChar: linevertsub
Encoding: 716 716 191
Width: 0
GlyphClass: 3
Flags: W
HStem: -590 433<-68.8828 68.9176>
VStem: -69 138<-590 -158.007>
AnchorPoint: "m2m1" 65 0 mark 0
AnchorPoint: "E1" 0 0 mark 0
LayerCount: 2
Fore
SplineSet
69 -533 m 2
 69 -583 67 -590 27 -590 c 1
 25 -590 -27 -590 -30 -590 c 1
 -68 -590 -69 -579 -69 -529 c 2
 -69 -218 l 2
 -69 -167 -68 -158 -30 -158 c 1
 -27 -158 25 -157 27 -157 c 1
 67 -157 69 -162 69 -213 c 2
 69 -533 l 2
EndSplineSet
EndChar

StartChar: A
Encoding: 65 65 192
Width: 1658
VWidth: 1900
Flags: W
HStem: 0 104<65 185.022 454.626 614 910 1052.98 1438.25 1577> 414 128<534 910> 1380 20G<757.44 918.302>
LayerCount: 2
Fore
SplineSet
766 1400 m 1
 910 1400 l 1
 1399 222 l 2
 1439 125 1469 103 1577 103 c 1
 1577 0 l 1
 910 0 l 1
 910 104 l 1
 943 104 l 1
 1029 104 1053 116 1053 150 c 0
 1053 165 1045 194 1030 228 c 2
 958 414 l 1
 485 414 l 1
 454 342 l 2
 429 287 424 266 424 234 c 0
 424 147 477 103 614 103 c 1
 614 0 l 1
 65 0 l 1
 65 103 l 1
 177 103 248 188 335 393 c 2
 766 1400 l 1
726 996 m 1
 534 542 l 1
 910 542 l 1
 726 996 l 1
EndSplineSet
Validated: 1
EndChar

StartChar: B
Encoding: 66 66 193
Width: 1496
VWidth: 1900
Flags: W
HStem: 0 103<88 282.057 631.604 982.292> 652 104<628 937.62> 1269 103<88 272.186 651.897 960.27>
VStem: 286 342<113.063 652 756 1242.21> 1048 344<883.639 1183.01> 1092 362<214.957 519.159>
LayerCount: 2
Fore
SplineSet
88 1372 m 1xf4
 822 1372 l 2
 1048 1372 1138 1357 1242 1296 c 1
 1335 1245 1392 1144 1392 1036 c 0xf8
 1392 922 1331 830 1217 775 c 0
 1164 750 1110 737 1017 722 c 1
 1116 709 1173 693 1238 663 c 0
 1379 600 1454 492 1454 359 c 0
 1454 232 1375 112 1253 57 c 1
 1156 15 1056 0 858 0 c 2
 88 0 l 1
 88 103 l 1
 117 103 l 2
 216 103 256 110 273 131 c 0
 286 146 286 154 286 274 c 2
 286 1098 l 2
 286 1220 286 1226 273 1243 c 0
 256 1262 216 1269 117 1269 c 2
 88 1269 l 1
 88 1372 l 1xf4
628 756 m 1
 721 756 l 2
 839 756 904 771 955 813 c 0
 1016 861 1048 935 1048 1028 c 0
 1048 1186 958 1269 791 1269 c 2
 734 1269 l 2
 698 1269 670 1261 651 1244 c 0
 632 1229 628 1214 628 1159 c 2
 628 756 l 1
628 652 m 1
 628 224 l 2
 628 161 628 156 634 141 c 0
 645 114 678 103 744 103 c 2
 801 103 l 2
 892 103 954 120 1002 160 c 0
 1057 206 1092 289 1092 380 c 0xf4
 1092 479 1052 562 987 606 c 0
 934 640 879 652 759 652 c 2
 628 652 l 1
EndSplineSet
Validated: 1
EndChar

StartChar: C
Encoding: 67 67 194
Width: 1429
VWidth: 1900
Flags: W
HStem: -28 117<648.596 1013.82> 1302 98<647.958 980.56>
VStem: 70 378<401.645 931.565> 1238 82<849 961.713> 1250 118<357.431 478.523>
LayerCount: 2
Fore
SplineSet
1320 1393 m 1xf0
 1320 849 l 1
 1238 838 l 1xf0
 1152 1155 1014 1302 803 1302 c 0
 569 1302 448 1096 448 703 c 0
 448 285 570 89 828 89 c 0
 1046 89 1199 240 1250 504 c 1
 1368 475 l 1xe8
 1296 135 1101 -28 765 -28 c 0
 543 -28 381 36 250 180 c 0
 128 315 70 471 70 669 c 0
 70 1095 370 1400 788 1400 c 0
 923 1400 1011 1378 1136 1302 c 1
 1238 1393 l 1
 1320 1393 l 1xf0
EndSplineSet
Validated: 1
EndChar

StartChar: D
Encoding: 68 68 195
Width: 1632
VWidth: 1900
Flags: W
HStem: 0 103<88 281.31 637.516 978.243> 1269 103<88 281.31 637.019 979.655>
VStem: 286 342<113.114 1259.02> 1181 378<419.844 975.644>
LayerCount: 2
Fore
SplineSet
286 274 m 2
 286 1098 l 2
 286 1218 285 1226 272 1241 c 0
 255 1262 216 1269 117 1269 c 2
 88 1269 l 1
 88 1372 l 1
 764 1372 l 2
 1032 1372 1173 1345 1287 1269 c 0
 1466 1153 1559 956 1559 701 c 0
 1559 441 1465 234 1296 116 c 0
 1178 34 1026 0 787 0 c 2
 88 0 l 1
 88 103 l 1
 117 103 l 2
 216 103 255 110 272 131 c 0
 285 146 286 154 286 274 c 2
742 103 m 2
 782 103 l 2
 909 103 1021 150 1078 232 c 1
 1141 318 1181 502 1181 705 c 0
 1181 1085 1053 1269 789 1269 c 2
 742 1269 l 2
 651 1269 628 1246 628 1155 c 2
 628 226 l 2
 628 125 649 103 742 103 c 2
EndSplineSet
Validated: 1
EndChar

StartChar: E
Encoding: 69 69 196
Width: 1521
VWidth: 1900
Flags: W
HStem: 0 103<88 282.057 659.08 1053.13> 657 105<628 807.247> 878 21G<1262 1363> 1269 103<88 282.057 645.626 1049.08>
VStem: 286 342<130.077 657 762 1248.23> 922 103<388 533.643 886.104 1032> 1276 87<878 1002.79> 1301 100<389.123 511>
LayerCount: 2
Fore
SplineSet
1363 1372 m 1xfe
 1363 878 l 1
 1276 878 l 1xfe
 1248 977 1206 1072 1166 1129 c 0
 1101 1218 986 1269 845 1269 c 2
 791 1269 l 2
 713 1269 668 1255 647 1227 c 0
 632 1204 628 1184 628 1106 c 2
 628 762 l 1
 660 762 l 2
 808 762 901 857 922 1032 c 1
 1025 1032 l 1
 1025 388 l 1
 922 388 l 1
 901 563 808 657 660 657 c 2
 628 657 l 1
 628 236 l 2
 628 173 633 152 658 129 c 0
 681 106 706 103 799 103 c 2
 856 103 l 2
 1086 103 1221 226 1301 511 c 1
 1401 511 l 1
 1401 0 l 1xfd
 88 0 l 1
 88 103 l 1
 117 103 l 2
 216 103 256 110 273 131 c 0
 286 146 286 154 286 274 c 2
 286 1098 l 2
 286 1218 286 1226 273 1241 c 0
 256 1262 216 1269 117 1269 c 2
 88 1269 l 1
 88 1372 l 1
 1363 1372 l 1xfe
EndSplineSet
Validated: 1
EndChar

StartChar: F
Encoding: 70 70 197
Width: 1450
VWidth: 1900
Flags: W
HStem: 0 103<88 281.057 631.69 848> 657 105<627 808.118> 878 21G<1244 1346> 1269 103<88 281.057 644.626 1031.08>
VStem: 285 342<112.912 657 762 1248.23> 922 102<388 533.643 885.215 1032> 1258 88<878 1004.27>
LayerCount: 2
Fore
SplineSet
1346 1372 m 1
 1346 878 l 1
 1258 878 l 1
 1230 979 1188 1074 1148 1129 c 0
 1083 1218 968 1269 827 1269 c 2
 791 1269 l 2
 713 1269 667 1255 646 1227 c 0
 631 1204 627 1184 627 1106 c 2
 627 762 l 1
 660 762 l 2
 810 762 901 855 922 1032 c 1
 1024 1032 l 1
 1024 388 l 1
 922 388 l 1
 901 563 810 657 660 657 c 2
 627 657 l 1
 627 274 l 2
 627 154 628 146 641 131 c 0
 658 110 697 103 798 103 c 2
 848 103 l 1
 848 0 l 1
 88 0 l 1
 88 103 l 1
 116 103 l 2
 215 103 255 110 272 131 c 0
 285 146 285 154 285 274 c 2
 285 1098 l 2
 285 1218 285 1226 272 1241 c 0
 255 1262 215 1269 116 1269 c 2
 88 1269 l 1
 88 1372 l 1
 1346 1372 l 1
EndSplineSet
Validated: 1
EndChar

StartChar: G
Encoding: 71 71 198
Width: 1584
VWidth: 1900
Flags: W
HStem: -28 98<638.356 944.64> 536 102<875 1060.11 1393.81 1549> 1302 98<664.803 1011.94>
VStem: 71 380<397.279 939.578> 1069 311<192.998 508.301> 1279 84<847 984.897>
LayerCount: 2
Fore
SplineSet
1363 1393 m 1xf4
 1363 847 l 1
 1279 847 l 1xf4
 1216 1136 1051 1302 827 1302 c 0
 715 1302 614 1248 559 1159 c 0
 489 1045 451 877 451 676 c 0
 451 497 478 344 529 234 c 0
 577 131 671 70 787 70 c 0
 956 70 1069 186 1069 365 c 2
 1069 391 l 2
 1069 530 1061 536 896 536 c 2
 875 536 l 1
 875 638 l 1
 1549 638 l 1
 1549 536 l 1
 1441 536 1410 528 1393 509 c 0
 1380 494 1380 485 1380 365 c 2
 1380 -28 l 1xf8
 1279 -28 l 1
 1186 160 l 1
 1131 103 1101 77 1053 49 c 0
 966 0 850 -28 734 -28 c 0
 341 -28 71 255 71 665 c 0
 71 874 130 1033 259 1170 c 1
 400 1322 587 1400 805 1400 c 0
 942 1400 1034 1374 1167 1298 c 1
 1279 1393 l 1
 1363 1393 l 1xf4
EndSplineSet
Validated: 1
EndChar

StartChar: H
Encoding: 72 72 199
Width: 1766
VWidth: 1900
Flags: W
HStem: 0 103<88 281.31 631.943 827 926 1119.31 1469.94 1665> 644 114<628 1124> 1269 103<88 281.31 631.943 827 926 1119.01 1469.94 1665>
VStem: 286 342<112.912 644 758 1259.09> 1124 342<112.912 644 758 1259.09>
LayerCount: 2
Fore
SplineSet
1124 644 m 1
 628 644 l 1
 628 274 l 2
 628 152 628 146 641 131 c 0
 658 110 700 103 799 103 c 2
 827 103 l 1
 827 0 l 1
 88 0 l 1
 88 103 l 1
 116 103 l 2
 215 103 255 110 272 131 c 0
 285 146 286 154 286 274 c 2
 286 1096 l 2
 286 1218 285 1226 272 1241 c 0
 255 1262 215 1269 116 1269 c 2
 88 1269 l 1
 88 1372 l 1
 827 1372 l 1
 827 1269 l 1
 799 1269 l 2
 700 1269 658 1262 641 1241 c 0
 628 1226 628 1218 628 1096 c 2
 628 758 l 1
 1124 758 l 1
 1124 1096 l 2
 1124 1216 1123 1226 1110 1241 c 0
 1093 1262 1053 1269 954 1269 c 2
 926 1269 l 1
 926 1372 l 1
 1665 1372 l 1
 1665 1269 l 1
 1636 1269 l 2
 1537 1269 1496 1262 1479 1241 c 0
 1466 1226 1466 1218 1466 1096 c 2
 1466 274 l 2
 1466 152 1466 146 1479 131 c 0
 1496 110 1537 103 1636 103 c 2
 1665 103 l 1
 1665 0 l 1
 926 0 l 1
 926 103 l 1
 954 103 l 2
 1053 103 1093 110 1110 131 c 0
 1123 146 1124 154 1124 274 c 2
 1124 644 l 1
EndSplineSet
Validated: 1
EndChar

StartChar: I
Encoding: 73 73 200
Width: 928
VWidth: 1900
Flags: W
HStem: 0 103<88 282.057 631.943 827> 1269 103<88 282.057 631.943 827>
VStem: 286 342<112.912 1259.09>
LayerCount: 2
Fore
SplineSet
286 274 m 2
 286 1098 l 2
 286 1218 286 1226 273 1241 c 0
 256 1262 216 1269 117 1269 c 2
 88 1269 l 1
 88 1372 l 1
 827 1372 l 1
 827 1269 l 1
 799 1269 l 2
 700 1269 658 1262 641 1241 c 0
 628 1226 628 1220 628 1098 c 2
 628 274 l 2
 628 152 628 146 641 131 c 0
 658 110 700 103 799 103 c 2
 827 103 l 1
 827 0 l 1
 88 0 l 1
 88 103 l 1
 117 103 l 2
 216 103 256 110 273 131 c 0
 286 146 286 154 286 274 c 2
EndSplineSet
Validated: 1
EndChar

StartChar: J
Encoding: 74 74 201
Width: 1331
VWidth: 1900
Flags: W
HStem: -28 115<278.141 596.39> 255 372<214.424 422.063> 1269 103<527 720.31 1070.94 1266>
VStem: 60 152<165.023 427.5> 725 342<247.229 1259.09>
LayerCount: 2
Fore
SplineSet
1067 1098 m 2
 1067 532 l 2
 1067 306 1019 182 899 87 c 0
 802 9 675 -28 519 -28 c 0
 234 -28 60 114 60 346 c 0
 60 509 158 627 295 627 c 0
 409 627 491 545 491 433 c 0
 491 330 417 255 316 255 c 0
 301 255 287 256 270 260 c 0
 260 262 254 264 248 264 c 0
 227 264 212 249 212 228 c 0
 212 154 318 87 436 87 c 0
 535 87 625 132 673 200 c 0
 711 257 725 329 725 466 c 2
 725 1098 l 2
 725 1220 724 1226 711 1241 c 0
 694 1262 655 1269 556 1269 c 2
 527 1269 l 1
 527 1372 l 1
 1266 1372 l 1
 1266 1269 l 1
 1238 1269 l 2
 1139 1269 1097 1262 1080 1241 c 0
 1067 1226 1067 1220 1067 1098 c 2
EndSplineSet
Validated: 1
EndChar

StartChar: K
Encoding: 75 75 202
Width: 1700
VWidth: 1900
Flags: W
HStem: 0 103<88 282.057 631.943 828 923 1075.97 1486.31 1614> 1269 103<88 282.057 631.943 828 923 1105.77 1396.24 1563>
VStem: 286 342<112.912 475 654 1259.09>
LayerCount: 2
Fore
SplineSet
788 642 m 1
 628 475 l 1
 628 274 l 2
 628 154 628 146 641 131 c 0
 658 110 700 103 799 103 c 2
 828 103 l 1
 828 0 l 1
 88 0 l 1
 88 103 l 1
 117 103 l 2
 216 103 256 110 273 131 c 0
 286 146 286 154 286 274 c 2
 286 1098 l 2
 286 1218 286 1226 273 1241 c 0
 256 1262 216 1269 117 1269 c 2
 88 1269 l 1
 88 1372 l 1
 828 1372 l 1
 828 1269 l 1
 799 1269 l 2
 700 1269 658 1262 641 1241 c 0
 628 1226 628 1218 628 1098 c 2
 628 654 l 1
 1048 1098 l 2
 1082 1136 1111 1182 1111 1203 c 0
 1111 1247 1061 1269 968 1269 c 2
 923 1269 l 1
 923 1372 l 1
 1563 1372 l 1
 1563 1269 l 1
 1438 1269 1342 1207 1177 1045 c 1
 1020 880 l 1
 1415 249 l 2
 1502 112 1510 103 1614 103 c 1
 1614 0 l 1
 923 0 l 1
 923 103 l 1
 947 103 l 2
 1034 103 1076 116 1076 146 c 0
 1076 163 1069 180 1054 207 c 2
 788 642 l 1
EndSplineSet
Validated: 1
EndChar

StartChar: L
Encoding: 76 76 203
Width: 1496
VWidth: 1900
Flags: W
HStem: 0 103<88 281.31 659.08 1035.77> 1269 103<88 281.31 631.943 840>
VStem: 286 342<130.077 1259.09> 1283 101<381.512 511>
LayerCount: 2
Fore
SplineSet
1283 511 m 1
 1384 511 l 1
 1384 0 l 1
 88 0 l 1
 88 103 l 1
 117 103 l 2
 216 103 255 110 272 131 c 0
 285 146 286 154 286 276 c 2
 286 1098 l 2
 286 1218 285 1226 272 1241 c 0
 255 1262 216 1269 117 1269 c 2
 88 1269 l 1
 88 1372 l 1
 840 1372 l 1
 840 1269 l 1
 799 1269 l 2
 698 1269 658 1262 641 1241 c 0
 628 1226 628 1218 628 1098 c 2
 628 236 l 2
 628 173 633 152 658 129 c 0
 681 106 706 103 799 103 c 2
 839 103 l 2
 974 103 1082 152 1160 245 c 0
 1211 308 1245 380 1283 511 c 1
EndSplineSet
Validated: 1
EndChar

StartChar: M
Encoding: 77 77 204
Width: 2000
VWidth: 1900
Flags: W
HStem: 0 103<82 230.566 471.47 624 1173 1360.31 1711.22 1899> 1269 103<95 283.057 1711.22 1899>
VStem: 287 128<159.964 1201.15> 1365 342<112.912 1221.52>
LayerCount: 2
Fore
SplineSet
707 1372 m 1
 1002 555 l 1
 1279 1372 l 1
 1899 1372 l 1
 1899 1269 l 1
 1878 1269 l 2
 1777 1269 1737 1262 1720 1241 c 0
 1707 1226 1707 1216 1707 1098 c 2
 1707 274 l 2
 1707 156 1707 146 1720 131 c 0
 1737 110 1777 103 1878 103 c 2
 1899 103 l 1
 1899 0 l 1
 1173 0 l 1
 1173 103 l 1
 1194 103 l 2
 1295 103 1334 110 1351 131 c 0
 1364 146 1365 154 1365 274 c 2
 1365 1222 l 1
 945 0 l 1
 846 0 l 1
 415 1203 l 1
 415 412 l 2
 415 243 424 196 464 154 c 0
 494 122 548 103 624 103 c 1
 624 0 l 1
 82 0 l 1
 82 103 l 1
 156 103 208 122 238 154 c 0
 278 196 287 245 287 412 c 2
 287 1098 l 2
 287 1218 287 1226 274 1241 c 0
 257 1262 217 1269 116 1269 c 2
 95 1269 l 1
 95 1372 l 1
 707 1372 l 1
EndSplineSet
Validated: 1
EndChar

StartChar: N
Encoding: 78 78 205
Width: 1704
VWidth: 1900
Flags: W
HStem: 0 104<87 235.701 476.368 629> 1269 103<91 230.668 1098 1246.57 1487.47 1640>
VStem: 293 127<161.951 1037> 1303 128<513 1212.04>
LayerCount: 2
Fore
SplineSet
570 1372 m 1
 1303 513 l 1
 1303 960 l 2
 1303 1127 1294 1176 1254 1218 c 0
 1224 1250 1172 1269 1098 1269 c 1
 1098 1372 l 1
 1640 1372 l 1
 1640 1269 l 1
 1564 1269 1510 1250 1480 1218 c 0
 1440 1176 1431 1129 1431 960 c 2
 1431 -13 l 1
 1303 -13 l 1
 420 1037 l 1
 420 412 l 2
 420 245 429 198 469 156 c 0
 499 124 547 104 629 104 c 1
 629 0 l 1
 87 0 l 1
 87 104 l 1
 169 104 213 124 243 156 c 0
 283 198 293 245 293 412 c 2
 293 1161 l 1
 245 1229 177 1269 91 1269 c 1
 91 1372 l 1
 570 1372 l 1
EndSplineSet
Validated: 1
EndChar

StartChar: O
Encoding: 79 79 206
Width: 1572
VWidth: 1900
Flags: W
HStem: -28 98<641.068 940.154> 1302 98<629.397 936.256>
VStem: 69 380<415.871 926.452> 1124 380<417.911 919.66>
LayerCount: 2
Fore
SplineSet
787 1400 m 0
 973 1400 1122 1349 1249 1239 c 0
 1407 1104 1504 887 1504 667 c 0
 1504 445 1412 251 1249 120 c 0
 1122 19 972 -28 778 -28 c 0
 366 -28 69 262 69 665 c 0
 69 887 164 1102 324 1239 c 0
 448 1347 603 1400 787 1400 c 0
789 1302 m 0
 677 1302 601 1260 546 1167 c 0
 481 1059 449 906 449 701 c 0
 449 501 483 335 546 217 c 0
 599 118 679 70 789 70 c 0
 1006 70 1124 279 1124 665 c 0
 1124 870 1090 1041 1027 1155 c 0
 972 1252 892 1302 789 1302 c 0
EndSplineSet
Validated: 1
EndChar

StartChar: P
Encoding: 80 80 207
Width: 1487
VWidth: 1900
Flags: W
HStem: 0 103<88 271.186 640.814 840> 589 105<627 963.209> 1267 105<88 271.186 634.833 978.189>
VStem: 285 342<129.789 589 694 1240.21> 1072 366<803.873 1168.47>
LayerCount: 2
Fore
SplineSet
627 589 m 1
 627 274 l 2
 627 152 627 146 640 129 c 0
 657 110 697 103 798 103 c 2
 840 103 l 1
 840 0 l 1
 88 0 l 1
 88 103 l 1
 116 103 l 2
 215 103 255 110 272 129 c 0
 285 146 285 152 285 274 c 2
 285 1096 l 2
 285 1218 285 1224 272 1241 c 0
 255 1260 215 1267 116 1267 c 2
 88 1267 l 1
 88 1372 l 1
 842 1372 l 2
 1032 1372 1144 1353 1247 1305 c 0
 1369 1248 1438 1132 1438 990 c 0
 1438 724 1237 589 840 589 c 2
 627 589 l 1
627 694 m 1
 737 694 l 2
 982 694 1072 774 1072 992 c 0
 1072 1182 988 1267 808 1267 c 2
 732 1267 l 2
 646 1267 627 1246 627 1153 c 2
 627 694 l 1
EndSplineSet
Validated: 1
EndChar

StartChar: Q
Encoding: 81 81 208
Width: 1578
VWidth: 1900
Flags: W
HStem: -357 177<1106 1382.61> -28 98<630.991 892.666> 443 108<621.289 839.874> 1302 98<635.054 933.359>
VStem: 69 380<434.19 941.826> 1118 380<442.757 937.206> 1430 102<-166.162 -34>
LayerCount: 2
Fore
SplineSet
894 -48 m 2xfa
 894 -19 l 1
 848 -27 820 -28 774 -28 c 0
 561 -28 389 47 252 203 c 0
 132 338 69 506 69 690 c 0
 69 1093 379 1400 787 1400 c 0
 1182 1400 1498 1085 1498 690 c 0xfc
 1498 445 1376 217 1175 84 c 1
 1245 -129 1278 -180 1337 -180 c 0
 1396 -180 1430 -140 1430 -34 c 1
 1532 -34 l 1
 1532 -49 l 2
 1532 -231 1399 -357 1205 -357 c 0
 1007 -357 894 -246 894 -48 c 2xfa
1071 332 m 1
 1101 412 1118 551 1118 703 c 0
 1118 865 1092 1013 1044 1123 c 0
 993 1241 904 1302 784 1302 c 0
 564 1302 449 1104 449 720 c 0
 449 562 462 441 489 359 c 1
 512 418 527 447 557 475 c 0
 606 523 683 551 763 551 c 0
 860 551 952 509 1013 439 c 0
 1038 409 1050 385 1071 332 c 1
898 101 m 1
 898 143 903 171 903 190 c 0
 903 353 842 443 732 443 c 0
 633 443 565 363 565 251 c 0
 565 143 651 70 778 70 c 0
 824 70 849 76 898 101 c 1
EndSplineSet
Validated: 1
EndChar

StartChar: R
Encoding: 82 82 209
Width: 1639
VWidth: 1900
Flags: W
HStem: -28 159<1197.5 1466.73> 0 104<89 272.186 642.815 849> 659 105<629 890.34> 1269 103<89 272.186 636.338 978.555>
VStem: 287 342<131.789 659 764 1242.21> 950 385<160.702 468.134> 1066 363<868.541 1187.86> 1501 102<147.401 312>
LayerCount: 2
Fore
SplineSet
629 659 m 1xbd
 629 276 l 2
 629 154 629 148 642 131 c 0xbd
 659 112 701 104 800 104 c 2
 849 104 l 1
 849 0 l 1
 89 0 l 1
 89 104 l 1
 117 104 l 2x7d
 216 104 256 112 273 131 c 0
 286 148 287 154 287 276 c 2
 287 1098 l 2
 287 1220 286 1226 273 1243 c 0
 256 1262 216 1269 117 1269 c 2
 89 1269 l 1
 89 1372 l 1
 900 1372 l 2
 1075 1372 1203 1349 1275 1303 c 0
 1374 1238 1429 1142 1429 1028 c 0xbb
 1429 904 1362 800 1246 741 c 0
 1198 718 1150 705 1049 686 c 1
 1214 631 1287 545 1315 374 c 1
 1328 302 l 2
 1332 275 1335 257 1335 249 c 0
 1345 188 1347 175 1358 160 c 0
 1369 143 1392 131 1413 131 c 0
 1470 131 1501 192 1501 312 c 1
 1603 312 l 1
 1603 289 l 2
 1603 88 1485 -28 1280 -28 c 0
 1115 -28 1008 50 976 198 c 0
 970 228 950 308 950 435 c 1
 950 543 934 566 904 602 c 0
 870 640 817 659 735 659 c 2
 629 659 l 1xbd
629 764 m 1
 733 764 l 2
 986 764 1066 824 1066 1018 c 0x3b
 1066 1191 986 1269 809 1269 c 2
 763 1269 l 2
 641 1269 629 1256 629 1148 c 2
 629 764 l 1
EndSplineSet
Validated: 1
EndChar

StartChar: S
Encoding: 83 83 210
Width: 1278
VWidth: 1900
Flags: W
HStem: -28 98<545.635 900.605> -13 21G<125 243.071> 1302 98<438.121 781.311>
VStem: 125 220<867.583 1163.85> 125 97<422.666 524> 1003 228<229.711 544.5> 1069 76<893 965.477>
LayerCount: 2
Fore
SplineSet
1145 1385 m 1xb2
 1145 893 l 1
 1069 893 l 1xb2
 957 1163 800 1302 602 1302 c 0
 452 1302 345 1218 345 1102 c 0
 345 1024 388 969 474 939 c 0
 522 922 522 921 668 893 c 1
 760 872 l 1
 1089 800 1231 665 1231 424 c 0
 1231 158 1025 -28 729 -28 c 0xb4
 577 -28 456 12 340 99 c 1
 222 -13 l 1
 125 -13 l 1x6c
 125 524 l 1
 222 524 l 1
 326 239 514 70 729 70 c 0
 894 70 1003 160 1003 293 c 0xac
 1003 359 972 417 919 445 c 0
 873 470 836 479 714 502 c 2
 596 524 l 1
 298 579 125 745 125 977 c 0
 125 1230 326 1400 619 1400 c 0
 752 1400 855 1370 961 1298 c 1
 1060 1385 l 1
 1145 1385 l 1xb2
EndSplineSet
Validated: 1
EndChar

StartChar: T
Encoding: 84 84 211
Width: 1447
VWidth: 1900
Flags: W
HStem: 0 103<326 535.057 884.943 1094> 1273 99<333.377 537.238 882.655 1086.97>
VStem: 81 72<857 1008.53> 539 342<112.912 1271.65> 1267 72<857 1007.41>
CounterMasks: 1 38
LayerCount: 2
Fore
SplineSet
1339 1372 m 1
 1339 857 l 1
 1267 857 l 1
 1239 1011 1207 1091 1154 1161 c 0
 1093 1239 1031 1273 949 1273 c 0
 892 1273 881 1260 881 1195 c 2
 881 274 l 2
 881 154 881 146 894 131 c 0
 911 110 951 103 1052 103 c 2
 1094 103 l 1
 1094 0 l 1
 326 0 l 1
 326 103 l 1
 368 103 l 2
 469 103 509 110 526 131 c 0
 539 146 539 154 539 274 c 2
 539 1195 l 2
 539 1260 527 1273 470 1273 c 0
 383 1273 311 1229 250 1138 c 0
 204 1072 178 998 153 857 c 1
 81 857 l 1
 81 1372 l 1
 1339 1372 l 1
EndSplineSet
Validated: 1
EndChar

StartChar: U
Encoding: 85 85 212
Width: 1649
VWidth: 1900
Flags: W
HStem: -28 142<711.537 1091.52> 1269 103<46 240.057 589.943 786 1042 1190.57 1431.47 1584>
VStem: 244 342<236.013 1259.09> 1247 128<272.203 1212.04>
LayerCount: 2
Fore
SplineSet
586 1098 m 2
 586 490 l 2
 586 351 607 258 649 207 c 1
 702 146 784 114 892 114 c 0
 1050 114 1160 174 1215 294 c 0
 1240 347 1247 422 1247 578 c 2
 1247 960 l 2
 1247 1129 1238 1176 1198 1218 c 0
 1168 1250 1116 1269 1042 1269 c 1
 1042 1372 l 1
 1584 1372 l 1
 1584 1269 l 1
 1508 1269 1454 1250 1424 1218 c 0
 1384 1176 1375 1127 1375 960 c 2
 1375 578 l 2
 1375 354 1359 268 1306 182 c 0
 1213 36 1067 -28 824 -28 c 0
 556 -28 372 48 294 190 c 0
 258 256 244 336 244 496 c 2
 244 1098 l 2
 244 1218 244 1226 231 1241 c 0
 214 1262 174 1269 75 1269 c 2
 46 1269 l 1
 46 1372 l 1
 786 1372 l 1
 786 1269 l 1
 757 1269 l 2
 658 1269 616 1262 599 1241 c 0
 586 1226 586 1218 586 1098 c 2
EndSplineSet
Validated: 1
EndChar

StartChar: V
Encoding: 86 86 213
Width: 1628
VWidth: 1900
Flags: W
HStem: 1269 103<48 187.531 578.1 736 1000 1150.49 1433.5 1560>
LayerCount: 2
Fore
SplineSet
897 391 m 1
 1167 1068 l 2
 1178 1096 1184 1119 1184 1140 c 0
 1184 1186 1160 1227 1118 1248 c 0
 1091 1263 1061 1269 1000 1269 c 1
 1000 1372 l 1
 1560 1372 l 1
 1560 1269 l 1
 1444 1269 1359 1180 1298 1028 c 2
 863 -28 l 1
 696 -28 l 1
 234 1138 l 2
 190 1248 160 1269 48 1269 c 1
 48 1372 l 1
 736 1372 l 1
 736 1269 l 1
 696 1269 l 2
 612 1269 578 1256 578 1222 c 0
 578 1211 584 1189 595 1159 c 2
 897 391 l 1
EndSplineSet
Validated: 1
EndChar

StartChar: W
Encoding: 87 87 214
Width: 1951
VWidth: 1900
Flags: W
HStem: 1269 103<47 163.326 524.069 636 722 819.555 1172.28 1284 1406 1510.83 1781.33 1885>
LayerCount: 2
Fore
SplineSet
1387 490 m 1
 1552 1032 l 2
 1573 1100 1577 1121 1577 1148 c 0
 1577 1194 1552 1233 1512 1252 c 0
 1487 1263 1461 1269 1406 1269 c 1
 1406 1372 l 1
 1885 1372 l 1
 1885 1269 l 1
 1771 1246 1735 1203 1680 1015 c 1
 1349 -28 l 1
 1210 -28 l 1
 973 745 l 1
 722 -28 l 1
 579 -28 l 1
 192 1159 l 2
 162 1250 137 1269 51 1269 c 2
 47 1269 l 1
 47 1372 l 1
 636 1372 l 1
 636 1269 l 1
 547 1269 524 1256 524 1222 c 0
 524 1209 529 1189 540 1157 c 2
 760 477 l 1
 912 954 l 1
 844 1168 l 1
 816 1250 796 1269 722 1269 c 1
 722 1372 l 1
 1284 1372 l 1
 1284 1269 l 1
 1195 1269 1172 1254 1172 1218 c 0
 1172 1207 1174 1195 1184 1167 c 2
 1387 490 l 1
EndSplineSet
Validated: 1
EndChar

StartChar: X
Encoding: 88 88 215
Width: 1595
VWidth: 1900
Flags: W
HStem: 0 103<90 238.543 534.48 719 825 950.977 1382.4 1509> 1269 103<90 211.5 641.013 770 875 1037.12 1314.83 1460>
LayerCount: 2
Fore
SplineSet
932 785 m 1
 1268 294 l 2
 1386 123 1408 103 1509 103 c 1
 1509 0 l 1
 825 0 l 1
 825 103 l 1
 920 103 951 116 951 148 c 0
 951 167 941 194 926 213 c 2
 719 509 l 1
 552 296 l 2
 527 266 514 231 514 201 c 0
 514 135 575 103 719 103 c 1
 719 0 l 1
 90 0 l 1
 90 103 l 1
 200 103 254 139 364 274 c 2
 643 618 l 1
 254 1172 l 2
 201 1248 174 1269 90 1269 c 1
 90 1372 l 1
 770 1372 l 1
 770 1269 l 1
 658 1269 641 1260 641 1224 c 0
 641 1209 647 1193 660 1174 c 2
 860 887 l 1
 993 1051 l 2
 1039 1104 1057 1142 1057 1172 c 0
 1057 1235 995 1269 875 1269 c 1
 875 1372 l 1
 1460 1372 l 1
 1460 1269 l 1
 1361 1269 1295 1224 1209 1123 c 1
 932 785 l 1
EndSplineSet
Validated: 1
EndChar

StartChar: Y
Encoding: 89 89 216
Width: 1535
VWidth: 1900
Flags: W
HStem: 0 103<373 581.776 931.943 1141> 1269 103<48 179.811 595.026 732 907 1069.15 1327.25 1467>
VStem: 586 342<112.912 580>
LayerCount: 2
Fore
SplineSet
869 752 m 1
 1059 1091 l 2
 1074 1121 1086 1155 1086 1178 c 0
 1086 1233 1031 1269 947 1269 c 2
 907 1269 l 1
 907 1372 l 1
 1467 1372 l 1
 1467 1269 l 1
 1361 1269 1285 1210 1213 1092 c 1
 928 604 l 1
 928 274 l 2
 928 154 928 146 941 131 c 0
 958 110 998 103 1099 103 c 2
 1141 103 l 1
 1141 0 l 1
 373 0 l 1
 373 103 l 1
 415 103 l 2
 516 103 556 110 573 131 c 0
 586 146 586 156 586 274 c 2
 586 580 l 1
 198 1201 l 2
 162 1256 134 1269 48 1269 c 1
 48 1372 l 1
 732 1372 l 1
 732 1269 l 1
 702 1269 l 2
 630 1269 595 1255 595 1227 c 0
 595 1210 599 1198 618 1168 c 2
 869 752 l 1
EndSplineSet
Validated: 1
EndChar

StartChar: Z
Encoding: 90 90 217
Width: 1368
VWidth: 1900
Flags: W
HStem: 0 104<475 902.34> 1267 105<442.016 840>
VStem: 148 74<893 992.844> 1136 101<374.191 524>
LayerCount: 2
Fore
SplineSet
1237 1372 m 1
 1237 1267 l 1
 475 104 l 1
 644 104 l 2
 779 104 832 112 891 142 c 0
 1013 203 1102 342 1136 524 c 1
 1237 524 l 1
 1237 0 l 1
 78 0 l 1
 78 110 l 1
 840 1267 l 1
 699 1267 l 2
 498 1267 409 1231 325 1113 c 0
 283 1056 254 996 222 893 c 1
 148 893 l 1
 148 1372 l 1
 1237 1372 l 1
EndSplineSet
Validated: 1
EndChar

StartChar: a
Encoding: 97 97 218
Width: 1212
VWidth: 1900
Flags: W
HStem: -28 161<884.5 1072.13> -28 129<277 605.867> 828 99<401.186 655.452>
VStem: 76 318<126.725 330.643> 128 266<622.165 800.086> 690 298<170.893 446 538.867 792.545>
LayerCount: 2
Fore
SplineSet
988 604 m 2x6c
 988 270 l 2
 988 160 998 133 1040 133 c 0
 1053 133 1059 135 1076 146 c 0
 1091 156 1103 160 1114 160 c 0
 1131 160 1142 148 1142 129 c 0
 1142 47 1041 -28 933 -28 c 0xac
 836 -28 764 20 732 106 c 1
 631 7 532 -28 369 -28 c 0
 185 -28 76 53 76 194 c 0x74
 76 308 141 384 280 441 c 0
 369 477 435 494 627 536 c 0
 644 538 669 543 690 549 c 1
 690 648 l 2
 690 779 648 828 534 828 c 0
 458 828 394 800 394 768 c 0
 394 758 394 756 411 735 c 0
 428 712 437 686 437 663 c 0
 437 593 369 540 282 540 c 0
 195 540 128 600 128 682 c 0
 128 830 299 927 561 927 c 0
 709 927 829 897 899 840 c 0
 965 787 988 728 988 604 c 2x6c
690 446 m 1
 589 424 l 2
 452 392 394 335 394 234 c 0
 394 152 441 101 515 101 c 0x74
 621 101 690 194 690 340 c 2
 690 446 l 1
EndSplineSet
Validated: 1
EndChar

StartChar: b
Encoding: 98 98 219
Width: 1256
VWidth: 1900
Flags: W
HStem: -28 98<582.374 793.23> 785 142<611.304 807.392> 1275 97<46 195.055> 1380 20G<176.286 502>
VStem: 204 298<164.509 676.528 785 1268.88> 880 329<245.482 682.684>
LayerCount: 2
Fore
SplineSet
502 1400 m 1
 502 785 l 1
 580 884 669 927 796 927 c 0
 1037 927 1209 736 1209 466 c 0
 1209 173 1011 -28 722 -28 c 0
 580 -28 483 17 394 125 c 1
 270 -28 l 1
 177 -28 l 1
 196 76 204 207 204 391 c 2
 204 1098 l 2
 204 1267 198 1275 82 1275 c 2
 46 1275 l 1
 46 1372 l 1
 502 1400 l 1
702 785 m 0
 569 785 500 656 500 403 c 0
 500 188 567 70 692 70 c 0
 816 70 880 198 880 443 c 0
 880 671 822 785 702 785 c 0
EndSplineSet
Validated: 1
EndChar

StartChar: c
Encoding: 99 99 220
Width: 1053
VWidth: 1900
Flags: W
HStem: -28 129<505.715 778.338> 828 99<502.909 713.199>
VStem: 64 329<235.026 634.841> 719 266<620.5 800.385>
LayerCount: 2
Fore
SplineSet
907 336 m 1
 1006 304 l 1
 978 215 947 158 892 101 c 1
 808 10 716 -28 575 -28 c 0
 269 -28 64 158 64 435 c 0
 64 722 292 927 607 927 c 0
 837 927 985 825 985 669 c 0
 985 572 918 507 814 507 c 0
 723 507 659 564 659 646 c 0
 659 682 667 699 699 739 c 0
 716 760 719 769 719 775 c 0
 719 805 674 828 619 828 c 0
 477 828 393 695 393 469 c 0
 393 233 482 101 636 101 c 0
 714 101 789 137 835 198 c 0
 863 236 880 266 907 336 c 1
EndSplineSet
Validated: 1
EndChar

StartChar: d
Encoding: 100 100 221
Width: 1317
VWidth: 1900
Flags: W
HStem: -28 129<354.667 666.913> 0 124<1096.7 1237> 798 129<484.493 678.719> 1275 97<592 766.055> 1380 20G<729.429 1073>
VStem: 64 329<213.345 651.254> 775 298<209.898 691.451 798 1268.88>
LayerCount: 2
Fore
SplineSet
1073 1400 m 1xbe
 1073 232 l 2
 1073 175 1079 152 1096 137 c 0
 1111 124 1117 124 1185 124 c 2
 1237 124 l 1
 1242 0 l 1
 797 0 l 1x7e
 792 137 l 1
 714 23 617 -28 480 -28 c 0
 233 -28 64 159 64 435 c 0
 64 712 255 927 498 927 c 0
 618 927 703 885 775 798 c 1
 775 1098 l 2
 775 1267 769 1275 653 1275 c 2
 592 1275 l 1
 592 1372 l 1
 1073 1400 l 1xbe
585 798 m 0
 463 798 393 665 393 439 c 0
 393 222 461 101 581 101 c 0xbe
 699 101 779 243 779 450 c 0
 779 661 703 798 585 798 c 0
EndSplineSet
Validated: 1
EndChar

StartChar: e
Encoding: 101 101 222
Width: 1078
VWidth: 1900
Flags: W
HStem: -28 129<509.411 796.878> 433 105<394 730.324> 828 99<472.035 676.817>
VStem: 64 329<238.391 433 538 638.688> 731 298<538.265 686.284>
LayerCount: 2
Fore
SplineSet
1029 433 m 1
 393 433 l 1
 393 325 408 266 440 215 c 0
 488 143 564 101 651 101 c 0
 775 101 860 164 936 312 c 1
 1029 274 l 1
 945 71 799 -28 577 -28 c 0
 433 -28 305 13 218 87 c 0
 123 169 64 306 64 441 c 0
 64 566 115 692 201 781 c 0
 296 878 423 927 575 927 c 0
 852 927 1029 747 1029 464 c 2
 1029 433 l 1
394 538 m 1
 679 538 l 2
 717 538 731 552 731 598 c 0
 731 748 678 828 581 828 c 0
 467 828 394 718 394 538 c 1
EndSplineSet
Validated: 1
EndChar

StartChar: f
Encoding: 102 102 223
Width: 966
VWidth: 1900
Flags: W
HStem: 0 95<92 238.938 547.188 719> 785 114<79 244 542 780> 1294 99<587.551 695.126>
VStem: 244 298<103.121 785 899 1146.4> 696 238<1130.31 1292.33>
LayerCount: 2
Fore
SplineSet
780 899 m 1
 780 785 l 1
 542 785 l 1
 542 274 l 1
 542 184 l 2
 542 108 563 95 685 95 c 2
 719 95 l 1
 719 0 l 1
 92 0 l 1
 92 95 l 1
 100 95 l 2
 224 95 244 108 244 184 c 2
 244 274 l 1
 244 785 l 1
 79 785 l 1
 79 899 l 1
 244 899 l 1
 244 923 l 2
 244 1204 409 1393 658 1393 c 0
 816 1393 934 1304 934 1186 c 0
 934 1097 869 1030 782 1030 c 0
 702 1030 639 1087 639 1161 c 0
 639 1197 659 1239 687 1262 c 0
 695 1270 696 1273 696 1279 c 0
 696 1287 683 1294 666 1294 c 0
 628 1294 584 1262 565 1218 c 0
 546 1176 542 1134 542 1007 c 2
 542 899 l 1
 780 899 l 1
EndSplineSet
Validated: 1
EndChar

StartChar: g
Encoding: 103 103 224
Width: 1238
VWidth: 1900
Flags: W
HStem: -384 99<342.107 785.855> -82 266<379.447 797.506> 302 91<451.469 642.797> 828 99<452.951 648.252> 880 142<911.713 1088>
VStem: 60 247<-246.885 -96.9836> 89 290<106 259.133> 100 308<451.284 748.427> 693 308<458.433 756.824> 828 247<-212.375 -15>
LayerCount: 2
Fore
SplineSet
503 184 m 2xf240
 634 184 l 2
 771 184 854 177 917 156 c 1
 1012 128 1075 38 1075 -68 c 0
 1075 -271 877 -384 524 -384 c 0
 214 -384 60 -323 60 -198 c 0xf440
 60 -109 134 -47 261 -28 c 1
 151 2 89 64 89 148 c 0xf2
 89 247 161 307 309 334 c 1
 172 382 100 475 100 602 c 0
 100 790 288 927 548 927 c 0xf1
 645 927 731 908 803 872 c 1
 887 976 960 1022 1046 1022 c 0
 1130 1022 1187 973 1187 899 c 0
 1187 831 1135 777 1069 777 c 0
 1018 777 966 819 966 863 c 2
 966 870 l 2
 966 878 963 880 957 880 c 0xe9
 934 880 912 862 887 828 c 1
 971 760 1001 701 1001 612 c 0xf180
 1001 496 938 399 828 348 c 0
 756 314 683 302 558 302 c 2
 524 302 l 2
 414 302 379 287 379 239 c 0
 379 193 402 184 503 184 c 2xf240
554 828 m 0
 457 828 408 758 408 619 c 0
 408 558 417 504 438 462 c 1
 459 414 495 393 552 393 c 0
 641 393 693 473 693 608 c 0xf180
 693 752 645 828 554 828 c 0
626 -82 m 2
 377 -82 l 1
 329 -103 307 -133 307 -175 c 0
 307 -245 391 -285 537 -285 c 0
 733 -285 828 -247 828 -169 c 0xe440
 828 -144 816 -117 799 -106 c 0
 767 -85 744 -82 626 -82 c 2
EndSplineSet
Validated: 1
EndChar

StartChar: h
Encoding: 104 104 225
Width: 1396
VWidth: 1900
Flags: W
HStem: 0 97<89 236.623 543.197 669 739 865.916 1172.49 1318> 750 177<675.42 911.5> 1275 97<83 232.612> 1380 20G<213.286 539>
VStem: 241 298<104.594 665.208 750 1269.44> 870 298<105.016 713.752>
LayerCount: 2
Fore
SplineSet
539 1400 m 1
 539 750 l 1
 619 872 718 927 862 927 c 0
 961 927 1045 895 1096 836 c 1
 1147 781 1168 709 1168 591 c 2
 1168 274 l 1
 1168 186 l 2
 1168 108 1189 97 1311 97 c 2
 1318 97 l 1
 1318 0 l 1
 739 0 l 1
 739 97 l 1
 851 97 870 110 870 184 c 2
 870 274 l 1
 870 564 l 2
 870 686 822 750 735 750 c 0
 665 750 598 706 568 638 c 0
 547 592 539 544 539 458 c 2
 539 274 l 1
 539 186 l 2
 539 108 559 97 669 97 c 1
 669 0 l 1
 89 0 l 1
 89 97 l 1
 97 97 l 2
 221 97 241 108 241 184 c 2
 241 274 l 1
 241 1091 l 1
 241 1271 237 1275 119 1275 c 2
 83 1275 l 1
 83 1372 l 1
 539 1400 l 1
EndSplineSet
Validated: 1
EndChar

StartChar: i
Encoding: 105 105 226
Width: 765
VWidth: 1900
Flags: W
HStem: 0 97<94 237 545.274 689> 788 97<94 233.393> 1064 336<273.502 498.199>
VStem: 218 336<1120.3 1344.8> 242 299<105.121 781.669>
LayerCount: 2
Fore
SplineSet
541 899 m 1xe8
 541 274 l 1
 541 184 l 2
 541 110 561 97 677 97 c 2
 689 97 l 1
 689 0 l 1
 94 0 l 1
 94 97 l 1
 102 97 l 2
 222 97 242 110 242 186 c 2
 242 274 l 1
 242 610 l 2
 242 779 237 788 121 788 c 2
 94 788 l 1
 94 885 l 1
 541 899 l 1xe8
387 1400 m 0
 478 1400 554 1324 554 1233 c 0
 554 1138 478 1064 383 1064 c 0
 294 1064 218 1142 218 1233 c 0xf0
 218 1324 294 1400 387 1400 c 0
EndSplineSet
Validated: 1
EndChar

StartChar: j
Encoding: 106 106 227
Width: 819
VWidth: 1900
Flags: W
HStem: -384 90<232.454 351.209> 788 97<196 369.93> 1064 336<404.048 629.198>
VStem: 12 272<-265.756 -89.4098> 348 337<1121.73 1344.8> 379 298<-140.445 780.81>
LayerCount: 2
Fore
SplineSet
518 1400 m 0xf8
 609 1400 685 1324 685 1233 c 0
 685 1138 609 1064 514 1064 c 0
 425 1064 348 1142 348 1233 c 0
 348 1324 425 1400 518 1400 c 0xf8
677 899 m 1xf4
 677 207 l 2
 677 9 660 -97 611 -192 c 0
 552 -310 420 -384 278 -384 c 0
 122 -384 12 -304 12 -194 c 0
 12 -112 74 -51 160 -51 c 0
 232 -51 284 -105 284 -179 c 0
 284 -221 269 -247 229 -274 c 1
 240 -289 253 -294 278 -294 c 0
 346 -294 379 -235 379 -106 c 2
 379 625 l 2
 379 777 369 788 257 788 c 2
 196 788 l 1
 196 885 l 1
 677 899 l 1xf4
EndSplineSet
Validated: 1
EndChar

StartChar: k
Encoding: 107 107 228
Width: 1397
VWidth: 1900
Flags: W
HStem: 0 97<89 236.623 544.688 669 734 826.982 1213.14 1315> 802 97<686 821.902 1057.24 1245> 1275 97<84 232.393> 1380 20G<214.286 540>
VStem: 241 299<104.488 327 467 1268.88>
LayerCount: 2
Fore
SplineSet
540 1400 m 1
 540 467 l 1
 775 673 l 2
 809 703 823 726 823 749 c 0
 823 783 781 802 709 802 c 2
 686 802 l 1
 686 899 l 1
 1245 899 l 1
 1245 802 l 1
 1201 802 l 2
 1129 802 1074 778 996 712 c 2
 849 591 l 1
 1148 218 l 1
 1232 110 1249 97 1315 97 c 1
 1315 0 l 1
 734 0 l 1
 734 97 l 1
 753 97 l 2
 802 97 827 110 827 135 c 0
 827 152 817 175 802 194 c 2
 627 405 l 1
 540 327 l 1
 540 274 l 1
 540 186 l 2
 540 110 559 97 669 97 c 1
 669 0 l 1
 89 0 l 1
 89 97 l 1
 97 97 l 2
 221 97 241 108 241 184 c 2
 241 274 l 1
 241 1098 l 2
 241 1267 236 1275 120 1275 c 2
 84 1275 l 1
 84 1372 l 1
 540 1400 l 1
EndSplineSet
Validated: 1
EndChar

StartChar: l
Encoding: 108 108 229
Width: 756
VWidth: 1900
Flags: W
HStem: 0 97<89 236.623 568.638 682> 1275 97<83 232.055> 1380 20G<213.286 539>
VStem: 241 298<110.519 1268.88>
LayerCount: 2
Fore
SplineSet
539 1400 m 1
 539 274 l 1
 539 184 l 2
 539 136 545 121 568 110 c 0
 581 102 633 97 669 97 c 2
 682 97 l 1
 682 0 l 1
 89 0 l 1
 89 97 l 1
 97 97 l 2
 221 97 241 108 241 184 c 2
 241 274 l 1
 241 1098 l 2
 241 1267 235 1275 119 1275 c 2
 83 1275 l 1
 83 1372 l 1
 539 1400 l 1
EndSplineSet
Validated: 1
EndChar

StartChar: m
Encoding: 109 109 230
Width: 1932
VWidth: 1900
Flags: W
HStem: 0 97<98 245.648 551.056 658 717 822.328 1127.06 1234 1291 1397.94 1708.66 1850> 750 177<663.059 898.5 1234.23 1485.5> 788 97<98 241.055>
VStem: 250 298<104.594 685.955> 826 298<101.746 684.619> 1401 304<104.265 728.742>
LayerCount: 2
Fore
SplineSet
531 899 m 1xbc
 531 750 l 1
 607 870 708 927 835 927 c 0
 962 927 1063 862 1103 756 c 1
 1192 878 1279 927 1401 927 c 0
 1570 927 1705 808 1705 652 c 2
 1705 274 l 1
 1705 184 l 2
 1705 110 1720 97 1842 97 c 2
 1850 97 l 1
 1850 0 l 1
 1291 0 l 1
 1291 97 l 1
 1388 97 1401 110 1401 184 c 2
 1401 274 l 1
 1401 581 l 2
 1401 699 1369 750 1297 750 c 0
 1191 750 1124 663 1124 528 c 2
 1124 274 l 1
 1124 184 l 2
 1124 110 1137 97 1234 97 c 1
 1234 0 l 1
 717 0 l 1
 717 97 l 1
 812 97 826 110 826 186 c 2
 826 274 l 1
 826 574 l 2
 826 699 795 750 721 750 c 0xdc
 617 750 548 663 548 528 c 2
 548 274 l 1
 548 184 l 2
 548 110 561 97 658 97 c 1
 658 0 l 1
 98 0 l 1
 98 97 l 1
 108 97 l 2
 230 97 250 108 250 186 c 2
 250 274 l 1
 250 610 l 2
 250 779 244 788 128 788 c 2
 98 788 l 1
 98 885 l 1
 531 899 l 1xbc
EndSplineSet
Validated: 1
EndChar

StartChar: n
Encoding: 110 110 231
Width: 1410
VWidth: 1900
Flags: W
HStem: 0 97<98 243.648 550.223 678 750 876.916 1183.49 1329> 750 177<681.634 920.5> 788 97<98 239.055>
VStem: 248 298<104.594 662.336 732 781.884> 881 298<105.016 709.953>
LayerCount: 2
Fore
SplineSet
533 899 m 1xb8
 533 732 l 1
 626 873 721 927 871 927 c 0
 970 927 1056 895 1107 836 c 1
 1158 781 1179 709 1179 591 c 2
 1179 274 l 1
 1179 186 l 2
 1179 108 1200 97 1322 97 c 2
 1329 97 l 1
 1329 0 l 1
 750 0 l 1
 750 97 l 1
 862 97 881 110 881 184 c 2
 881 274 l 1
 881 564 l 2
 881 686 831 750 742 750 c 0xd8
 674 750 607 706 577 638 c 1
 554 592 546 544 546 458 c 2
 546 274 l 1
 546 184 l 2
 546 110 566 97 678 97 c 1
 678 0 l 1
 98 0 l 1
 98 97 l 1
 106 97 l 2
 228 97 248 108 248 186 c 2
 248 274 l 1
 248 604 l 2
 248 781 242 788 126 788 c 2
 98 788 l 1
 98 885 l 1
 533 899 l 1xb8
EndSplineSet
Validated: 1
EndChar

StartChar: o
Encoding: 111 111 232
Width: 1150
VWidth: 1900
Flags: W
HStem: -28 98<481.891 682.93> 828 99<480.778 687.07>
VStem: 64 329<247.79 648.273> 776 329<248.859 645.198>
LayerCount: 2
Fore
SplineSet
590 927 m 0
 879 927 1105 715 1105 445 c 0
 1105 173 883 -28 583 -28 c 0
 283 -28 64 172 64 448 c 0
 64 722 288 927 590 927 c 0
586 828 m 0
 459 828 393 699 393 448 c 0
 393 197 458 70 585 70 c 0
 707 70 776 205 776 446 c 0
 776 545 761 653 738 716 c 0
 713 782 652 828 586 828 c 0
EndSplineSet
Validated: 1
EndChar

StartChar: p
Encoding: 112 112 233
Width: 1267
VWidth: 1900
Flags: W
HStem: -384 95<52 196.969 506.062 666> -28 129<595.293 804.602> 785 142<615.715 810.17> 788 97<52 193.951>
VStem: 202 299<-280.879 95 198.306 676.141> 890 329<252.836 685.22>
LayerCount: 2
Fore
SplineSet
501 899 m 1xdc
 501 777 l 1
 587 885 668 927 797 927 c 0xec
 1040 927 1219 735 1219 473 c 0
 1219 188 1025 -28 770 -28 c 0
 662 -28 577 11 501 95 c 1
 501 -110 l 1
 501 -200 l 2
 501 -276 521 -289 645 -289 c 2
 666 -289 l 1
 666 -384 l 1
 52 -384 l 1
 52 -289 l 1
 60 -289 l 2
 182 -289 202 -276 202 -200 c 2
 202 -110 l 1
 202 604 l 1
 202 784 199 788 81 788 c 2
 52 788 l 1
 52 885 l 1
 501 899 l 1xdc
713 785 m 0
 574 785 499 659 499 435 c 0
 499 220 571 101 698 101 c 0
 818 101 890 228 890 441 c 0
 890 665 827 785 713 785 c 0
EndSplineSet
Validated: 1
EndChar

StartChar: q
Encoding: 113 113 234
Width: 1232
VWidth: 1900
Flags: W
HStem: -384 95<602 762.781 1071.03 1216> -28 129<419.133 656.654> 828 99<483.215 688.698>
VStem: 65 328<219.451 646.457> 768 298<-280.879 110 208.727 739.634>
LayerCount: 2
Fore
SplineSet
1001 925 m 1
 1094 925 l 1
 1075 775 1066 633 1066 517 c 2
 1066 -110 l 1
 1066 -200 l 2
 1066 -276 1086 -289 1208 -289 c 2
 1216 -289 l 1
 1216 -384 l 1
 602 -384 l 1
 602 -289 l 1
 623 -289 l 2
 747 -289 768 -276 768 -200 c 2
 768 -110 l 1
 768 110 l 1
 686 15 595 -28 475 -28 c 0
 365 -28 246 23 180 101 c 1
 110 179 65 316 65 441 c 0
 65 720 272 927 549 927 c 0
 693 927 794 879 880 773 c 1
 1001 925 l 1
585 828 m 0
 460 828 393 699 393 448 c 0
 393 220 456 101 578 101 c 0
 700 101 773 245 773 481 c 0
 773 582 764 650 741 707 c 0
 711 781 650 828 585 828 c 0
EndSplineSet
Validated: 1
EndChar

StartChar: r
Encoding: 114 114 235
Width: 1104
VWidth: 1900
Flags: W
HStem: 0 97<98 243.648 552.491 733> 572 355<778.043 972.673> 788 97<98 239.393>
VStem: 248 300<104.594 593.502> 740 306<621.389 798.113>
LayerCount: 2
Fore
SplineSet
522 899 m 1xb8
 522 669 l 1
 590 844 691 927 837 927 c 0
 959 927 1046 845 1046 735 c 0
 1046 642 976 572 883 572 c 0xd8
 801 572 740 630 740 712 c 0
 740 746 748 768 773 802 c 1
 708 783 668 748 628 678 c 0
 580 594 548 445 548 312 c 2
 548 274 l 1
 548 186 l 2
 548 108 569 97 691 97 c 2
 733 97 l 1
 733 0 l 1
 98 0 l 1
 98 97 l 1
 106 97 l 2
 228 97 248 108 248 186 c 2
 248 274 l 1
 248 604 l 2
 248 781 243 788 127 788 c 2
 98 788 l 1
 98 885 l 1
 522 899 l 1xb8
EndSplineSet
Validated: 1
EndChar

StartChar: s
Encoding: 115 115 236
Width: 984
VWidth: 1900
Flags: W
HStem: -28 98<374.724 677.215> 828 99<357.649 635.32>
VStem: 109 86<261.832 332> 117 209<598.558 771.034> 704 218<134.196 334>
LayerCount: 2
Fore
SplineSet
871 908 m 1xd8
 871 608 l 1
 789 608 l 1
 696 764 607 828 485 828 c 0
 392 828 326 783 326 718 c 0xd8
 326 669 351 650 444 625 c 2
 615 583 l 2
 752 549 792 532 841 488 c 0
 894 440 922 374 922 294 c 0
 922 104 765 -28 541 -28 c 0
 442 -28 343 -4 273 38 c 1
 199 4 l 1
 109 4 l 1
 109 332 l 1
 195 332 l 1xe8
 286 152 395 70 541 70 c 0
 642 70 704 114 704 182 c 0
 704 239 666 272 571 293 c 2
 432 323 l 2
 308 350 254 376 197 431 c 0
 146 480 117 547 117 619 c 0
 117 798 270 927 483 927 c 0
 574 927 647 908 719 866 c 1
 789 908 l 1
 871 908 l 1xd8
EndSplineSet
Validated: 1
EndChar

StartChar: t
Encoding: 116 116 237
Width: 826
VWidth: 1900
Flags: W
HStem: -28 161<397 629.982> 785 114<480 727> 785 99<47 180.692>
VStem: 182 298<138.842 785> 360 120<1097.27 1275> 670 103<170.974 353>
LayerCount: 2
Fore
SplineSet
727 899 m 1xcc
 727 785 l 1
 480 785 l 1xd4
 480 296 l 2
 480 167 495 133 550 133 c 0
 628 133 670 212 670 353 c 1
 771 353 l 1
 773 334 773 320 773 310 c 0
 773 228 745 137 697 76 c 0
 646 8 559 -28 451 -28 c 0
 343 -28 261 10 221 76 c 0
 189 129 182 175 182 331 c 2
 182 785 l 1
 47 785 l 1
 47 884 l 1xb4
 227 905 330 1032 360 1275 c 1
 480 1275 l 1
 480 899 l 1
 727 899 l 1xcc
EndSplineSet
Validated: 1
EndChar

StartChar: u
Encoding: 117 117 238
Width: 1375
VWidth: 1900
Flags: W
HStem: -28 176<448.5 696.43> 0 103<1142.44 1291> 788 111<50 193.612 684 827.393>
VStem: 202 298<181.838 782.442> 836 299<111.068 156 232.697 781.884>
LayerCount: 2
Fore
SplineSet
1135 899 m 1xb8
 1135 249 l 1
 1135 205 l 2
 1135 137 1149 103 1238 103 c 2
 1291 103 l 1
 1291 0 l 1
 849 0 l 1x78
 850 156 l 1
 740 21 648 -28 513 -28 c 0
 384 -28 283 31 232 135 c 0
 205 188 202 222 202 363 c 2
 202 604 l 1
 202 784 198 788 80 788 c 2
 50 788 l 1
 50 899 l 1
 500 899 l 1
 500 352 l 2
 500 208 540 148 635 148 c 0
 707 148 774 191 804 256 c 1
 829 304 836 357 836 452 c 2
 836 604 l 2
 836 781 831 788 715 788 c 2
 684 788 l 1
 684 885 l 1
 1135 899 l 1xb8
EndSplineSet
Validated: 1
EndChar

StartChar: v
Encoding: 118 118 239
Width: 1215
VWidth: 1900
Flags: W
HStem: 804 95<46 144.632 483.02 582 728 867.761 1050.13 1159>
LayerCount: 2
Fore
SplineSet
701 266 m 1
 840 616 l 2
 868 686 874 703 874 730 c 0
 874 783 832 804 728 804 c 1
 728 899 l 1
 1159 899 l 1
 1159 804 l 1
 1152 804 l 2
 1076 804 1034 763 979 636 c 2
 686 -27 l 1
 525 -27 l 1
 175 703 l 2
 135 787 116 804 46 804 c 1
 46 899 l 1
 582 899 l 1
 582 804 l 1
 510 804 483 792 483 760 c 0
 483 749 488 730 498 711 c 2
 701 266 l 1
EndSplineSet
Validated: 1
EndChar

StartChar: w
Encoding: 119 119 240
Width: 1730
VWidth: 1900
Flags: W
HStem: 802 97<46 147.885 477.013 570 629 731.01 1044.02 1160 1245 1374.73 1565.91 1674>
LayerCount: 2
Fore
SplineSet
1230 293 m 1
 1363 616 l 2
 1382 662 1389 691 1389 714 c 0
 1389 767 1338 802 1258 802 c 2
 1245 802 l 1
 1245 899 l 1
 1674 899 l 1
 1674 802 l 1
 1588 802 1551 762 1496 640 c 2
 1198 -27 l 1
 1055 -27 l 1
 852 473 l 1
 635 -27 l 1
 491 -27 l 1
 181 695 l 2
 147 775 120 802 46 802 c 1
 46 899 l 1
 570 899 l 1
 570 802 l 1
 494 802 477 792 477 756 c 0
 477 746 478 746 491 712 c 2
 656 293 l 1
 793 616 l 1
 745 730 l 2
 720 789 699 802 629 802 c 1
 629 899 l 1
 1160 899 l 1
 1160 802 l 1
 1146 802 l 2
 1074 802 1044 788 1044 758 c 0
 1044 748 1047 733 1055 716 c 2
 1230 293 l 1
EndSplineSet
Validated: 1
EndChar

StartChar: x
Encoding: 120 120 241
Width: 1313
VWidth: 1900
Flags: W
HStem: 0 97<98 217.199 428.91 542 613 701.982 1096.48 1209> 802 97<98 198.07 577.016 660 723 842.979 1042.14 1190>
LayerCount: 2
Fore
SplineSet
776 517 m 1
 1038 205 l 2
 1118 112 1139 97 1209 97 c 1
 1209 0 l 1
 613 0 l 1
 613 97 l 1
 626 97 l 2
 677 97 702 111 702 141 c 0
 702 154 696 165 681 182 c 2
 569 317 l 1
 455 205 l 2
 438 188 428 169 428 150 c 0
 428 118 463 97 518 97 c 2
 542 97 l 1
 542 0 l 1
 98 0 l 1
 98 97 l 1
 155 97 199 121 267 184 c 2
 497 403 l 1
 225 728 l 2
 176 787 155 802 98 802 c 1
 98 899 l 1
 660 899 l 1
 660 802 l 1
 639 802 l 2
 599 802 577 790 577 771 c 0
 577 760 582 749 597 732 c 2
 706 600 l 1
 803 694 l 2
 831 721 843 739 843 758 c 0
 843 785 815 802 767 802 c 2
 723 802 l 1
 723 899 l 1
 1190 899 l 1
 1190 802 l 1
 1108 802 1052 775 974 703 c 2
 776 517 l 1
EndSplineSet
Validated: 1
EndChar

StartChar: y
Encoding: 121 121 242
Width: 1216
VWidth: 1900
Flags: W
HStem: -391 129<209 437.578> 802 97<52 149.989 491.015 591 734 873.688 1056.01 1161>
LayerCount: 2
Fore
SplineSet
707 300 m 1
 865 648 l 2
 875 671 882 705 882 726 c 0
 882 775 837 802 755 802 c 2
 734 802 l 1
 734 899 l 1
 1161 899 l 1
 1161 802 l 1
 1083 802 1043 762 988 646 c 2
 656 -70 l 2
 553 -294 440 -391 280 -391 c 0
 138 -391 44 -321 44 -217 c 0
 44 -124 116 -51 209 -51 c 0
 293 -51 352 -104 352 -180 c 0
 352 -207 348 -226 337 -245 c 0
 335 -247 335 -249 335 -251 c 0
 335 -257 342 -262 352 -262 c 0
 405 -262 464 -209 513 -112 c 1
 557 -30 l 1
 167 726 l 2
 137 789 122 802 52 802 c 1
 52 899 l 1
 591 899 l 1
 591 802 l 1
 557 802 l 2
 511 802 491 789 491 762 c 0
 491 749 496 730 506 711 c 2
 707 300 l 1
EndSplineSet
Validated: 1
EndChar

StartChar: z
Encoding: 122 122 243
Width: 1094
VWidth: 1900
Flags: W
HStem: 0 95<450 751.741> 804 95<308.748 605>
VStem: 142 74<557 665.322> 869 93<240.479 361>
LayerCount: 2
Fore
SplineSet
962 899 m 1
 962 808 l 1
 450 95 l 1
 567 95 l 2
 696 95 727 106 776 167 c 0
 818 218 842 270 869 361 c 1
 962 361 l 1
 962 0 l 1
 88 0 l 1
 88 84 l 1
 605 804 l 1
 508 804 l 2
 375 804 341 794 299 750 c 0
 271 720 252 675 216 557 c 1
 142 557 l 1
 142 899 l 1
 962 899 l 1
EndSplineSet
Validated: 1
EndChar

StartChar: CGJ
Encoding: 847 847 245
Width: 0
VWidth: 0
Flags: W
HStem: 1397 21G<-91.1235 -85.5989 76.6684 81.9465> 1584 56<-124 124>
VStem: -204 408
LayerCount: 2
Fore
SplineSet
-124 1584 m 25
 -81 1397 l 25
 -204 1640 l 25
 204 1640 l 25
 71 1397 l 25
 124 1584 l 25
 -124 1584 l 25
EndSplineSet
Validated: 1
EndChar

StartChar: zeronojoin
Encoding: 8204 8204 246
Width: 0
VWidth: 0
Flags: W
HStem: 1582 57<-213 -122 122 213>
VStem: -213 426
LayerCount: 2
Fore
SplineSet
-213 1582 m 1
 -213 1639 l 1
 -42 1639 l 9
 -42 1523 l 25
 -122 1582 l 17
 -213 1582 l 1
213 1582 m 1
 122 1582 l 9
 42 1522 l 25
 42 1637 l 17
 213 1637 l 1
 213 1582 l 1
EndSplineSet
Validated: 1
EndChar
